SplineFontDB: 3.0
FontName: N-Trills
FullName: 
FamilyName: N
Weight: 
Copyright: 
UComments: "2011-5-24: Created." 
Version: 0
ItalicAngle: 0
UnderlinePosition: -100
UnderlineWidth: 50
Ascent: 800
Descent: 200
sfntRevision: 0x00000000
LayerCount: 2
Layer: 0 0 "Back"  1
Layer: 1 0 "Zeichenebene"  0
XUID: [1021 201 23757 16427]
FSType: 0
OS2Version: 0
OS2_WeightWidthSlopeOnly: 0
OS2_UseTypoMetrics: 1
CreationTime: 1306259327
ModificationTime: 1409118153
OS2TypoAscent: 0
OS2TypoAOffset: 1
OS2TypoDescent: 0
OS2TypoDOffset: 1
OS2TypoLinegap: 90
OS2WinAscent: 0
OS2WinAOffset: 1
OS2WinDescent: 0
OS2WinDOffset: 1
HheadAscent: 0
HheadAOffset: 1
HheadDescent: 0
HheadDOffset: 1
OS2Vendor: 'PfEd'
MarkAttachClasses: 1
DEI: 91125
Encoding: UnicodeBmp
UnicodeInterp: none
NameList: Adobe Glyph List
DisplaySize: -72
AntiAlias: 1
FitToEm: 1
WinInfo: 0 8 4
BeginPrivate: 0
EndPrivate
Grid
-106 140 m 17
 73 -140 l 1025
692 -140 m 17
 513 140 l 1033
14 140 m 17
 193 -140 l 1025
327 -140 m 17
 148 140 l 1033
259 140 m 17
 438 -140 l 1
 688 140 l 1033
572 -140 m 17
 393 140 l 1033
-52 -140 m 17
 198 140 l 1033
-102 -140 m 17
 148 140 l 1033
388 -140 m 17
 638 140 l 1033
193 -140 m 17
 443 140 l 1033
143 -140 m 17
 393 140 l 1033
-975 -20 m 0
 2025 -20 l 1024
-975 20 m 0
 2025 20 l 1024
-975 -140 m 1
 2025 -140 l 1025
-975 140 m 1
 2025 140 l 1025
EndSplineSet
BeginChars: 65536 264

StartChar: zero
Encoding: 48 48 0
Width: 192
VWidth: 0
Flags: W
HStem: -59 58<108 197> 1 58<37 126.5>
LayerCount: 2
Back
SplineSet
206 218 m 7
 125 218 124 97 124 0 c 7
 124 -73 137 -217 209 -217 c 7
 272 -217 282 -116 282 0 c 7
 282 141 261 218 206 218 c 7
203 247 m 7
 337 247 396 130 396 7 c 7
 396 -122 355 -247 203 -247 c 7
 103 -247 10 -164 10 1 c 7
 10 132 63 247 203 247 c 7
EndSplineSet
Fore
SplineSet
188 -1 m 3
 206 -1 220 17 228 25 c 0
 230 27 230 27 232 27 c 0
 234 27 234 25 234 23 c 0
 234 13 214 -11 208 -17 c 0
 190 -39 160 -59 134 -59 c 3
 82 -59 81 1 46 1 c 0
 28 1 15 -18 7 -26 c 0
 5 -27 4 -27 2 -27 c 0
 0 -27 0 -26 0 -24 c 0
 0 -14 21 11 26 17 c 0
 45 39 74 59 100 59 c 0
 153 59 154 -1 188 -1 c 3
EndSplineSet
EndChar

StartChar: one
Encoding: 49 49 1
Width: 264
VWidth: 0
Flags: MW
HStem: -59 58<151.2 275.8> 1 58<51.8003 177.1>
LayerCount: 2
Back
SplineSet
196.998 485 m 6
 211.998 485 222 479.667 222 457 c 6
 222 69 l 6
 222 39 225.5 36 260.5 32.5 c 4
 278.521 30.6982 282 26 282 14 c 7
 282 -2 274 -2 249 -2 c 7
 218 -2 197.005 -1 170 -1 c 7
 140 -1 116 -2 86 -2 c 7
 53 -2 50 -1 50 14 c 7
 50 24 52 29 68 31 c 4
 115 36 117 38 117 105 c 6
 117 280 l 6
 117 298 116 316 107 316 c 7
 101 316 97 312 40 242 c 4
 32 232 29.2549 230 23 230 c 7
 11.6514 230 10 232.934 10 238 c 4
 10 241 11 244 13 248 c 4
 43 315 83 389 105 443 c 4
 121 483 135 485 152 485 c 6
 196.998 485 l 6
EndSplineSet
Fore
SplineSet
263.2 -1 m 3
 288.4 -1 308 17 319.2 25 c 0
 322 27 322 27 324.8 27 c 0
 327.6 27 327.6 25 327.6 23 c 0
 327.6 13 299.6 -11 291.2 -17 c 0
 266 -39 224 -59 187.6 -59 c 3
 114.8 -59 113.4 1 64.4004 1 c 0
 39.2002 1 21 -18 9.7998 -26 c 0
 7 -27 5.59961 -27 2.7998 -27 c 0
 0 -27 0 -26 0 -24 c 0
 0 -14 29.4004 11 36.4004 17 c 0
 63 39 103.6 59 140 59 c 0
 214.2 59 215.6 -1 263.2 -1 c 3
EndSplineSet
EndChar

StartChar: two
Encoding: 50 50 2
Width: 249
VWidth: 0
Flags: W
HStem: -71 65<151.5 237.266> 6 65<67.7146 154.5>
LayerCount: 2
Back
SplineSet
244 -1 m 7
 267 -1 286 20 296 30 c 4
 299 32 299 32 302 32 c 4
 305 32 304 30 304 28 c 4
 304 16 278 -13 270 -20 c 4
 247 -46 208 -71 174 -71 c 7
 106 -71 106 1 60 1 c 4
 37 1 19 -21 9 -31 c 4
 6 -32 6 -32 3 -32 c 4
 0 -32 0 -31 0 -29 c 4
 0 -17 28 13 34 20 c 4
 59 46 96 71 130 71 c 4
 199 71 200 -1 244 -1 c 7
EndSplineSet
Fore
SplineSet
234 -6 m 3
 257 -6 286 20 296 30 c 0
 299 32 299 32 302 32 c 0
 305 32 304 30 304 28 c 0
 304 16 278 -13 270 -20 c 0
 247 -46 213 -71 179 -71 c 3
 124 -71 116 6 70 6 c 0
 47 6 19 -21 9 -31 c 0
 6 -32 6 -32 3 -32 c 0
 0 -32 0 -31 0 -29 c 0
 0 -17 28 13 34 20 c 0
 59 46 91 71 125 71 c 0
 184 71 190 -6 234 -6 c 3
EndSplineSet
EndChar

StartChar: three
Encoding: 51 51 3
Width: 249
VWidth: 0
Flags: W
HStem: -71 65<151.5 237.572> 6 65<66.4282 152.5>
LayerCount: 2
Back
SplineSet
234 -6 m 7
 257 -6 286 20 296 30 c 4
 299 32 299 32 302 32 c 4
 305 32 304 30 304 28 c 4
 304 16 278 -13 270 -20 c 4
 247 -46 213 -71 179 -71 c 7
 124 -71 116 6 70 6 c 4
 47 6 19 -21 9 -31 c 4
 6 -32 6 -32 3 -32 c 4
 0 -32 0 -31 0 -29 c 4
 0 -17 28 13 34 20 c 4
 59 46 91 71 125 71 c 4
 184 71 190 -6 234 -6 c 7
EndSplineSet
Fore
SplineSet
179 -71 m 0
 124 -71 116 6 70 6 c 0
 50 6 27 -16 14 -28 c 0
 4 -38 -5 -29 3 -14 c 0
 11 0 29 17 34 22 c 0
 60 47 91 71 125 71 c 3
 180 71 188 -6 234 -6 c 0
 254 -6 277 16 290 28 c 0
 300 38 309 29 301 14 c 0
 293 0 275 -17 270 -22 c 0
 244 -47 213 -71 179 -71 c 0
EndSplineSet
EndChar

StartChar: four
Encoding: 52 52 4
Width: 232
VWidth: 0
Flags: W
HStem: -71 65<141.5 227.491> 6 65<56.5092 142.5>
LayerCount: 2
Back
SplineSet
179 -71 m 4
 124 -71 116 6 70 6 c 4
 50 6 27 -16 14 -28 c 4
 4 -38 -5 -29 3 -14 c 4
 11 0 29 17 34 22 c 4
 60 47 91 71 125 71 c 7
 180 71 188 -6 234 -6 c 4
 254 -6 277 16 290 28 c 4
 300 38 309 29 301 14 c 4
 293 0 275 -17 270 -22 c 4
 244 -47 213 -71 179 -71 c 4
EndSplineSet
Fore
SplineSet
169 -71 m 3
 114 -71 106 6 60 6 c 0
 40 6 25 -15 14 -28 c 0
 11 -31 9 -33 6 -33 c 0
 3 -33 0 -29 0 -24 c 0
 0 -21 1 -18 3 -14 c 0
 24 26 68 71 115 71 c 0
 170 71 178 -6 224 -6 c 0
 244 -6 259 15 270 28 c 0
 273 31 275 33 278 33 c 0
 281 33 284 29 284 24 c 0
 284 21 283 18 281 14 c 0
 260 -26 216 -71 169 -71 c 3
EndSplineSet
EndChar

StartChar: five
Encoding: 53 53 5
Width: 233
Flags: HW
HStem: -64 52<173.792 229.86> 12 52<52.9323 109.208>
LayerCount: 2
Back
SplineSet
223 40 m 6x8e
 167 40 l 6
 141 40 136.084 36.9796 129 8 c 6
 107 -82 l 6
 104 -97 99 -119 99 -138 c 4
 99 -160 106 -178 128 -178 c 4
 180 -178 209 -131 217 -99 c 6
 243 15 l 5
 245 19 245 23 245 27 c 4
 245 35 240 40 223 40 c 6x8e
312 58 m 4
 312 54 311 48 311 43 c 4
 311 34 313 26 322 26 c 4
 328 26 336 29 347 37 c 4
 370 52 388 60 409 60 c 4xa6
 423.902 60 435.566 53.757 443.667 44.1713 c 4
 456.576 28.8954 458.965 20.2877 480 38.7678 c 4
 495.852 52.6938 512.388 64 530 64 c 4
 575 64 605 -12 640 -12 c 4
 651 -12 667 -4 692 16 c 4
 698 21 704 23 708 23 c 4
 712 23 715 21 715 18 c 4
 715 16 714 14 713 12 c 4
 708 1 692 -13 682 -23 c 4
 661 -43 639 -64 615 -64 c 4
 570 -64 540 12 505 12 c 4xd6
 497.871 12 489.062 8.63972 476.667 0.830253 c 4
 463.909 -7.20744 453.924 -22.778 441.667 -32.9668 c 4
 435.669 -37.9525 427.828 -41 418 -41 c 4xa6
 399 -41 386 -22 386 -3 c 4
 386 19 381 19 373 19 c 4
 365 19 351 13 339 5 c 4
 312 -12 299 -26 288 -76 c 6
 261 -192 l 6
 257 -211 256 -218 236 -218 c 6
 213 -218 l 6
 199 -218 196 -215 196 -207 c 4
 196 -204 197 -198 197 -195 c 4
 197 -189 194 -187 189 -187 c 4
 181 -187 169 -194 160 -198 c 4
 142 -207 119 -221 94 -221 c 4
 48 -221 31 -191 31 -156 c 4
 31 -147 32 -138 34 -129 c 6
 68 16 l 6
 70 21 70 25 70 28 c 4
 70 39 63 40 43 40 c 6
 10 40 l 6
 3 40 0 42 0 47 c 4
 0 60 6 67 19 67 c 6
 55 67 l 6
 75 67 82 78 87 98 c 6
 94 130 l 6
 98 148 96 157 113 173 c 4
 129 187 136 196 150 212 c 4
 159 222 166 226 170 226 c 4
 174 226 176 222 176 215 c 4
 176 212 175 208 174 203 c 6
 150 101 l 6
 149 94 148 89 148 84 c 4
 148 70 156 67 175 67 c 6
 229 67 l 6
 269 67 281 70 297 70 c 4
 310 70 312 65 312 58 c 4
EndSplineSet
Fore
SplineSet
184 -64 m 0
 139 -64 109 12 74 12 c 3
 63 12 48 4 22 -16 c 0
 16 -21 10 -23 6 -23 c 0
 2 -23 -0 -21 -0 -18 c 0
 -0 -16 0 -14 1 -12 c 0
 6 -1 22 13 32 23 c 0
 53 43 75 64 99 64 c 3
 144 64 174 -12 209 -12 c 3
 220 -12 236 -4 261 16 c 0
 267 21 273 23 277 23 c 0
 281 23 284 21 284 18 c 0
 284 16 283 14 282 12 c 0
 277 1 261 -13 251 -23 c 0
 230 -43 208 -64 184 -64 c 0
EndSplineSet
EndChar

StartChar: eight
Encoding: 56 56 6
Width: 560
VWidth: 0
Flags: W
HStem: -134 58<49.9959 133.5 396.709 499.778> 80 54<60.222 158.54 426.5 510.004>
VStem: 0 32<-59.4597 45.9837> 528 32<-45.9837 59.4597>
LayerCount: 2
Fore
SplineSet
0 -3 m 0
 0 67 54 134 128 134 c 0
 168 134 198 119 235 85 c 2
 377 -39 l 2
 397 -55 424 -80 452 -80 c 0
 489 -80 528 -48 528 4 c 0
 528 33 516 76 481 76 c 0
 457 76 455 44 423 44 c 0
 398 44 383 60 383 84 c 0
 383 112 407 134 446 134 c 0
 514 134 560 74 560 3 c 0
 560 -67 506 -134 432 -134 c 0
 392 -134 362 -119 325 -85 c 2
 183 39 l 2
 163 55 136 80 108 80 c 0
 71 80 32 48 32 -4 c 0
 32 -33 44 -76 79 -76 c 0
 103 -76 105 -44 137 -44 c 0
 162 -44 177 -60 177 -84 c 0
 177 -112 153 -134 114 -134 c 0
 46 -134 0 -74 0 -3 c 0
EndSplineSet
EndChar

StartChar: nine
Encoding: 57 57 7
Width: 560
VWidth: 0
Flags: HW
HStem: 76 58<50 134 397 500> -134 54<60 159 426 510>
VStem: 0 32<-46 59> 528 32<-59 46>
LayerCount: 2
Fore
SplineSet
0 3 m 0
 0 74 46 134 114 134 c 0
 153 134 177 112 177 84 c 0
 177 60 162 44 137 44 c 0
 105 44 103 76 79 76 c 0
 44 76 32 33 32 4 c 0
 32 -48 71 -80 108 -80 c 0
 136 -80 163 -55 183 -39 c 2
 325 85 l 2
 362 119 392 134 432 134 c 0
 506 134 560 67 560 -3 c 0
 560 -74 514 -134 446 -134 c 0
 407 -134 383 -112 383 -84 c 0
 383 -60 398 -44 423 -44 c 0
 455 -44 457 -76 481 -76 c 0
 516 -76 528 -33 528 -4 c 0
 528 48 489 80 452 80 c 0
 424 80 397 55 377 39 c 2
 235 -85 l 2
 198 -119 168 -134 128 -134 c 0
 54 -134 0 -67 0 3 c 0
EndSplineSet
EndChar

StartChar: colon
Encoding: 58 58 8
Width: 560
VWidth: 0
Flags: W
HStem: -200 21G<274 288.5> -200 21G<274 288.5> -134 58<49.9959 133.5 395.797 499.778> 80 54<60.222 159.035 426.5 510.004> 180 20G<273 290.5> 180 20G<273 290.5>
VStem: 0 32<-59.4597 45.9837> 263 35<-199.998 -75.5747 80.0889 199.999> 528 32<-45.9837 59.4597>
LayerCount: 2
Fore
SplineSet
263 -183 m 0xbb80
 263 -149 263 -118 263 -85 c 0
 263 -32 255 -24 227 1 c 2
 183 39 l 1
 163 55 136 80 108 80 c 0
 71 80 32 48 32 -4 c 0
 32 -33 44 -76 79 -76 c 0
 103 -76 105 -44 137 -44 c 0
 162 -44 177 -60 177 -84 c 0
 177 -112 153 -134 114 -134 c 0
 46 -134 0 -74 0 -3 c 0
 0 67 54 134 128 134 c 0
 163 134 191 122 222 96 c 0
 236 85 245 80 251 80 c 0
 261 80 263 94 263 117 c 0
 263 137 263 156 263 183 c 0
 263 200 265 200 281 200 c 0
 282 200 283 200 285 200 c 0
 296 200 298 199 298 181 c 0
 298 142 298 114 298 86 c 0
 298 43 308 21 339 -6 c 2
 377 -39 l 2
 397 -56 424 -80 452 -80 c 0
 489 -80 528 -48 528 4 c 0
 528 33 516 76 481 76 c 0
 457 76 455 44 423 44 c 0
 398 44 383 60 383 84 c 0
 383 112 407 134 446 134 c 0
 514 134 560 74 560 3 c 0
 560 -67 506 -134 432 -134 c 0
 395 -134 366 -121 333 -92 c 0
 321 -81 312 -75 307 -75 c 0
 300 -75 298 -83 298 -101 c 0
 298 -130 298 -156 298 -182 c 0
 298 -197 295 -200 282 -200 c 0
 266 -200 263 -200 263 -183 c 0xbb80
EndSplineSet
EndChar

StartChar: semicolon
Encoding: 59 59 9
Width: 560
VWidth: 0
Flags: HW
HStem: 179 21G<274 288> 179 21G<274 288> 76 58<50 134 396 500> -134 54<60 158 426 510> -200 20G<273 288> -200 20G<273 288>
VStem: 0 32<-46 59> 263 35<81 200 -200 -83> 528 32<-59 46>
LayerCount: 2
Back
SplineSet
254 256 m 4xe8
 354 252 421 199 421 115 c 4
 421 93 411 45 363 29 c 4
 352 26 340 26 326 26 c 4
 273 26 246 65 246 111 c 4
 246 148 282 178 301 185 c 4
 309 189 313 192 313 197 c 4xf0
 313 216 291 227 251 227 c 7
 230 227 224 215 224 193 c 7
 224 136 223 33 223 -32 c 7
 223 -110 226 -148 226 -188 c 4
 226 -209 233 -219 245 -219 c 4
 332 -219 385 -121 390 -45 c 4
 391 -36 399 -31 409 -31 c 4
 431 -31 431 -46 431 -60 c 4
 431 -100 416 -141 390 -178 c 4
 358 -223 329 -248 255 -255 c 4
 240 -256 224 -261 224 -280 c 4
 224 -302 227 -337 227 -337 c 7
 227 -362 219 -362 205 -362 c 7
 188 -362 185 -350 185 -328 c 7
 185 -311 186 -297 186 -281 c 7
 186 -255 168 -251 146 -243 c 4
 59 -213 0 -131 0 -15 c 4
 0 103 51 192 133 232 c 4
 157 244 187 248 187 273 c 7
 187 293 185 320 185 340 c 7
 185 362 197 364 204 364 c 7
 220 364 225 362 225 333 c 7
 225 314 224 305 224 283 c 7
 224 258 237 256 254 256 c 4xe8
176 193 m 31
 164 193 158 186 152 175 c 4
 135 140 133 53 133 -15 c 4
 133 -65 138 -133 155 -174 c 4
 159 -184 169 -196 174 -196 c 7
 182 -196 185 -195 185 -166 c 7
 185 -113 183 -13 183 81 c 7
 183 115 184 148 184 179 c 15
 184 185 182 193 176 193 c 31
EndSplineSet
Fore
SplineSet
263 183 m 0
 263 149 263 118 263 85 c 0
 263 32 255 24 227 -1 c 2
 183 -39 l 1
 163 -55 136 -80 108 -80 c 0
 71 -80 32 -48 32 4 c 0
 32 33 44 76 79 76 c 0
 103 76 105 44 137 44 c 0
 162 44 177 60 177 84 c 0
 177 112 153 134 114 134 c 0
 46 134 0 74 0 3 c 0xbb80
 0 -67 54 -134 128 -134 c 0
 163 -134 191 -122 222 -96 c 0
 236 -85 245 -80 251 -80 c 0
 261 -80 263 -94 263 -117 c 0
 263 -137 263 -156 263 -183 c 0
 263 -200 265 -200 281 -200 c 0
 282 -200 283 -200 285 -200 c 0
 296 -200 298 -199 298 -181 c 0
 298 -142 298 -114 298 -86 c 0
 298 -43 308 -21 339 6 c 2
 377 39 l 2
 397 56 424 80 452 80 c 0
 489 80 528 48 528 -4 c 0
 528 -33 516 -76 481 -76 c 0
 457 -76 455 -44 423 -44 c 0
 398 -44 383 -60 383 -84 c 0
 383 -112 407 -134 446 -134 c 0
 514 -134 560 -74 560 -3 c 0
 560 67 506 134 432 134 c 0
 395 134 366 121 333 92 c 0
 321 81 312 75 307 75 c 0
 300 75 298 83 298 101 c 0
 298 130 298 156 298 182 c 0
 298 197 295 200 282 200 c 0
 266 200 263 200 263 183 c 0
EndSplineSet
EndChar

StartChar: H
Encoding: 72 72 10
Width: 586
Flags: HMW
HStem: -200 21G<281.5 307> -200 21G<281.5 307> 180 20G<281 306.5> 180 20G<281 306.5>
VStem: 276 36<-200 200>
LayerCount: 2
Back
SplineSet
21 -52 m 4
 15 -52 4 -35 4 -28 c 4
 4 -23 7 -18 14 -11 c 6
 119 107 l 6
 133 123 141 131 147 131 c 4
 155 131 161 120 175 98 c 6
 224 20 l 6
 235 3 243 -5 251 -5 c 4
 270 -5 277 24 277 55 c 4
 277 100 276 128 276 183 c 4
 276 202 280 200 298 200 c 4
 309 200 311 199 311 181 c 6
 311 89 l 6
 311 74 313 64 318 64 c 4
 323 64 330 69 338 78 c 6
 363 106 l 6
 377 123 385 132 391 132 c 4
 398 132 404 123 417 103 c 6
 471 17 l 6
 482 1 488 -8 496 -8 c 4
 504 -8 514 2 533 22 c 6
 553 44 l 6
 558 50 562 53 565 53 c 4
 571 53 581 36 581 28 c 4
 581 23 578 17 571 9 c 6
 475 -98 l 6
 457 -118 448 -130 440 -130 c 4
 432 -130 425 -119 410 -96 c 6
 362 -21 l 6
 350 -2 343 8 335 8 c 4
 317 8 310 -18 310 -47 c 4
 310 -97 311 -140 311 -182 c 4
 311 -197 308 -200 295 -200 c 4
 279 -200 276 -200 276 -183 c 6
 276 -94 l 6
 277 -77 273 -66 266 -66 c 4
 261 -66 255 -70 248 -78 c 6
 225 -104 l 6
 209 -122 202 -131 195 -131 c 4
 187 -131 181 -121 168 -100 c 6
 115 -18 l 6
 104 -1 98 8 90 8 c 4
 82 8 73 -0 58 -17 c 6
 36 -42 l 6
 29 -49 25 -52 21 -52 c 4
EndSplineSet
Fore
SplineSet
21 -52 m 0x58
 15 -52 4 -35 4 -28 c 0
 4 -23 7 -18 14 -11 c 2
 119 107 l 2
 133 123 141 131 147 131 c 0
 155 131 161 120 175 98 c 2
 224 20 l 2
 235 3 243 -5 251 -5 c 0
 255 -5 259 -4 263 -1 c 0
 274 6 276 10 276 29 c 2
 276 200 l 2
 276 210 277 210 285 210 c 2
 302 210 l 2
 311 210 312 210 312 200 c 2
 312 85 l 2
 312 67 321 59 337 77 c 2
 363 106 l 2
 377 123 385 132 391 132 c 0
 398 132 404 123 417 103 c 2
 471 17 l 2
 482 1 488 -8 496 -8 c 0
 504 -8 514 2 533 22 c 2
 553 44 l 2
 558 50 562 53 565 53 c 0
 571 53 581 36 581 28 c 0
 581 23 578 17 571 9 c 2
 475 -98 l 2
 457 -118 448 -130 440 -130 c 0
 432 -130 425 -119 410 -96 c 2
 362 -21 l 2
 350 -2 343 8 335 8 c 0
 332 8 329 7 326 5 c 0
 316 -2 312 -6 312 -25 c 2
 312 -200 l 2
 312 -210 311 -210 303 -210 c 2
 286 -210 l 2
 277 -210 276 -210 276 -200 c 2
 276 -90 l 2
 276 -60 267 -57 248 -78 c 2
 225 -104 l 2
 209 -122 202 -131 195 -131 c 0
 187 -131 181 -121 168 -100 c 2
 115 -18 l 2
 104 -1 98 8 90 8 c 0
 82 8 73 -0 58 -17 c 2
 36 -42 l 2
 29 -49 25 -52 21 -52 c 0x58
EndSplineSet
EndChar

StartChar: J
Encoding: 74 74 11
Width: 1071
Flags: HW
HStem: -210 21G<771.5 797> 111 20G<144 151 388 394.5 634 641 771 796.5 878 884.5> 112 20G<388 394.5 878 884.5> 190 20G<771 796.5>
VStem: 766 36<-210 -71.2559 -3.73306 7.05078 73.2633 210>
LayerCount: 2
Back
SplineSet
302 -18 m 2
 225 -104 l 2
 209 -122 202 -131 195 -131 c 0
 187 -131 181 -121 168 -100 c 2
 115 -18 l 2
 104 -1 98 8 90 8 c 0
 82 8 73 -0 58 -17 c 2
 36 -42 l 2
 29 -49 25 -52 21 -52 c 0
 15 -52 4 -35 4 -28 c 0
 4 -23 7 -18 14 -11 c 2
 119 107 l 2
 133 123 141 131 147 131 c 0
 155 131 161 120 175 98 c 2
 224 20 l 2
 235 3 243 -5 251 -5 c 0
 261 -5 270 3 288 23 c 2
 364 107 l 2
 378 123 386 131 392 131 c 0
 400 131 406 120 420 98 c 2
 469 20 l 2
 480 3 488 -5 496 -5 c 0
 506 -5 516 4 533 23 c 2
 609 107 l 2
 623 123 631 131 637 131 c 0
 645 131 651 120 665 98 c 2
 714 20 l 2
 725 3 733 -5 741 -5 c 0
 760 -5 767 24 767 55 c 0
 767 100 766 128 766 183 c 0
 766 202 770 200 788 200 c 0
 799 200 801 199 801 181 c 2
 801 89 l 2
 801 74 803 64 808 64 c 0
 813 64 820 69 828 78 c 2
 853 106 l 2
 867 123 875 132 881 132 c 0
 888 132 894 123 907 103 c 2
 961 17 l 2
 972 1 978 -8 986 -8 c 0
 994 -8 1004 2 1023 22 c 2
 1043 44 l 2
 1048 50 1052 53 1055 53 c 0
 1061 53 1071 36 1071 28 c 0
 1071 23 1068 17 1061 9 c 2
 965 -98 l 2
 947 -118 938 -130 930 -130 c 0
 922 -130 915 -119 900 -96 c 2
 852 -21 l 2
 840 -2 833 8 825 8 c 0
 807 8 800 -18 800 -47 c 0
 800 -97 801 -140 801 -182 c 0
 801 -197 798 -200 785 -200 c 0
 769 -200 766 -200 766 -183 c 2
 766 -94 l 2
 767 -77 763 -66 756 -66 c 0
 751 -66 745 -70 738 -78 c 2
 715 -104 l 2
 699 -122 692 -131 685 -131 c 0
 677 -131 671 -121 658 -100 c 2
 605 -18 l 2
 594 -1 588 8 580 8 c 0
 572 8 562 -2 547 -18 c 2
 470 -104 l 2
 454 -122 447 -131 440 -131 c 0
 432 -131 426 -121 413 -100 c 2
 360 -18 l 2
 349 -1 343 8 335 8 c 0
 327 8 317 -1 302 -18 c 2
EndSplineSet
Fore
SplineSet
21 -52 m 0xb8
 15 -52 4 -35 4 -28 c 0
 4 -23 7 -18 14 -11 c 2
 119 107 l 2
 133 123 141 131 147 131 c 0xd8
 155 131 161 120 175 98 c 2
 224 20 l 2
 235 3 243 -5 251 -5 c 0
 261 -5 271 4 288 23 c 2
 363 106 l 1
 377 123 385 132 391 132 c 0xb8
 398 132 404 123 417 103 c 2
 471 17 l 2
 482 1 488 -8 496 -8 c 0
 504 -8 513 1 532 22 c 2
 609 107 l 2
 623 123 631 131 637 131 c 0xd8
 645 131 651 120 665 98 c 2
 714 20 l 2
 725 3 733 -5 741 -5 c 0
 745 -5 749 -4 753 -1 c 0
 764 6 766 10 766 29 c 2
 766 200 l 2
 766 210 767 210 775 210 c 2
 792 210 l 2
 801 210 802 210 802 200 c 2
 802 85 l 2
 802 67 811 59 827 77 c 2
 853 106 l 2
 867 123 875 132 881 132 c 0
 888 132 894 123 907 103 c 2
 961 17 l 2
 972 1 978 -8 986 -8 c 0
 994 -8 1004 2 1023 22 c 2
 1043 44 l 2
 1048 50 1052 53 1055 53 c 0
 1061 53 1071 36 1071 28 c 0
 1071 23 1068 17 1061 9 c 2
 965 -98 l 2
 947 -118 938 -130 930 -130 c 0
 922 -130 915 -119 900 -96 c 2
 852 -21 l 2
 840 -2 833 8 825 8 c 0
 822 8 819 7 816 5 c 0
 806 -2 802 -6 802 -25 c 2
 802 -200 l 2
 802 -210 801 -210 793 -210 c 2
 776 -210 l 2
 767 -210 766 -210 766 -200 c 2
 766 -90 l 2
 766 -60 757 -57 738 -78 c 2
 715 -104 l 2
 699 -122 692 -131 685 -131 c 0
 677 -131 671 -121 658 -100 c 2
 605 -18 l 2
 594 -1 588 8 580 8 c 0
 572 8 562 -1 548 -17 c 2
 475 -98 l 2
 457 -118 448 -130 440 -130 c 0
 432 -130 425 -119 410 -96 c 2
 362 -21 l 2
 350 -2 343 8 335 8 c 0
 327 8 318 -0 302 -18 c 2
 225 -104 l 2
 209 -122 202 -131 195 -131 c 0
 187 -131 181 -121 168 -100 c 2
 115 -18 l 2
 104 -1 98 8 90 8 c 0
 82 8 73 -0 58 -17 c 2
 36 -42 l 2
 29 -49 25 -52 21 -52 c 0xb8
EndSplineSet
EndChar

StartChar: I
Encoding: 73 73 12
Width: 826
Flags: W
HStem: -210 21G<526.5 552> 112 20G<144 151 388 394.5 526 551.5 633 639.5> 112 20G<388 394.5 633 639.5> 190 20G<526 551.5>
VStem: 521 36<-210 -71.2559 -5.09409 6.93923 73.2497 210>
LayerCount: 2
Back
SplineSet
302 -18 m 2
 225 -104 l 2
 209 -122 202 -131 195 -131 c 0
 187 -131 181 -121 168 -100 c 2
 115 -18 l 2
 104 -1 98 8 90 8 c 0
 82 8 73 -0 58 -17 c 2
 36 -42 l 2
 29 -49 25 -52 21 -52 c 0
 15 -52 4 -35 4 -28 c 0
 4 -23 7 -18 14 -11 c 2
 119 107 l 2
 133 123 141 131 147 131 c 0
 155 131 161 120 175 98 c 2
 224 20 l 2
 235 3 243 -5 251 -5 c 0
 261 -5 271 4 288 23 c 2
 364 107 l 2
 378 123 386 131 392 131 c 0
 400 131 406 120 420 98 c 2
 469 20 l 2
 480 3 488 -5 496 -5 c 0
 515 -5 522 24 522 55 c 0
 522 100 521 128 521 183 c 0
 521 202 525 200 543 200 c 0
 554 200 556 199 556 181 c 2
 556 89 l 2
 556 74 558 64 563 64 c 0
 568 64 575 69 583 78 c 2
 608 106 l 2
 622 123 630 132 636 132 c 0
 643 132 649 123 662 103 c 2
 716 17 l 2
 727 1 733 -8 741 -8 c 0
 749 -8 759 2 778 22 c 2
 798 44 l 2
 803 50 807 53 810 53 c 0
 816 53 826 36 826 28 c 0
 826 23 823 17 816 9 c 2
 720 -98 l 2
 702 -118 693 -130 685 -130 c 0
 677 -130 670 -119 655 -96 c 2
 607 -21 l 2
 595 -2 588 8 580 8 c 0
 562 8 555 -18 555 -47 c 0
 555 -97 556 -140 556 -182 c 0
 556 -197 553 -200 540 -200 c 0
 524 -200 521 -200 521 -183 c 2
 521 -94 l 2
 522 -77 518 -66 511 -66 c 0
 506 -66 500 -70 493 -78 c 2
 470 -104 l 2
 454 -122 447 -131 440 -131 c 0
 432 -131 426 -121 413 -100 c 2
 360 -18 l 2
 349 -1 343 8 335 8 c 0
 327 8 317 -2 302 -18 c 2
EndSplineSet
Fore
SplineSet
608 106 m 2xd8
 623 122 630 132 636 132 c 0
 643 132 649 123 662 103 c 2
 716 17 l 2
 727 1 733 -8 741 -8 c 0
 749 -8 759 2 778 22 c 2
 798 44 l 2
 803 50 807 53 810 53 c 0
 816 53 826 36 826 28 c 0
 826 23 823 17 816 9 c 2
 720 -98 l 2
 702 -118 693 -130 685 -130 c 0
 677 -130 670 -119 655 -96 c 2
 607 -21 l 2
 595 -2 588 8 580 8 c 0
 577 8 574 7 570 4 c 0
 561 -2 557 -7 557 -25 c 2
 557 -200 l 2
 557 -210 556 -210 548 -210 c 2
 531 -210 l 2
 522 -210 521 -210 521 -200 c 2
 521 -90 l 2
 521 -60 512 -57 493 -78 c 2
 475 -98 l 2
 457 -118 448 -130 440 -130 c 0
 432 -130 425 -119 410 -96 c 2
 362 -21 l 2
 350 -2 343 8 335 8 c 0
 327 8 318 -0 302 -18 c 2
 225 -104 l 2
 209 -122 202 -131 195 -131 c 0
 187 -131 181 -121 168 -100 c 2
 115 -18 l 2
 104 -1 98 8 90 8 c 0
 82 8 73 -0 58 -17 c 2
 36 -42 l 2
 29 -49 25 -52 21 -52 c 0
 15 -52 4 -35 4 -28 c 0
 4 -23 7 -18 14 -11 c 2
 119 107 l 2
 133 123 141 131 147 131 c 0
 155 131 161 120 175 98 c 2
 224 20 l 2
 235 3 243 -5 251 -5 c 0
 261 -5 271 4 288 23 c 2
 363 106 l 1
 377 123 385 132 391 132 c 0
 398 132 404 123 417 103 c 2
 471 17 l 2
 482 1 488 -7 496 -7 c 0
 500 -7 504 -5 508 -2 c 0
 519 7 521 10 521 29 c 2
 521 200 l 2
 521 210 522 210 530 210 c 2
 547 210 l 2
 556 210 557 210 557 200 c 2
 557 85 l 2
 557 67 566 59 582 77 c 2
 608 106 l 2xd8
EndSplineSet
EndChar

StartChar: K
Encoding: 75 75 13
Width: 1316
Flags: HMW
HStem: -200 21G<281.5 307> -200 21G<281.5 307> 180 20G<281 306.5> 180 20G<281 306.5>
VStem: 276 36<-200 200>
LayerCount: 2
Back
SplineSet
302 -18 m 2
 225 -104 l 2
 209 -122 202 -131 195 -131 c 0
 187 -131 181 -121 168 -100 c 2
 115 -18 l 2
 104 -1 98 8 90 8 c 0
 82 8 73 -0 58 -17 c 2
 36 -42 l 2
 29 -49 25 -52 21 -52 c 0
 15 -52 4 -35 4 -28 c 0
 4 -23 7 -18 14 -11 c 2
 119 107 l 2
 133 123 141 131 147 131 c 0
 155 131 161 120 175 98 c 2
 224 20 l 2
 235 3 243 -5 251 -5 c 0
 261 -5 271 4 288 23 c 2
 364 107 l 2
 378 123 386 131 392 131 c 0
 400 131 406 120 420 98 c 2
 469 20 l 2
 480 3 488 -5 496 -5 c 0
 506 -5 515 3 533 23 c 2
 609 107 l 2
 623 123 631 131 637 131 c 0
 645 131 651 120 665 98 c 2
 714 20 l 2
 725 3 733 -5 741 -5 c 0
 751 -5 761 4 778 23 c 2
 854 107 l 2
 868 123 876 131 882 131 c 0
 890 131 896 120 910 98 c 2
 959 20 l 2
 970 3 978 -5 986 -5 c 0
 1005 -5 1012 24 1012 55 c 0
 1012 100 1011 128 1011 183 c 0
 1011 202 1015 200 1033 200 c 0
 1044 200 1046 199 1046 181 c 2
 1046 89 l 2
 1046 74 1048 64 1053 64 c 0
 1058 64 1065 69 1073 78 c 2
 1098 106 l 2
 1112 123 1120 132 1126 132 c 0
 1133 132 1139 123 1152 103 c 2
 1206 17 l 2
 1217 1 1223 -8 1231 -8 c 0
 1239 -8 1249 2 1268 22 c 2
 1288 44 l 2
 1293 50 1297 53 1300 53 c 0
 1306 53 1316 36 1316 28 c 0
 1316 23 1313 17 1306 9 c 2
 1210 -98 l 2
 1192 -118 1183 -130 1175 -130 c 0
 1167 -130 1160 -119 1145 -96 c 2
 1097 -21 l 2
 1085 -2 1078 8 1070 8 c 0
 1052 8 1045 -18 1045 -47 c 0
 1045 -97 1046 -140 1046 -182 c 0
 1046 -197 1043 -200 1030 -200 c 0
 1014 -200 1011 -200 1011 -183 c 2
 1011 -94 l 2
 1012 -77 1008 -66 1001 -66 c 0
 996 -66 990 -70 983 -78 c 2
 960 -104 l 2
 944 -122 937 -131 930 -131 c 0
 922 -131 916 -121 903 -100 c 2
 850 -18 l 2
 839 -1 833 8 825 8 c 0
 817 8 807 -2 792 -18 c 2
 715 -104 l 2
 699 -122 692 -131 685 -131 c 0
 677 -131 671 -121 658 -100 c 2
 605 -18 l 2
 594 -1 588 8 580 8 c 0
 572 8 562 -1 547 -18 c 2
 470 -104 l 2
 454 -122 447 -131 440 -131 c 0
 432 -131 426 -121 413 -100 c 2
 360 -18 l 2
 349 -1 343 8 335 8 c 0
 327 8 317 -1 302 -18 c 2
EndSplineSet
Fore
SplineSet
534 23 m 2x58
 608 106 l 2
 623 122 630 132 636 132 c 0
 643 132 649 123 662 103 c 2
 716 17 l 2
 727 1 733 -8 741 -8 c 0
 749 -8 758 1 777 22 c 2
 854 107 l 2
 868 123 876 131 882 131 c 0
 890 131 896 120 910 98 c 2
 959 20 l 2
 970 3 978 -5 986 -5 c 0
 990 -5 994 -4 998 -1 c 0
 1009 6 1011 10 1011 29 c 2
 1011 200 l 2
 1011 210 1012 210 1020 210 c 2
 1037 210 l 2
 1046 210 1047 210 1047 200 c 2
 1047 85 l 2
 1047 67 1056 59 1072 77 c 2
 1098 106 l 2
 1112 123 1120 132 1126 132 c 0
 1133 132 1139 123 1152 103 c 2
 1206 17 l 2
 1217 1 1223 -8 1231 -8 c 0
 1239 -8 1249 2 1268 22 c 2
 1288 44 l 2
 1293 50 1297 53 1300 53 c 0
 1306 53 1316 36 1316 28 c 0
 1316 23 1313 17 1306 9 c 2
 1210 -98 l 2
 1192 -118 1183 -130 1175 -130 c 0
 1167 -130 1160 -119 1145 -96 c 2
 1097 -21 l 2
 1085 -2 1078 8 1070 8 c 0
 1067 8 1064 7 1061 5 c 0
 1051 -2 1047 -6 1047 -25 c 2
 1047 -200 l 2
 1047 -210 1046 -210 1038 -210 c 2
 1021 -210 l 2
 1012 -210 1011 -210 1011 -200 c 2
 1011 -90 l 2
 1011 -60 1002 -57 983 -78 c 2
 960 -104 l 2
 944 -122 937 -131 930 -131 c 0
 922 -131 916 -121 903 -100 c 2
 850 -18 l 2
 839 -1 833 8 825 8 c 0
 817 8 808 0 793 -17 c 2
 720 -98 l 2
 702 -118 693 -130 685 -130 c 0
 677 -130 670 -119 655 -96 c 2
 607 -21 l 2
 595 -2 588 8 580 8 c 0
 572 8 563 -0 547 -18 c 2
 475 -98 l 2
 457 -118 448 -130 440 -130 c 0
 432 -130 425 -119 410 -96 c 2
 362 -21 l 2
 350 -2 343 8 335 8 c 0
 327 8 318 -0 302 -18 c 2
 225 -104 l 2
 209 -122 202 -131 195 -131 c 0
 187 -131 181 -121 168 -100 c 2
 115 -18 l 2
 104 -1 98 8 90 8 c 0
 82 8 73 -0 58 -17 c 2
 36 -42 l 2
 29 -49 25 -52 21 -52 c 0
 15 -52 4 -35 4 -28 c 0
 4 -23 7 -18 14 -11 c 2
 119 107 l 2
 133 123 141 131 147 131 c 0
 155 131 161 120 175 98 c 2
 224 20 l 2
 235 3 243 -5 251 -5 c 0
 261 -5 271 4 288 23 c 2
 363 106 l 1
 377 123 385 132 391 132 c 0
 398 132 404 123 417 103 c 2
 471 17 l 2
 482 1 488 -8 496 -8 c 0
 504 -8 515 2 534 23 c 2x58
EndSplineSet
EndChar

StartChar: M
Encoding: 77 77 14
Width: 312
Flags: HW
HStem: -200 21G<281.5 307> -200 21G<281.5 307> 180 20G<281 306.5> 180 20G<281 306.5>
VStem: 276 36<-200 200>
LayerCount: 2
Back
SplineSet
277 33 m 27
 277 92 276 119 276 183 c 3
 276 200 278 200 294 200 c 3
 308 200 311 201 311 181 c 3
 311 102 310 68 310 -4 c 27
 310 -73 311 -129 311 -182 c 3
 311 -197 308 -200 295 -200 c 3
 279 -200 276 -200 276 -183 c 3
 276 -112 277 -51 277 33 c 27
EndSplineSet
Fore
SplineSet
276 200 m 2xa8
 276 210 277 210 285 210 c 2
 302 210 l 2
 311 210 312 210 312 200 c 2
 312 -200 l 2
 312 -210 311 -210 303 -210 c 2
 286 -210 l 2
 277 -210 276 -210 276 -200 c 2
 276 200 l 2xa8
EndSplineSet
EndChar

StartChar: N
Encoding: 78 78 15
Width: 586
Flags: HW
HStem: -200 21G<281.5 307> -200 21G<281.5 307> 180 20G<281 306.5> 180 20G<281 306.5>
VStem: 276 36<-200 200>
LayerCount: 2
Back
SplineSet
337 77 m 6
 363 106 l 1030
248 -78 m 2
 242.913 -83.75 l 0
 225 -104 l 1026
215 43.4492 m 1
 220 36 l 2
 236 12 249 2 259 2 c 0
 272 2 279 20 279 48 c 0
 279 102 278 137 278 195 c 0
 278 232 279 232 295 232 c 0
 309 232 311 230 311 187 c 0
 311 157 310 133 310 110 c 0
 310 90 315 83 322 83 c 0
 329 83 337 92 343 100 c 2
 349 109 l 2
 354.14 116.343 358.741 122.472 363 127.29 c 1
 363 -27.9199 l 1
 359 -22 l 2
 349 -8 341 -2 333 -2 c 0
 318 -2 309 -26 309 -49 c 0
 310 -110 311 -165 311 -208 c 0
 311 -227 309 -232 296 -232 c 0
 280 -232 278 -229 278 -206 c 0
 278 -176 278 -145 278 -113 c 0
 278 -92 275 -79 267 -79 c 0
 262 -79 253 -89 246 -100 c 0
 234.32 -117.131 224.459 -128.199 215 -132.258 c 1
 215 43.4492 l 1
EndSplineSet
Fore
SplineSet
335 8 m 0
 332 8 329 7 326 5 c 0
 316 -2 312 -6 312 -25 c 2
 312 -200 l 2
 312 -210 311 -210 303 -210 c 2
 286 -210 l 2
 277 -210 276 -210 276 -200 c 2
 276 -90 l 2
 276 -60 267 -57 248 -78 c 2
 240 -87 l 2
 236 -91 237 -92 233 -93 c 1
 233 -70 242 -5 251 -5 c 0
 255 -5 259 -4 263 -1 c 0
 274 6 276 10 276 29 c 2
 276 200 l 2
 276 210 277 210 285 210 c 2
 302 210 l 2
 311 210 312 210 312 200 c 2
 312 85 l 2
 312 67 321 59 337 77 c 2
 345 86 l 2
 350.236 91.8909 358 94 362 91 c 1
 362 78 346 8 335 8 c 0
EndSplineSet
EndChar

StartChar: O
Encoding: 79 79 16
Width: 1000
VWidth: 0
Flags: W
LayerCount: 2
Back
SplineSet
595 -126 m 4xc302
 595 -95 621 -70 652 -70 c 4
 683 -70 709 -95 709 -126 c 4
 709 -158 683 -183 652 -183 c 4
 621 -183 595 -158 595 -126 c 4xc302
595 127 m 4
 595 158 621 183 652 183 c 4
 683 183 709 158 709 127 c 4
 709 95 683 70 652 70 c 4x9302
 621 70 595 95 595 127 c 4
300 280 m 7xa782
 456 280 567 169 567 -19 c 7
 567 -322 234 -555 -16 -555 c 7
 -30 -555 -30 -555 -39 -544 c 4
 -51 -529 -45 -525 -28 -522 c 4
 236 -482 434 -273 434 11 c 7
 434 122 365 236 268 236 c 7x8b2a
 204 236 146 190 123 144 c 4
 108 112 117 101 153 106 c 4
 158 107 162 107 168 107 c 7
 228 107 270 67.0078 270 0 c 7
 270 -57 221 -104 164 -104 c 7
 106 -104 42 -66 42 29 c 7
 42 163 142 280 300 280 c 7xa782
478 504 m 7x8766
 478 444 423 450 423 429 c 7
 423 414 450 407 450 361 c 7x8712
 450 290 388 266 327 266 c 7
 273 266 223 291 223 347 c 7
 223 408 289 419 289 439 c 7
 289 457 268 462 268 494 c 7
 268 552 321 582 380 582 c 7
 432 582 478 553 478 504 c 7x8766
381 557 m 7
 353 557 318 546 318 521 c 7
 318 505 359 460 391 460 c 7
 411 460 447 478 447 505 c 7x8326
 447 533 419 557 381 557 c 7
325 404 m 7
 293 404 257 379 257 345 c 7
 257 317 277 293 331 293 c 7
 365 293 397 302 397 336 c 7x8b52
 397 358 352 404 325 404 c 7
EndSplineSet
EndChar

StartChar: R
Encoding: 82 82 19
Width: 1071
Flags: HMW
HStem: -200 21G<281.5 307> -200 21G<281.5 307> 180 20G<281 306.5> 180 20G<281 306.5>
VStem: 276 36<-200 200>
LayerCount: 2
Fore
SplineSet
779 23 m 2x58
 853 106 l 2
 868 122 875 132 881 132 c 0
 888 132 894 123 907 103 c 2
 961 17 l 2
 972 1 978 -8 986 -8 c 0
 994 -8 1004 2 1023 22 c 2
 1043 44 l 2
 1048 50 1052 53 1055 53 c 0
 1061 53 1071 36 1071 28 c 0
 1071 23 1068 17 1061 9 c 2
 965 -98 l 2
 947 -118 938 -130 930 -130 c 0
 922 -130 915 -119 900 -96 c 2
 852 -21 l 2
 840 -2 833 8 825 8 c 0
 817 8 808 -1 792 -18 c 2
 720 -98 l 2
 702 -118 693 -130 685 -130 c 0
 677 -130 670 -119 655 -96 c 2
 607 -21 l 2
 595 -2 588 8 580 8 c 0
 577 8 574 7 570 4 c 0
 561 -2 557 -7 557 -25 c 2
 557 -200 l 2
 557 -210 556 -210 548 -210 c 2
 531 -210 l 2
 522 -210 521 -210 521 -200 c 2
 521 -90 l 2
 521 -60 512 -57 493 -78 c 2
 475 -98 l 2
 457 -118 448 -130 440 -130 c 0
 432 -130 425 -119 410 -96 c 2
 362 -21 l 2
 350 -2 343 8 335 8 c 0
 327 8 318 -0 302 -18 c 2
 225 -104 l 2
 209 -122 202 -131 195 -131 c 0
 187 -131 181 -121 168 -100 c 2
 115 -18 l 2
 104 -1 98 8 90 8 c 0
 82 8 73 -0 58 -17 c 2
 36 -42 l 2
 29 -49 25 -52 21 -52 c 0
 15 -52 4 -35 4 -28 c 0
 4 -23 7 -18 14 -11 c 2
 119 107 l 2
 133 123 141 131 147 131 c 0
 155 131 161 120 175 98 c 2
 224 20 l 2
 235 3 243 -5 251 -5 c 0
 261 -5 271 4 288 23 c 2
 363 106 l 1
 377 123 385 132 391 132 c 0
 398 132 404 123 417 103 c 2
 471 17 l 2
 482 1 488 -8 496 -8 c 0
 500 -8 505 -5 509 -2 c 0
 518 5 521 10 521 29 c 2
 521 200 l 2
 521 210 522 210 530 210 c 2
 547 210 l 2
 556 210 557 210 557 200 c 2
 557 85 l 2
 557 67 566 59 582 77 c 2
 608 106 l 2
 623 122 630 132 636 132 c 0
 643 132 649 123 662 103 c 2
 716 17 l 2
 727 1 733 -8 741 -8 c 0
 749 -8 760 1 779 23 c 2x58
EndSplineSet
EndChar

StartChar: grave
Encoding: 96 96 20
Width: 613
Flags: W
HStem: 112 20G<420 426.5> 307 20G<5 30.5 176 183 420 426.5>
VStem: 0 36<-1.99558 327>
LayerCount: 2
Back
SplineSet
-27 153 m 0
 -27 212 -28 239 -28 303 c 0
 -28 321 -27 321 -11 321 c 0
 3 321 5 321 5 301 c 0
 5 223 4 189 4 117 c 0
 4 85 4 49 4 22 c 0
 5 4 8 -2 14 -2 c 0
 20 -2 29 7 37 16 c 2
 119 107 l 2
 133 123 141 131 147 131 c 0
 155 131 161 120 175 98 c 2
 224 20 l 2
 235 3 243 -5 251 -5 c 0
 261 -5 271 4 288 23 c 2
 363 106 l 1
 377 123 385 132 391 132 c 0
 398 132 404 123 417 103 c 2
 471 17 l 2
 482 1 488 -8 496 -8 c 0
 504 -8 514 2 533 22 c 2
 553 44 l 2
 558 50 562 53 565 53 c 0
 571 53 581 36 581 28 c 0
 581 23 578 17 571 9 c 2
 475 -98 l 2
 457 -118 448 -130 440 -130 c 0
 432 -130 425 -119 410 -96 c 2
 362 -21 l 2
 350 -2 343 8 335 8 c 0
 327 8 318 -0 302 -18 c 2
 225 -104 l 2
 209 -122 202 -131 195 -131 c 0
 187 -131 181 -121 168 -100 c 2
 115 -18 l 2
 104 -1 98 8 90 8 c 0
 82 8 73 -0 58 -17 c 2
 -1 -83 l 2
 -7 -90 -14 -95 -19 -95 c 0
 -24 -95 -28 -89 -28 -72 c 0
 -28 0 -27 69 -27 153 c 0
EndSplineSet
Fore
SplineSet
0 -88 m 2
 0 317 l 2
 0 327 1 327 9 327 c 2
 26 327 l 2
 35 327 36 327 36 317 c 2
 36 22 l 2
 36 4 40 -2 46 -2 c 0
 52 -2 61 7 69 16 c 2
 151 107 l 2
 165 123 173 131 179 131 c 0
 187 131 193 120 207 98 c 2
 256 20 l 2
 267 3 275 -5 283 -5 c 0
 293 -5 303 4 320 23 c 2
 395 106 l 1
 409 123 417 132 423 132 c 0
 430 132 436 123 449 103 c 2
 503 17 l 2
 514 1 520 -8 528 -8 c 0
 536 -8 546 2 565 22 c 2
 585 44 l 2
 590 50 594 53 597 53 c 0
 603 53 613 36 613 28 c 0
 613 23 610 17 603 9 c 2
 507 -98 l 2
 489 -118 480 -130 472 -130 c 0
 464 -130 457 -119 442 -96 c 2
 394 -21 l 2
 382 -2 375 8 367 8 c 0
 359 8 350 0 334 -18 c 2
 257 -104 l 2
 241 -122 234 -131 227 -131 c 0
 219 -131 213 -121 200 -100 c 2
 147 -18 l 2
 136 -1 130 8 122 8 c 0
 114 8 105 0 90 -17 c 2
 18 -97 l 2
 9 -107 0 -104 0 -88 c 2
EndSplineSet
EndChar

StartChar: a
Encoding: 97 97 21
Width: 858
Flags: W
HStem: 111 216G<5 30.5 176 183 420 426.5 665 671.5> 112 20G<420 426.5 665 671.5>
VStem: 0 36<-1.99558 327>
LayerCount: 2
Back
SplineSet
37 16 m 2
 29 7 20 -2 14 -2 c 0
 8 -2 5 4 4 22 c 0
 4 49 4 85 4 117 c 0
 4 189 5 223 5 301 c 0
 5 321 3 321 -11 321 c 0
 -27 321 -28 321 -28 303 c 0
 -28 239 -27 212 -27 153 c 0
 -27 69 -28 0 -28 -72 c 0
 -28 -89 -24 -95 -19 -95 c 0
 -14 -95 -7 -90 -1 -83 c 2
 58 -17 l 2
 74 1 82 8 90 8 c 0
 98 8 104 -1 115 -18 c 2
 168 -100 l 2
 181 -121 187 -131 195 -131 c 0
 202 -131 209 -122 225 -104 c 2
 302 -18 l 2
 318 -0 327 8 335 8 c 0
 343 8 350 -2 362 -21 c 2
 410 -96 l 2
 425 -119 432 -130 440 -130 c 0
 448 -130 457 -118 475 -98 c 2
 547 -18 l 2
 563 -0 572 8 580 8 c 0
 588 8 595 -2 607 -21 c 2
 655 -96 l 2
 670 -119 677 -130 685 -130 c 0
 693 -130 702 -118 720 -98 c 2
 816 9 l 2
 823 17 826 23 826 28 c 0
 826 36 816 53 810 53 c 0
 807 53 803 50 798 44 c 2
 778 22 l 2
 759 2 749 -8 741 -8 c 0
 733 -8 727 1 716 17 c 2
 662 103 l 2
 649 123 643 132 636 132 c 0
 630 132 623 122 608 106 c 2
 534 23 l 2
 515 2 504 -8 496 -8 c 0
 488 -8 482 1 471 17 c 2
 417 103 l 2
 404 123 398 132 391 132 c 0
 385 132 377 123 363 106 c 1
 288 23 l 2
 271 4 261 -5 251 -5 c 0
 243 -5 235 3 224 20 c 2
 175 98 l 2
 161 120 155 131 147 131 c 0
 141 131 133 123 119 107 c 2
 37 16 l 2
EndSplineSet
Fore
SplineSet
151 107 m 2xa0
 165 123 173 131 179 131 c 0
 187 131 193 120 207 98 c 2
 256 20 l 2
 267 3 275 -5 283 -5 c 0
 293 -5 303 4 320 23 c 2
 395 106 l 2
 409 123 417 132 423 132 c 0
 430 132 436 123 449 103 c 2
 503 17 l 2
 514 1 520 -8 528 -8 c 0
 536 -8 547 2 566 23 c 2
 640 106 l 2
 655 122 662 132 668 132 c 0x60
 675 132 681 123 694 103 c 2
 748 17 l 2
 759 1 765 -8 773 -8 c 0
 781 -8 791 2 810 22 c 2
 830 44 l 2
 835 50 839 53 842 53 c 0
 848 53 858 36 858 28 c 0
 858 23 855 17 848 9 c 2
 752 -98 l 2
 734 -118 725 -130 717 -130 c 0
 709 -130 702 -119 687 -96 c 2
 639 -21 l 2
 627 -2 620 8 612 8 c 0
 604 8 595 0 579 -18 c 2
 507 -98 l 2
 489 -118 480 -130 472 -130 c 0
 464 -130 457 -119 442 -96 c 2
 394 -21 l 2
 382 -2 375 8 367 8 c 0
 359 8 350 0 334 -18 c 2
 257 -104 l 2
 241 -122 234 -131 227 -131 c 0
 219 -131 213 -121 200 -100 c 2
 147 -18 l 2
 136 -1 130 8 122 8 c 0
 114 8 105 0 90 -17 c 2
 18 -97 l 2
 9 -107 0 -104 0 -88 c 2
 0 317 l 2
 0 327 1 327 9 327 c 2
 26 327 l 2
 35 327 36 327 36 317 c 2
 36 22 l 2
 36 4 40 -2 46 -2 c 0
 52 -2 61 7 69 16 c 2
 151 107 l 2xa0
EndSplineSet
EndChar

StartChar: b
Encoding: 98 98 22
Width: 1103
Flags: HW
VStem: 0 36<-1.99558 22 317 327>
LayerCount: 2
Back
SplineSet
58 -17 m 2
 -1 -83 l 2
 -7 -90 -14 -95 -19 -95 c 0
 -24 -95 -28 -89 -28 -72 c 0
 -28 0 -27 69 -27 153 c 0
 -27 212 -28 239 -28 303 c 0
 -28 321 -27 321 -11 321 c 0
 3 321 5 321 5 301 c 0
 5 223 4 189 4 117 c 0
 4 85 4 49 4 22 c 0
 5 4 8 -2 14 -2 c 0
 20 -2 28 6 37 16 c 2
 119 107 l 2
 133 123 141 131 147 131 c 0
 155 131 161 120 175 98 c 2
 224 20 l 2
 235 3 243 -5 251 -5 c 0
 261 -5 271 4 288 23 c 2
 363 106 l 2
 377 123 385 132 391 132 c 0
 398 132 404 123 417 103 c 2
 471 17 l 2
 482 1 488 -8 496 -8 c 0
 504 -8 515 2 534 23 c 2
 608 106 l 2
 623 122 630 132 636 132 c 0
 643 132 649 123 662 103 c 2
 716 17 l 2
 727 1 733 -8 741 -8 c 0
 749 -8 760 1 779 23 c 2
 853 106 l 2
 868 122 875 132 881 132 c 0
 888 132 894 123 907 103 c 2
 961 17 l 2
 972 1 978 -8 986 -8 c 0
 994 -8 1004 2 1023 22 c 2
 1043 44 l 2
 1048 50 1052 53 1055 53 c 0
 1061 53 1071 36 1071 28 c 0
 1071 23 1068 17 1061 9 c 2
 965 -98 l 2
 947 -118 938 -130 930 -130 c 0
 922 -130 915 -119 900 -96 c 2
 852 -21 l 2
 840 -2 833 8 825 8 c 0
 817 8 808 -1 792 -18 c 2
 720 -98 l 2
 702 -118 693 -130 685 -130 c 0
 677 -130 670 -119 655 -96 c 2
 607 -21 l 2
 595 -2 588 8 580 8 c 0
 572 8 563 -0 547 -18 c 2
 475 -98 l 2
 457 -118 448 -130 440 -130 c 0
 432 -130 425 -119 410 -96 c 2
 362 -21 l 2
 350 -2 343 8 335 8 c 0
 327 8 318 -0 302 -18 c 2
 225 -104 l 2
 209 -122 202 -131 195 -131 c 0
 187 -131 181 -121 168 -100 c 2
 115 -18 l 2
 104 -1 98 8 90 8 c 0
 82 8 73 -0 58 -17 c 2
EndSplineSet
Fore
SplineSet
69 16 m 2
 151 107 l 2
 165 123 173 131 179 131 c 0
 187 131 193 120 207 98 c 2
 256 20 l 2
 267 3 275 -5 283 -5 c 0
 293 -5 303 4 320 23 c 2
 395 106 l 2
 409 123 417 132 423 132 c 0
 430 132 436 123 449 103 c 2
 503 17 l 2
 514 1 520 -8 528 -8 c 0
 536 -8 547 2 566 23 c 2
 640 106 l 2
 655 122 662 132 668 132 c 0
 675 132 681 123 694 103 c 2
 748 17 l 2
 759 1 765 -8 773 -8 c 0
 781 -8 792 1 811 23 c 2
 885 106 l 2
 900 122 907 132 913 132 c 0
 920 132 926 123 939 103 c 2
 993 17 l 2
 1004 1 1010 -8 1018 -8 c 0
 1026 -8 1036 2 1055 22 c 2
 1075 44 l 2
 1080 50 1084 53 1087 53 c 0
 1093 53 1103 36 1103 28 c 0
 1103 23 1100 17 1093 9 c 2
 997 -98 l 2
 979 -118 970 -130 962 -130 c 0
 954 -130 947 -119 932 -96 c 2
 884 -21 l 2
 872 -2 865 8 857 8 c 0
 849 8 840 -1 824 -18 c 2
 752 -98 l 2
 734 -118 725 -130 717 -130 c 0
 709 -130 702 -119 687 -96 c 2
 639 -21 l 2
 627 -2 620 8 612 8 c 0
 604 8 595 0 579 -18 c 2
 507 -98 l 2
 489 -118 480 -130 472 -130 c 0
 464 -130 457 -119 442 -96 c 2
 394 -21 l 2
 382 -2 375 8 367 8 c 0
 359 8 350 0 334 -18 c 2
 257 -104 l 2
 241 -122 234 -131 227 -131 c 0
 219 -131 213 -121 200 -100 c 2
 147 -18 l 2
 136 -1 130 8 122 8 c 0
 114 8 105 0 90 -17 c 2
 18 -97 l 2
 9 -107 0 -104 0 -88 c 2
 0 317 l 2
 0 327 1 327 9 327 c 2
 26 327 l 2
 35 327 36 327 36 317 c 2
 36 22 l 2
 36 4 40 -2 46 -2 c 0
 52 -2 61 7 69 16 c 2
EndSplineSet
EndChar

StartChar: c
Encoding: 99 99 23
Width: 1348
Flags: HW
VStem: 0 36<-1.99558 22 317 327>
LayerCount: 2
Back
SplineSet
58 -17 m 2
 -1 -83 l 2
 -7 -90 -14 -95 -19 -95 c 0
 -24 -95 -28 -89 -28 -72 c 0
 -28 0 -27 69 -27 153 c 0
 -27 212 -28 239 -28 303 c 0
 -28 321 -27 321 -11 321 c 0
 3 321 5 321 5 301 c 0
 5 223 4 189 4 117 c 0
 4 85 4 49 4 22 c 0
 5 4 8 -2 14 -2 c 0
 20 -2 29 7 37 16 c 2
 119 107 l 2
 133 123 141 131 147 131 c 0
 155 131 161 120 175 98 c 2
 224 20 l 2
 235 3 243 -5 251 -5 c 0
 261 -5 271 4 288 23 c 2
 363 106 l 2
 377 123 385 132 391 132 c 0
 398 132 404 123 417 103 c 2
 471 17 l 2
 482 1 488 -8 496 -8 c 0
 504 -8 515 2 534 23 c 2
 608 106 l 2
 623 122 630 132 636 132 c 0
 643 132 649 123 662 103 c 2
 716 17 l 2
 727 1 733 -8 741 -8 c 0
 749 -8 760 1 779 23 c 2
 853 106 l 2
 868 122 875 132 881 132 c 0
 888 132 894 123 907 103 c 2
 961 17 l 2
 972 1 978 -8 986 -8 c 0
 994 -8 1005 1 1023 22 c 2
 1098 106 l 2
 1113 122 1120 132 1126 132 c 0
 1133 132 1139 123 1152 103 c 2
 1206 17 l 2
 1217 1 1223 -8 1231 -8 c 0
 1239 -8 1249 2 1268 22 c 2
 1288 44 l 2
 1293 50 1297 53 1300 53 c 0
 1306 53 1316 36 1316 28 c 0
 1316 23 1313 17 1306 9 c 2
 1210 -98 l 2
 1192 -118 1183 -130 1175 -130 c 0
 1167 -130 1160 -119 1145 -96 c 2
 1097 -21 l 2
 1085 -2 1078 8 1070 8 c 0
 1062 8 1052 -1 1037 -18 c 2
 965 -98 l 2
 947 -118 938 -130 930 -130 c 0
 922 -130 915 -119 900 -96 c 2
 852 -21 l 2
 840 -2 833 8 825 8 c 0
 817 8 808 -1 792 -18 c 2
 720 -98 l 2
 702 -118 693 -130 685 -130 c 0
 677 -130 670 -119 655 -96 c 2
 607 -21 l 2
 595 -2 588 8 580 8 c 0
 572 8 563 -0 547 -18 c 2
 475 -98 l 2
 457 -118 448 -130 440 -130 c 0
 432 -130 425 -119 410 -96 c 2
 362 -21 l 2
 350 -2 343 8 335 8 c 0
 327 8 318 -0 302 -18 c 2
 225 -104 l 2
 209 -122 202 -131 195 -131 c 0
 187 -131 181 -121 168 -100 c 2
 115 -18 l 2
 104 -1 98 8 90 8 c 0
 82 8 73 -0 58 -17 c 2
EndSplineSet
Fore
SplineSet
69 16 m 2
 151 107 l 2
 165 123 173 131 179 131 c 0
 187 131 193 120 207 98 c 2
 256 20 l 2
 267 3 275 -5 283 -5 c 0
 293 -5 303 4 320 23 c 2
 395 106 l 2
 409 123 417 132 423 132 c 0
 430 132 436 123 449 103 c 2
 503 17 l 2
 514 1 520 -8 528 -8 c 0
 536 -8 547 2 566 23 c 2
 640 106 l 2
 655 122 662 132 668 132 c 0
 675 132 681 123 694 103 c 2
 748 17 l 2
 759 1 765 -8 773 -8 c 0
 781 -8 792 1 811 23 c 2
 885 106 l 2
 900 122 907 132 913 132 c 0
 920 132 926 123 939 103 c 2
 993 17 l 2
 1004 1 1010 -8 1018 -8 c 0
 1026 -8 1037 1 1055 22 c 2
 1130 106 l 2
 1145 122 1152 132 1158 132 c 0
 1165 132 1171 123 1184 103 c 2
 1238 17 l 2
 1249 1 1255 -8 1263 -8 c 0
 1271 -8 1281 2 1300 22 c 2
 1320 44 l 2
 1325 50 1329 53 1332 53 c 0
 1338 53 1348 36 1348 28 c 0
 1348 23 1345 17 1338 9 c 2
 1242 -98 l 2
 1224 -118 1215 -130 1207 -130 c 0
 1199 -130 1192 -119 1177 -96 c 2
 1129 -21 l 2
 1117 -2 1110 8 1102 8 c 0
 1094 8 1084 -1 1069 -18 c 2
 997 -98 l 2
 979 -118 970 -130 962 -130 c 0
 954 -130 947 -119 932 -96 c 2
 884 -21 l 2
 872 -2 865 8 857 8 c 0
 849 8 840 -1 824 -18 c 2
 752 -98 l 2
 734 -118 725 -130 717 -130 c 0
 709 -130 702 -119 687 -96 c 2
 639 -21 l 2
 627 -2 620 8 612 8 c 0
 604 8 595 0 579 -18 c 2
 507 -98 l 2
 489 -118 480 -130 472 -130 c 0
 464 -130 457 -119 442 -96 c 2
 394 -21 l 2
 382 -2 375 8 367 8 c 0
 359 8 350 0 334 -18 c 2
 257 -104 l 2
 241 -122 234 -131 227 -131 c 0
 219 -131 213 -121 200 -100 c 2
 147 -18 l 2
 136 -1 130 8 122 8 c 0
 114 8 105 0 90 -17 c 2
 18 -97 l 2
 9 -107 0 -104 0 -88 c 2
 0 317 l 2
 0 327 1 327 9 327 c 2
 26 327 l 2
 35 327 36 327 36 317 c 2
 36 22 l 2
 36 4 40 -2 46 -2 c 0
 52 -2 61 7 69 16 c 2
EndSplineSet
EndChar

StartChar: d
Encoding: 100 100 24
Width: 0
VWidth: 0
Flags: W
LayerCount: 2
Back
SplineSet
23 200 m 3xf980
 43 200 43 197 44 187 c 16
 46 2 l 0
 46 2 44 -110 44 -181 c 27
 44 -192 40 -200 23 -200 c 3
 8 -200 0 -194 0 -181 c 3
 2 76 l 0
 1 180 l 0
 1 190 6 200 23 200 c 3xf980
640 200 m 3
 658 200 664 194 663 183 c 0
 661 76 l 0
 664 -186 l 3
 664 -200 656 -200 641 -200 c 3
 622 -200 619 -196 619 -181 c 0
 618 2 l 0
 619 187 l 0
 619 201 632 200 640 200 c 3
143 -74 m 3
 134 -74 131 -85 131 -98 c 0
 131 -100 131 -102 131 -104 c 0
 131 -114 130 -157 130 -191 c 27
 130 -203 119 -211 109 -211 c 3
 94 -211 86 -206 86 -196 c 27xfd80
 86 -88 89 -28 89 80 c 27xfb80
 89 124 87 149 87 193 c 27
 87 204 92 211 109 211 c 0
 118 211 130 207 130 197 c 27
 130 157 130 140 131 94 c 0xfd80
 131 81 137 74 143 74 c 3
 149 74 152 74 168 87 c 0
 205 117 260 129 312 129 c 0
 354 129 444 122 499 85 c 0
 512 75 512 75 520 75 c 0
 528 75 531 83 532 98 c 0
 533 108 533 118 533 129 c 0
 533 149 532 172 532 197 c 11
 532 207 545 211 553 211 c 3
 571 211 576 204 576 193 c 27
 576 113 573 68 573 -11 c 27
 573 -83 577 -196 577 -196 c 3
 577 -210 569 -211 554 -211 c 3
 543 -211 532 -203 532 -191 c 19
 532 -167 532 -143 532 -124 c 0
 532 -114 532 -105 532 -98 c 0
 531 -76 527 -71 518 -71 c 3
 511 -71 510 -72 493 -84 c 0
 451 -116 387 -131 332 -131 c 0
 275 -131 209 -116 167 -86 c 0
 151 -75 152 -74 143 -74 c 3
296 101 m 0
 275 101 239 86 239 53 c 0xfb80
 239 27 261 -23 291 -66 c 1
 307 -87 326 -95 350 -95 c 0
 381 -95 426 -80 426 -42 c 0
 426 -18 393 37 370 69 c 0
 354 91 327 101 296 101 c 0
EndSplineSet
EndChar

StartChar: e
Encoding: 101 101 25
Width: 512
VWidth: 0
Flags: HW
LayerCount: 2
Fore
SplineSet
1 153 m 27
 1 211.501 0 239 0 303 c 3
 0 320 1 320 17 320 c 3
 31 320 33 321 33 301 c 3
 33 222 32 188.151 32 116 c 27
 32 46.5791 33 -9 33 -62 c 3
 33 -77 30 -80 17 -80 c 3
 1 -80 0 -80 0 -63 c 3
 0 8 1 68.7588 1 153 c 27
EndSplineSet
EndChar

StartChar: f
Encoding: 102 102 26
Width: 166
VWidth: 0
Flags: W
VStem: 0 33<68.6739 296.896>
LayerCount: 2
Back
SplineSet
90 -17 m 6
 31 -83 l 6
 18.8057 -97.2266 0 -103.86 0 -72 c 1030
EndSplineSet
Fore
SplineSet
166 -54.6748 m 1
 139 -98 l 2
 132 -108 126 -116 120 -116 c 0
 109 -116 98 -97 90 -87 c 0
 31 -1 0 92 0 185 c 0
 0 285 37 386 108 479 c 0
 116 488 121 493 126 493 c 0
 133 493 137 484 137 477 c 0
 137 469 132 461 126 453 c 0
 64 366 33 278 33 186 c 0
 33 116 47 44 92 -29 c 0
 113 -63 126 -52 142 -27 c 2
 166 11.1172 l 1
 166 -54.6748 l 1
EndSplineSet
EndChar

StartChar: uni0080
Encoding: 128 128 27
Width: 638
Flags: HW
HStem: -200 21G<338.5 364> -200 21G<338.5 364> 180 20G<338 363.5> 180 20G<338 363.5>
VStem: 333 36<-200 200>
LayerCount: 2
Back
SplineSet
115 -17 m 6
 112 -20 l 6
 52 -84 31 -154 31 -235 c 4
 31 -290 47 -360 80 -403 c 4
 84 -408 87 -415 87 -420 c 4
 87 -430 85 -440 77 -440 c 4
 70 -440 66 -435 60 -427 c 4
 19 -371 0 -297 0 -234 c 4
 0 -122 39 -46 104 27 c 6
 176 107 l 2
 190 123 198 131 204 131 c 0
 212 131 218 120 232 98 c 2
 281 20 l 2
 292 3 300 -5 308 -5 c 0
 327 -5 334 24 334 55 c 0
 334 100 333 128 333 183 c 0
 333 202 337 200 355 200 c 0
 366 200 368 199 368 181 c 2
 368 89 l 2
 368 74 370 64 375 64 c 0
 380 64 387 69 395 78 c 2
 420 106 l 2
 434 123 442 132 448 132 c 0
 455 132 461 123 474 103 c 2
 528 17 l 2
 539 1 545 -8 553 -8 c 0
 561 -8 571 2 590 22 c 2
 610 44 l 2
 615 50 619 53 622 53 c 0
 628 53 638 36 638 28 c 0
 638 23 635 17 628 9 c 2
 532 -98 l 2
 514 -118 505 -130 497 -130 c 0
 489 -130 482 -119 467 -96 c 2
 419 -21 l 2
 407 -2 400 8 392 8 c 0
 374 8 367 -18 367 -47 c 0
 367 -97 368 -140 368 -182 c 0
 368 -197 365 -200 352 -200 c 0
 336 -200 333 -200 333 -183 c 2
 333 -94 l 2
 334 -77 330 -66 323 -66 c 0
 318 -66 312 -70 305 -78 c 2
 282 -104 l 2
 266 -122 259 -131 252 -131 c 0
 244 -131 238 -121 225 -100 c 2
 172 -18 l 2
 161 -1 155 8 147 8 c 0
 139 8 131 0 115 -17 c 6
EndSplineSet
Fore
SplineSet
104 27 m 2
 176 107 l 2
 190 123 198 131 204 131 c 0
 212 131 218 120 232 98 c 2
 281 20 l 2
 292 3 300 -5 308 -5 c 0
 312 -5 316 -4 320 -1 c 0
 331 6 333 10 333 29 c 2
 333 200 l 2
 333 210 334 210 342 210 c 2
 359 210 l 2
 368 210 369 210 369 200 c 2
 369 85 l 2
 369 67 378 59 394 77 c 2
 420 106 l 2
 434 123 442 132 448 132 c 0
 455 132 461 123 474 103 c 2
 528 17 l 2
 539 1 545 -8 553 -8 c 0
 561 -8 571 2 590 22 c 2
 610 44 l 2
 615 50 619 53 622 53 c 0
 628 53 638 36 638 28 c 0
 638 23 635 17 628 9 c 2
 532 -98 l 2
 514 -118 505 -130 497 -130 c 0
 489 -130 482 -119 467 -96 c 2
 419 -21 l 2
 407 -2 400 8 392 8 c 0
 389 8 386 7 383 5 c 0
 373 -2 369 -6 369 -25 c 2
 369 -200 l 2
 369 -210 368 -210 360 -210 c 2
 343 -210 l 2
 334 -210 333 -210 333 -200 c 2
 333 -90 l 2
 333 -60 324 -57 305 -78 c 2
 282 -104 l 2
 266 -122 259 -131 252 -131 c 0
 244 -131 238 -121 225 -100 c 2
 172 -18 l 2
 161 -1 155 8 147 8 c 0
 139 8 129 0 115 -16 c 0
 56 -85 36 -152 36 -235 c 0
 36 -290 51 -353 86 -397 c 0
 89 -401 90 -403 90 -406 c 0
 90 -416 83 -442 76 -442 c 0
 72 -442 66 -435 60 -427 c 0
 19 -371 0 -297 0 -234 c 0
 0 -122 39 -46 104 27 c 2
EndSplineSet
EndChar

StartChar: uni0081
Encoding: 129 129 28
Width: 883
Flags: HW
HStem: -210 21G<583.5 609> 112 20G<201 208 445 451.5 583 608.5 690 696.5> 112 20G<445 451.5 690 696.5> 190 20G<583 608.5>
VStem: 578 36<-210 -71.2559 -5.09409 6.93923 73.2497 210>
LayerCount: 2
Back
SplineSet
360 -17 m 2
 375 0 384 8 392 8 c 0
 400 8 406 -1 417 -18 c 2
 470 -100 l 2
 483 -121 489 -131 497 -131 c 0
 504 -131 511 -122 527 -104 c 2
 550 -78 l 2
 557 -70 563 -66 568 -66 c 0
 575 -66 579 -77 578 -94 c 2
 578 -183 l 2
 578 -200 581 -200 597 -200 c 0
 610 -200 613 -197 613 -182 c 0
 613 -140 612 -97 612 -47 c 0
 612 -18 619 8 637 8 c 0
 645 8 652 -2 664 -21 c 2
 712 -96 l 2
 727 -119 734 -130 742 -130 c 0
 750 -130 759 -118 777 -98 c 2
 873 9 l 2
 880 17 883 23 883 28 c 0
 883 36 873 53 867 53 c 0
 864 53 860 50 855 44 c 2
 835 22 l 2
 816 2 806 -8 798 -8 c 0
 790 -8 784 1 773 17 c 2
 719 103 l 2
 706 123 700 132 693 132 c 0
 687 132 679 123 665 106 c 2
 640 78 l 2
 632 69 625 64 620 64 c 0
 615 64 613 74 613 89 c 2
 613 181 l 2
 613 199 611 200 600 200 c 0
 582 200 578 202 578 183 c 0
 578 128 579 100 579 55 c 0
 579 24 572 -5 553 -5 c 0
 545 -5 537 3 526 20 c 2
 477 98 l 2
 463 120 457 131 449 131 c 0
 443 131 435 123 421 107 c 2
 345 23 l 2
 328 4 318 -5 308 -5 c 0
 300 -5 292 3 281 20 c 2
 232 98 l 2
 218 120 212 131 204 131 c 0
 198 131 191 123 176 107 c 2
 104 27 l 2
 39 -46 0 -122 0 -234 c 0
 0 -297 19 -371 60 -427 c 0
 66 -435 70 -440 77 -440 c 0
 85 -440 87 -430 87 -420 c 0
 87 -415 84 -408 80 -403 c 0
 47 -360 31 -290 31 -235 c 0
 31 -154 52 -84 112 -20 c 2
 115 -16 l 2
 131 2 139 8 147 8 c 0
 155 8 161 -1 172 -18 c 2
 225 -100 l 2
 238 -121 244 -131 252 -131 c 0
 259 -131 266 -122 282 -104 c 2
 360 -17 l 2
EndSplineSet
Fore
SplineSet
104 27 m 2
 176 107 l 2
 190 123 198 131 204 131 c 0
 212 131 218 120 232 98 c 2
 281 20 l 2
 292 3 300 -5 308 -5 c 0
 318 -5 328 4 345 23 c 2
 420 106 l 1
 434 123 442 132 448 132 c 0
 455 132 461 123 474 103 c 2
 528 17 l 2
 539 1 545 -7 553 -7 c 0
 557 -7 561 -5 565 -2 c 0
 576 7 578 10 578 29 c 2
 578 200 l 2
 578 210 579 210 587 210 c 2
 604 210 l 2
 613 210 614 210 614 200 c 2
 614 85 l 2
 614 67 623 59 639 77 c 2
 665 106 l 2xd8
 680 122 687 132 693 132 c 0
 700 132 706 123 719 103 c 2
 773 17 l 2
 784 1 790 -8 798 -8 c 0
 806 -8 816 2 835 22 c 2
 855 44 l 2
 860 50 864 53 867 53 c 0
 873 53 883 36 883 28 c 0
 883 23 880 17 873 9 c 2
 777 -98 l 2
 759 -118 750 -130 742 -130 c 0
 734 -130 727 -119 712 -96 c 2
 664 -21 l 2
 652 -2 645 8 637 8 c 0
 634 8 631 7 627 4 c 0
 618 -2 614 -7 614 -25 c 2
 614 -200 l 2
 614 -210 613 -210 605 -210 c 2
 588 -210 l 2
 579 -210 578 -210 578 -200 c 2
 578 -90 l 2
 578 -60 569 -57 550 -78 c 2
 532 -98 l 2
 514 -118 505 -130 497 -130 c 0
 489 -130 482 -119 467 -96 c 2
 419 -21 l 2
 407 -2 400 8 392 8 c 0
 384 8 375 0 359 -18 c 2
 282 -104 l 2
 266 -122 259 -131 252 -131 c 0
 244 -131 238 -121 225 -100 c 2
 172 -18 l 2
 161 -1 155 8 147 8 c 0
 139 8 129 0 115 -16 c 0
 56 -85 36 -152 36 -235 c 0
 36 -290 51 -353 86 -397 c 0
 89 -401 90 -403 90 -406 c 0
 90 -416 83 -442 76 -442 c 0
 72 -442 66 -435 60 -427 c 0
 19 -371 0 -297 0 -234 c 0
 0 -122 39 -46 104 27 c 2
EndSplineSet
EndChar

StartChar: uni0082
Encoding: 130 130 29
Width: 1128
Flags: HW
HStem: -210 21G<828.5 854> 111 20G<201 208 445 451.5 691 698 828 853.5 935 941.5> 112 20G<445 451.5 935 941.5> 190 20G<828 853.5>
VStem: 823 36<-210 -71.2559 -3.73306 7.05078 73.2633 210>
LayerCount: 2
Back
SplineSet
360 -17 m 2
 375 0 384 8 392 8 c 0
 400 8 406 -1 417 -18 c 2
 470 -100 l 2
 483 -121 489 -131 497 -131 c 0
 504 -131 511 -122 527 -104 c 2
 604 -18 l 2
 619 -2 629 8 637 8 c 0
 645 8 651 -1 662 -18 c 2
 715 -100 l 2
 728 -121 734 -131 742 -131 c 0
 749 -131 756 -122 772 -104 c 2
 795 -78 l 2
 802 -70 808 -66 813 -66 c 0
 820 -66 824 -77 823 -94 c 2
 823 -183 l 2
 823 -200 826 -200 842 -200 c 0
 855 -200 858 -197 858 -182 c 0
 858 -140 857 -97 857 -47 c 0
 857 -18 864 8 882 8 c 0
 890 8 897 -2 909 -21 c 2
 957 -96 l 2
 972 -119 979 -130 987 -130 c 0
 995 -130 1004 -118 1022 -98 c 2
 1118 9 l 2
 1125 17 1128 23 1128 28 c 0
 1128 36 1118 53 1112 53 c 0
 1109 53 1105 50 1100 44 c 2
 1080 22 l 2
 1061 2 1051 -8 1043 -8 c 0
 1035 -8 1029 1 1018 17 c 2
 964 103 l 2
 951 123 945 132 938 132 c 0
 932 132 924 123 910 106 c 2
 885 78 l 2
 877 69 870 64 865 64 c 0
 860 64 858 74 858 89 c 2
 858 181 l 2
 858 199 856 200 845 200 c 0
 827 200 823 202 823 183 c 0
 823 128 824 100 824 55 c 0
 824 24 817 -5 798 -5 c 0
 790 -5 782 3 771 20 c 2
 722 98 l 2
 708 120 702 131 694 131 c 0
 688 131 680 123 666 107 c 2
 590 23 l 2
 573 4 563 -5 553 -5 c 0
 545 -5 537 3 526 20 c 2
 477 98 l 2
 463 120 457 131 449 131 c 0
 443 131 435 123 421 107 c 2
 345 23 l 2
 328 4 318 -5 308 -5 c 0
 300 -5 292 3 281 20 c 2
 232 98 l 2
 218 120 212 131 204 131 c 0
 198 131 191 123 176 107 c 2
 104 27 l 2
 39 -46 0 -122 0 -234 c 0
 0 -297 19 -371 60 -427 c 0
 66 -435 70 -440 77 -440 c 0
 85 -440 87 -430 87 -420 c 0
 87 -415 84 -408 80 -403 c 0
 47 -360 31 -290 31 -235 c 0
 31 -154 52 -84 112 -20 c 2
 115 -16 l 2
 131 2 139 8 147 8 c 0
 155 8 161 -1 172 -18 c 2
 225 -100 l 2
 238 -121 244 -131 252 -131 c 0
 259 -131 266 -122 282 -104 c 2
 360 -17 l 2
EndSplineSet
Fore
SplineSet
104 27 m 2
 176 107 l 2
 190 123 198 131 204 131 c 0xd8
 212 131 218 120 232 98 c 2
 281 20 l 2
 292 3 300 -5 308 -5 c 0
 318 -5 328 4 345 23 c 2
 420 106 l 1
 434 123 442 132 448 132 c 0xb8
 455 132 461 123 474 103 c 2
 528 17 l 2
 539 1 545 -8 553 -8 c 0
 561 -8 570 1 589 22 c 2
 666 107 l 2
 680 123 688 131 694 131 c 0xd8
 702 131 708 120 722 98 c 2
 771 20 l 2
 782 3 790 -5 798 -5 c 0
 802 -5 806 -4 810 -1 c 0
 821 6 823 10 823 29 c 2
 823 200 l 2
 823 210 824 210 832 210 c 2
 849 210 l 2
 858 210 859 210 859 200 c 2
 859 85 l 2
 859 67 868 59 884 77 c 2
 910 106 l 2
 924 123 932 132 938 132 c 0
 945 132 951 123 964 103 c 2
 1018 17 l 2
 1029 1 1035 -8 1043 -8 c 0
 1051 -8 1061 2 1080 22 c 2
 1100 44 l 2
 1105 50 1109 53 1112 53 c 0
 1118 53 1128 36 1128 28 c 0
 1128 23 1125 17 1118 9 c 2
 1022 -98 l 2
 1004 -118 995 -130 987 -130 c 0
 979 -130 972 -119 957 -96 c 2
 909 -21 l 2
 897 -2 890 8 882 8 c 0
 879 8 876 7 873 5 c 0
 863 -2 859 -6 859 -25 c 2
 859 -200 l 2
 859 -210 858 -210 850 -210 c 2
 833 -210 l 2
 824 -210 823 -210 823 -200 c 2
 823 -90 l 2
 823 -60 814 -57 795 -78 c 2
 772 -104 l 2
 756 -122 749 -131 742 -131 c 0
 734 -131 728 -121 715 -100 c 2
 662 -18 l 2
 651 -1 645 8 637 8 c 0
 629 8 619 -1 605 -17 c 2
 532 -98 l 2
 514 -118 505 -130 497 -130 c 0
 489 -130 482 -119 467 -96 c 2
 419 -21 l 2
 407 -2 400 8 392 8 c 0
 384 8 375 0 359 -18 c 2
 282 -104 l 2
 266 -122 259 -131 252 -131 c 0
 244 -131 238 -121 225 -100 c 2
 172 -18 l 2
 161 -1 155 8 147 8 c 0
 139 8 129 0 115 -16 c 0
 56 -85 36 -152 36 -235 c 0
 36 -290 51 -353 86 -397 c 0
 89 -401 90 -403 90 -406 c 0
 90 -416 83 -442 76 -442 c 0
 72 -442 66 -435 60 -427 c 0
 19 -371 0 -297 0 -234 c 0
 0 -122 39 -46 104 27 c 2
EndSplineSet
EndChar

StartChar: uni0083
Encoding: 131 131 30
Width: 1373
Flags: HW
HStem: -200 21G<338.5 364> -200 21G<338.5 364> 180 20G<338 363.5> 180 20G<338 363.5>
VStem: 333 36<-200 200>
LayerCount: 2
Back
SplineSet
360 -17 m 2
 375 0 384 8 392 8 c 0
 400 8 406 -1 417 -18 c 2
 470 -100 l 2
 483 -121 489 -131 497 -131 c 0
 504 -131 511 -122 527 -104 c 2
 604 -18 l 2
 619 -1 629 8 637 8 c 0
 645 8 651 -1 662 -18 c 2
 715 -100 l 2
 728 -121 734 -131 742 -131 c 0
 749 -131 756 -122 772 -104 c 2
 849 -18 l 2
 864 -2 874 8 882 8 c 0
 890 8 896 -1 907 -18 c 2
 960 -100 l 2
 973 -121 979 -131 987 -131 c 0
 994 -131 1001 -122 1017 -104 c 2
 1040 -78 l 2
 1047 -70 1053 -66 1058 -66 c 0
 1065 -66 1069 -77 1068 -94 c 2
 1068 -183 l 2
 1068 -200 1071 -200 1087 -200 c 0
 1100 -200 1103 -197 1103 -182 c 0
 1103 -140 1102 -97 1102 -47 c 0
 1102 -18 1109 8 1127 8 c 0
 1135 8 1142 -2 1154 -21 c 2
 1202 -96 l 2
 1217 -119 1224 -130 1232 -130 c 0
 1240 -130 1249 -118 1267 -98 c 2
 1363 9 l 2
 1370 17 1373 23 1373 28 c 0
 1373 36 1363 53 1357 53 c 0
 1354 53 1350 50 1345 44 c 2
 1325 22 l 2
 1306 2 1296 -8 1288 -8 c 0
 1280 -8 1274 1 1263 17 c 2
 1209 103 l 2
 1196 123 1190 132 1183 132 c 0
 1177 132 1169 123 1155 106 c 2
 1130 78 l 2
 1122 69 1115 64 1110 64 c 0
 1105 64 1103 74 1103 89 c 2
 1103 181 l 2
 1103 199 1101 200 1090 200 c 0
 1072 200 1068 202 1068 183 c 0
 1068 128 1069 100 1069 55 c 0
 1069 24 1062 -5 1043 -5 c 0
 1035 -5 1027 3 1016 20 c 2
 967 98 l 2
 953 120 947 131 939 131 c 0
 933 131 925 123 911 107 c 2
 835 23 l 2
 818 4 808 -5 798 -5 c 0
 790 -5 782 3 771 20 c 2
 722 98 l 2
 708 120 702 131 694 131 c 0
 688 131 680 123 666 107 c 2
 590 23 l 2
 572 3 563 -5 553 -5 c 0
 545 -5 537 3 526 20 c 2
 477 98 l 2
 463 120 457 131 449 131 c 0
 443 131 435 123 421 107 c 2
 345 23 l 2
 328 4 318 -5 308 -5 c 0
 300 -5 292 3 281 20 c 2
 232 98 l 2
 218 120 212 131 204 131 c 0
 198 131 191 123 176 107 c 2
 104 27 l 2
 39 -46 0 -122 0 -234 c 0
 0 -297 19 -371 60 -427 c 0
 66 -435 70 -440 77 -440 c 0
 85 -440 87 -430 87 -420 c 0
 87 -415 84 -408 80 -403 c 0
 47 -360 31 -290 31 -235 c 0
 31 -154 52 -84 112 -20 c 2
 115 -16 l 2
 131 2 139 8 147 8 c 0
 155 8 161 -1 172 -18 c 2
 225 -100 l 2
 238 -121 244 -131 252 -131 c 0
 259 -131 266 -122 282 -104 c 2
 360 -17 l 2
EndSplineSet
Fore
SplineSet
104 27 m 2
 176 107 l 2
 190 123 198 131 204 131 c 0
 212 131 218 120 232 98 c 2
 281 20 l 2
 292 3 300 -5 308 -5 c 0
 318 -5 328 4 345 23 c 2
 420 106 l 1
 434 123 442 132 448 132 c 0
 455 132 461 123 474 103 c 2
 528 17 l 2
 539 1 545 -8 553 -8 c 0
 561 -8 572 2 591 23 c 2x58
 665 106 l 2
 680 122 687 132 693 132 c 0
 700 132 706 123 719 103 c 2
 773 17 l 2
 784 1 790 -8 798 -8 c 0
 806 -8 815 1 834 22 c 2
 911 107 l 2
 925 123 933 131 939 131 c 0
 947 131 953 120 967 98 c 2
 1016 20 l 2
 1027 3 1035 -5 1043 -5 c 0
 1047 -5 1051 -4 1055 -1 c 0
 1066 6 1068 10 1068 29 c 2
 1068 200 l 2
 1068 210 1069 210 1077 210 c 2
 1094 210 l 2
 1103 210 1104 210 1104 200 c 2
 1104 85 l 2
 1104 67 1113 59 1129 77 c 2
 1155 106 l 2
 1169 123 1177 132 1183 132 c 0
 1190 132 1196 123 1209 103 c 2
 1263 17 l 2
 1274 1 1280 -8 1288 -8 c 0
 1296 -8 1306 2 1325 22 c 2
 1345 44 l 2
 1350 50 1354 53 1357 53 c 0
 1363 53 1373 36 1373 28 c 0
 1373 23 1370 17 1363 9 c 2
 1267 -98 l 2
 1249 -118 1240 -130 1232 -130 c 0
 1224 -130 1217 -119 1202 -96 c 2
 1154 -21 l 2
 1142 -2 1135 8 1127 8 c 0
 1124 8 1121 7 1118 5 c 0
 1108 -2 1104 -6 1104 -25 c 2
 1104 -200 l 2
 1104 -210 1103 -210 1095 -210 c 2
 1078 -210 l 2
 1069 -210 1068 -210 1068 -200 c 2
 1068 -90 l 2
 1068 -60 1059 -57 1040 -78 c 2
 1017 -104 l 2
 1001 -122 994 -131 987 -131 c 0
 979 -131 973 -121 960 -100 c 2
 907 -18 l 2
 896 -1 890 8 882 8 c 0
 874 8 865 0 850 -17 c 2
 777 -98 l 2
 759 -118 750 -130 742 -130 c 0
 734 -130 727 -119 712 -96 c 2
 664 -21 l 2
 652 -2 645 8 637 8 c 0
 629 8 620 0 604 -18 c 2
 532 -98 l 2
 514 -118 505 -130 497 -130 c 0
 489 -130 482 -119 467 -96 c 2
 419 -21 l 2
 407 -2 400 8 392 8 c 0
 384 8 375 0 359 -18 c 2
 282 -104 l 2
 266 -122 259 -131 252 -131 c 0
 244 -131 238 -121 225 -100 c 2
 172 -18 l 2
 161 -1 155 8 147 8 c 0
 139 8 129 0 115 -16 c 0
 56 -85 36 -152 36 -235 c 0
 36 -290 51 -353 86 -397 c 0
 89 -401 90 -403 90 -406 c 0
 90 -416 83 -442 76 -442 c 0
 72 -442 66 -435 60 -427 c 0
 19 -371 0 -297 0 -234 c 0
 0 -122 39 -46 104 27 c 2
EndSplineSet
EndChar

StartChar: uni0088
Encoding: 136 136 31
Width: 638
Flags: W
HStem: -131 20G<373 380 129.5 136>
VStem: 545 36<120.849 337.3>
LayerCount: 2
Back
SplineSet
551 420 m 4
 551 430 553 440 561 440 c 4
 568 440 572 435 578 427 c 4
 619 371 638 297 638 234 c 4
 638 122 599 46 534 -27 c 6
 462 -107 l 6
 447 -123 440 -131 434 -131 c 4
 426 -131 420 -120 406 -98 c 6
 357 -20 l 6
 346 -3 338 5 330 5 c 4
 320 5 310 -4 293 -23 c 6
 218 -106 l 1
 204 -123 196 -132 190 -132 c 0
 183 -132 177 -123 164 -103 c 2
 110 -17 l 2
 99 -1 93 8 85 8 c 0
 77 8 67 -2 48 -22 c 2
 28 -44 l 2
 23 -50 19 -53 16 -53 c 0
 10 -53 0 -36 0 -28 c 0
 0 -23 3 -17 10 -9 c 2
 106 98 l 2
 124 118 133 130 141 130 c 0
 149 130 156 119 171 96 c 2
 219 21 l 2
 231 2 238 -8 246 -8 c 0
 254 -8 263 0 279 18 c 6
 356 104 l 6
 372 122 379 131 386 131 c 4
 394 131 400 121 413 100 c 6
 466 18 l 6
 477 1 483 -8 491 -8 c 4
 499 -8 507 -2 523 16 c 6
 526 20 l 6
 586 84 607 154 607 235 c 4
 607 290 591 360 558 403 c 4
 554 408 551 415 551 420 c 4
EndSplineSet
Fore
SplineSet
548 406 m 4
 548 416 555 442 562 442 c 4
 566 442 572 435 578 427 c 4
 619 371 638 297 638 234 c 4
 638 122 599 46 534 -27 c 6
 462 -107 l 2
 447 -123 440 -131 434 -131 c 0
 426 -131 420 -120 406 -98 c 2
 357 -20 l 2
 346 -3 338 5 330 5 c 0
 320 5 310 -4 293 -23 c 2
 218 -106 l 1
 204 -123 196 -132 190 -132 c 0
 183 -132 177 -123 164 -103 c 2
 110 -17 l 2
 99 -1 93 8 85 8 c 0
 77 8 67 -2 48 -22 c 2
 28 -44 l 2
 23 -50 19 -53 16 -53 c 0
 10 -53 0 -36 0 -28 c 0
 0 -23 3 -17 10 -9 c 2
 106 98 l 2
 124 118 133 130 141 130 c 0
 149 130 156 119 171 96 c 2
 219 21 l 2
 231 2 238 -8 246 -8 c 0
 254 -8 263 0 279 18 c 2
 356 104 l 2
 372 122 379 131 386 131 c 0
 394 131 400 121 413 100 c 2
 466 18 l 2
 477 1 483 -8 491 -8 c 4
 499 -8 509 0 523 16 c 4
 582 85 602 152 602 235 c 4
 602 290 587 353 552 397 c 4
 549 401 548 403 548 406 c 4
EndSplineSet
EndChar

StartChar: uni008B
Encoding: 139 139 33
Width: 1000
VWidth: 0
Flags: HW
LayerCount: 2
Back
SplineSet
0 -30 m 3
 0 51 69 99 138 99 c 3
 166 99 206 80 206 32 c 3
 206 -56 124 -96 62 -96 c 3
 61 -96 60 -96 59 -96 c 0
 37 -96 37 -97 37 -122 c 0
 36 -174 36 -243 36 -342 c 0
 36 -484 37 -506 37 -568 c 0
 37 -604 36 -605 21 -605 c 0
 4 -605 0 -604 0 -560 c 0
 0 -481 2 -404 2 -305 c 0
 2 -198 0 -83 0 -30 c 3
EndSplineSet
EndChar

StartChar: uni008C
Encoding: 140 140 34
Width: 989
Flags: W
HStem: 67.667 35<107.325 244.112> 111 20G<552 559 796 802.5>
LayerCount: 2
Back
SplineSet
404 -31 m 2
 527 107 l 2
 541 123 549 131 555 131 c 0
 563 131 569 120 583 98 c 2
 632 20 l 2
 643 3 651 -5 659 -5 c 0
 669 -5 679 4 696 23 c 2
 771 106 l 1
 785 123 793 132 799 132 c 0
 806 132 812 123 825 103 c 2
 879 17 l 2
 890 1 896 -8 904 -8 c 0
 912 -8 922 2 941 22 c 2
 961 44 l 2
 966 50 970 53 973 53 c 0
 979 53 989 36 989 28 c 0
 989 23 986 17 979 9 c 2
 883 -98 l 2
 865 -118 856 -130 848 -130 c 0
 840 -130 833 -119 818 -96 c 2
 770 -21 l 2
 758 -2 751 8 743 8 c 0
 735 8 726 0 710 -18 c 2
 633 -104 l 2
 617 -122 610 -131 603 -131 c 0
 595 -131 589 -121 576 -100 c 2
 523 -18 l 2
 512 -1 506 8 498 8 c 0
 490 8 481 0 466 -17 c 2
 408 -82 l 2
 398 -92 394 -95 385 -86 c 2
 365 -65 l 2
 290 16 243 52 181 52 c 0
 127 52 78 20 49 -29 c 0
 45 -37 41 -39 33 -39 c 0
 21 -39 0 -37 0 -28 c 0
 0 -25 2 -21 4 -16 c 0
 27 32 97 84 177 84 c 0
 255 84 306 38 366 -22 c 2
 376 -32 l 2
 386 -42 393 -43 404 -31 c 2
EndSplineSet
Fore
SplineSet
401.5 -34 m 2
 527 107 l 2
 541.134 122.88 549 131 555 131 c 0
 563 131 569 120 583 98 c 2
 632 20 l 2
 643 3 651 -5 659 -5 c 0
 669 -5 679 4 696 23 c 2
 771 106 l 1
 785 123 793 132 799 132 c 0
 806 132 812 123 825 103 c 2
 879 17 l 2
 890 1 896 -8 904 -8 c 0
 912 -8 922 2 941 22 c 2
 961 44 l 2
 966 50 970 53 973 53 c 0
 979 53 989 36 989 28 c 0
 989 23 986 17 979 9 c 2
 883 -98 l 2
 865 -118 856 -130 848 -130 c 0
 840 -130 833 -119 818 -96 c 2
 770 -21 l 2
 758 -2 751 8 743 8 c 0
 735 8 726 0 710 -18 c 2
 633 -104 l 2
 617 -122 610 -131 603 -131 c 0
 595 -131 589 -121 576 -100 c 2
 523 -18 l 2
 512 -1 506 8 498 8 c 0
 490 8 481.03 -0.0292969 466 -17 c 2
 400.169 -91.333 l 2
 389.09 -103.749 382.309 -103.363 373.969 -90.333 c 2
 361.169 -70.333 l 2
 296.73 30.3525 240.169 67.667 173.169 67.667 c 0
 119.169 67.667 70.1689 35.667 41.1689 -13.333 c 0
 37.1689 -21.333 33.1689 -23.333 25.1689 -23.333 c 0
 13.1689 -23.333 -7.83105 -21.333 -7.83105 -12.333 c 0
 -7.83105 -9.33301 -5.83105 -5.33301 -3.83105 -0.333008 c 0
 19.1689 47.667 89.1689 102.667 169.169 102.667 c 0
 253.169 102.667 305.803 66.9766 366.5 -18 c 2
 376.5 -32 l 2
 384.72 -43.5078 390.5 -46 401.5 -34 c 2
EndSplineSet
EndChar

StartChar: uni008D
Encoding: 141 141 35
Width: 989
Flags: W
HStem: 51 38<114.48 251.947> 111 20G<552 559 796 802.5>
LayerCount: 2
Back
SplineSet
404 -31 m 6
 527 107 l 6
 541 123 549 131 555 131 c 4
 563 131 569 120 583 98 c 6
 632 20 l 6
 643 3 651 -5 659 -5 c 4
 669 -5 679 4 696 23 c 6
 771 106 l 5
 785 123 793 132 799 132 c 4
 806 132 812 123 825 103 c 6
 879 17 l 6
 890 1 896 -8 904 -8 c 4
 912 -8 922 2 941 22 c 6
 961 44 l 6
 966 50 970 53 973 53 c 4
 979 53 989 36 989 28 c 4
 989 23 986 17 979 9 c 6
 883 -98 l 6
 865 -118 856 -130 848 -130 c 4
 840 -130 833 -119 818 -96 c 6
 770 -21 l 6
 758 -2 751 8 743 8 c 4
 735 8 726 0 710 -18 c 6
 633 -104 l 6
 617 -122 610 -131 603 -131 c 4
 595 -131 589 -121 576 -100 c 6
 523 -18 l 6
 512 -1 506 8 498 8 c 4
 490 8 481 0 466 -17 c 6
 408 -82 l 6
 398 -92 394 -95 385 -86 c 6
 365 -65 l 6
 290 16 243 52 181 52 c 4
 127 52 78 20 49 -29 c 4
 45 -37 41 -39 33 -39 c 4
 21 -39 0 -37 0 -28 c 4
 0 -25 2 -21 4 -16 c 4
 27 32 97 84 177 84 c 4
 255 84 306 38 366 -22 c 6
 376 -32 l 6
 386 -42 393 -43 404 -31 c 6
EndSplineSet
Fore
SplineSet
408 -26 m 2
 527 107 l 2
 541.176 122.844 549 131 555 131 c 0
 563 131 569 120 583 98 c 2
 632 20 l 2
 643 3 651 -5 659 -5 c 0
 669 -5 679 4 696 23 c 2
 771 106 l 1
 785 123 793 132 799 132 c 0
 806 132 812 123 825 103 c 2
 879 17 l 2
 890 1 896 -8 904 -8 c 0
 912 -8 922 2 941 22 c 2
 961 44 l 2
 966 50 970 53 973 53 c 0
 979 53 989 36 989 28 c 0
 989 23 986 17 979 9 c 2
 883 -98 l 2
 865 -118 856 -130 848 -130 c 0
 840 -130 833 -119 818 -96 c 2
 770 -21 l 2
 758 -2 751 8 743 8 c 0
 735 8 726 0 710 -18 c 2
 633 -104 l 2
 617 -122 610 -131 603 -131 c 0
 595 -131 589 -121 576 -100 c 2
 523 -18 l 2
 512 -1 506 8 498 8 c 0
 490 8 481 0 466 -17 c 2
 408 -82 l 2
 398 -92 394 -95 385 -86 c 2
 365 -65 l 2
 290 16 243 51 181 51 c 0
 127 51 84 20 55 -29 c 0
 51 -37 47 -39 39 -39 c 0
 27 -39 0 -37 0 -28 c 0
 0 -25 2 -21 4 -16 c 0
 27 32 99 89 179 89 c 0
 257 89 310 43 370 -17 c 2
 380 -27 l 2
 390 -37 397 -38 408 -26 c 2
EndSplineSet
EndChar

StartChar: uni008E
Encoding: 142 142 36
Width: 989
Flags: W
HStem: 111 20G<552 559 796 802.5>
LayerCount: 2
Back
SplineSet
405 -30 m 6
 527 107 l 6
 541 123 549 131 555 131 c 4
 563 131 569 120 583 98 c 6
 632 20 l 6
 643 3 651 -5 659 -5 c 4
 669 -5 679 4 696 23 c 6
 771 106 l 5
 785 123 793 132 799 132 c 4
 806 132 812 123 825 103 c 6
 879 17 l 6
 890 1 896 -8 904 -8 c 4
 912 -8 922 2 941 22 c 6
 961 44 l 6
 966 50 970 53 973 53 c 4
 979 53 989 36 989 28 c 4
 989 23 986 17 979 9 c 6
 883 -98 l 6
 865 -118 856 -130 848 -130 c 4
 840 -130 833 -119 818 -96 c 6
 770 -21 l 6
 758 -2 751 8 743 8 c 4
 735 8 726 0 710 -18 c 6
 633 -104 l 6
 617 -122 610 -131 603 -131 c 4
 595 -131 589 -121 576 -100 c 6
 523 -18 l 6
 512 -1 506 8 498 8 c 4
 490 8 481 -0 466 -17 c 6
 405 -86 l 6
 394 -97 386 -97 376 -85 c 6
 358 -62 l 6
 291 25 247 64 185 70 c 4
 131 74 86 47 53 1 c 4
 48 -7 44 -8 36 -8 c 4
 24 -7 -3 -2 -2 7 c 4
 -2 10 1 13 3 18 c 4
 30 64 107 115 186 108 c 4
 264 101 313.868 49.2979 367.499 -14.623 c 6
 376.589 -25.457 l 6
 386.57 -37.3525 394 -42 405 -30 c 6
EndSplineSet
Fore
SplineSet
405 -30 m 2
 527 107 l 2
 541 123 549 131 555 131 c 0
 563 131 569 120 583 98 c 2
 632 20 l 2
 643 3 651 -5 659 -5 c 0
 669 -5 679 4 696 23 c 2
 771 106 l 1
 785 123 793 132 799 132 c 0
 806 132 812 123 825 103 c 2
 879 17 l 2
 890 1 896 -8 904 -8 c 0
 912 -8 922 2 941 22 c 2
 961 44 l 2
 966 50 970 53 973 53 c 0
 979 53 989 36 989 28 c 0
 989 23 986 17 979 9 c 2
 883 -98 l 2
 865 -118 856 -130 848 -130 c 0
 840 -130 833 -119 818 -96 c 2
 770 -21 l 2
 758 -2 751 8 743 8 c 0
 735 8 726 0 710 -18 c 2
 633 -104 l 2
 617 -122 610 -131 603 -131 c 0
 595 -131 589 -121 576 -100 c 2
 523 -18 l 2
 512 -1 506 8 498 8 c 0
 490 8 481 -0 466 -17 c 2
 405 -86 l 2
 394 -97 386 -97 376 -85 c 2
 358 -62 l 2
 291 25 247 64 185 70 c 0
 131 74 86 47 53 1 c 0
 48 -7 44 -8 36 -8 c 0
 24 -7 -3 -2 -2 7 c 0
 -2 10 1 13 3 18 c 0
 30 64 107 115 186 108 c 0
 264 101 313 48 367 -15 c 2
 378 -28 l 2
 389 -41 394 -42 405 -30 c 2
EndSplineSet
EndChar

StartChar: uni008F
Encoding: 143 143 37
Width: 1000
VWidth: 0
Flags: HW
LayerCount: 2
Back
SplineSet
34 -450 m 4xec
 34 -461 38 -471 52 -471 c 4
 124 -471 179 -379 179 -309 c 4
 179 -297 173 -289 166 -289 c 4
 163 -289 160 -291 158 -294 c 4
 121 -343 96 -353 51 -414 c 4
 42 -427 34 -434 34 -450 c 4xec
187 -118 m 4xe2
 187 -100 185 -65 170 -65 c 4
 166 -65 161 -68 154 -72 c 4
 140 -82 126 -88 116 -91 c 4
 102 -95 86 -98 68 -98 c 4
 60 -98 56 -96 49 -96 c 4
 35 -96 33 -117 33 -236 c 4
 33 -240 33 -243 33 -247 c 4
 33 -285 34 -302 54 -302 c 4
 126 -302 187 -206 187 -118 c 4xe2
207 -49 m 4
 215 -72 222 -97 222 -124 c 4xe2
 222 -193 198 -205 198 -235 c 4
 198 -272 213 -277 213 -323 c 4
 213 -450 117 -488 51 -583 c 4
 42 -596 38 -601 34 -619 c 4
 31 -634 37 -665 11 -665 c 4
 1 -665 -3 -645 -3 -635 c 4
 -3 -554 0 -474 0 -371 c 4xec
 0 -276 -1 -223 -1 -157 c 4
 -1 -123 -1 -84 0 -34 c 4xf0
 0 39 65 96 145 96 c 4
 196 96 213 53 213 28 c 4xe4
 213 18 211 6 208 -6 c 4
 204 -17 202 -22 202 -28 c 4xf0
 202 -34 204 -39 207 -49 c 4
EndSplineSet
EndChar

StartChar: uni0090
Encoding: 144 144 38
Width: 638
Flags: W
VStem: 269 36<-210 -200 -85 -73.2497 -7.05078 3.73306 71.2559 90 200 210> 602 36<120.849 337.3>
LayerCount: 2
Back
SplineSet
523 17 m 2
 526 20 l 2
 586 84 607 154 607 235 c 0
 607 290 591 360 558 403 c 0
 554 408 551 415 551 420 c 0
 551 430 553 440 561 440 c 0
 568 440 572 435 578 427 c 0
 619 371 638 297 638 234 c 0
 638 122 599 46 534 -27 c 2
 462 -107 l 2
 448 -123 440 -131 434 -131 c 0
 426 -131 420 -120 406 -98 c 2
 357 -20 l 2
 346 -3 338 5 330 5 c 0
 311 5 304 -24 304 -55 c 0
 304 -100 305 -128 305 -183 c 0
 305 -202 301 -200 283 -200 c 0
 272 -200 270 -199 270 -181 c 2
 270 -89 l 2
 270 -74 268 -64 263 -64 c 0
 258 -64 251 -69 243 -78 c 2
 218 -106 l 2
 204 -123 196 -132 190 -132 c 0
 183 -132 177 -123 164 -103 c 2
 110 -17 l 2
 99 -1 93 8 85 8 c 0
 77 8 67 -2 48 -22 c 2
 28 -44 l 2
 23 -50 19 -53 16 -53 c 0
 10 -53 0 -36 0 -28 c 0
 0 -23 3 -17 10 -9 c 2
 106 98 l 2
 124 118 133 130 141 130 c 0
 149 130 156 119 171 96 c 2
 219 21 l 2
 231 2 238 -8 246 -8 c 0
 264 -8 271 18 271 47 c 0
 271 97 270 140 270 182 c 0
 270 197 273 200 286 200 c 0
 302 200 305 200 305 183 c 2
 305 94 l 2
 304 77 308 66 315 66 c 0
 320 66 326 70 333 78 c 2
 356 104 l 2
 372 122 379 131 386 131 c 0
 394 131 400 121 413 100 c 2
 466 18 l 2
 477 1 483 -8 491 -8 c 0
 499 -8 507 0 523 17 c 2
EndSplineSet
Fore
SplineSet
534 -27 m 2
 599 46 638 122 638 234 c 0
 638 297 619 371 578 427 c 0
 572 435 566 442 562 442 c 0
 555 442 548 416 548 406 c 0
 548 403 549 401 552 397 c 0
 587 353 602 290 602 235 c 0
 602 152 582 85 523 16 c 0
 509 0 499 -8 491 -8 c 0
 483 -8 477 1 466 18 c 2
 413 100 l 2
 400 121 394 131 386 131 c 0
 379 131 372 122 356 104 c 2
 333 78 l 2
 314 57 305 60 305 90 c 2
 305 200 l 2
 305 210 304 210 295 210 c 2
 278 210 l 2
 270 210 269 210 269 200 c 2
 269 25 l 2
 269 6 265 2 255 -5 c 0
 252 -7 249 -8 246 -8 c 0
 238 -8 231 2 219 21 c 2
 171 96 l 2
 156 119 149 130 141 130 c 0
 133 130 124 118 106 98 c 2
 10 -9 l 2
 3 -17 0 -23 0 -28 c 0
 0 -36 10 -53 16 -53 c 0
 19 -53 23 -50 28 -44 c 2
 48 -22 l 2
 67 -2 77 8 85 8 c 0
 93 8 99 -1 110 -17 c 2
 164 -103 l 2
 177 -123 183 -132 190 -132 c 0
 196 -132 204 -123 218 -106 c 2
 244 -77 l 2
 260 -59 269 -67 269 -85 c 2
 269 -200 l 2
 269 -210 270 -210 279 -210 c 2
 296 -210 l 2
 304 -210 305 -210 305 -200 c 2
 305 -29 l 2
 305 -10 307 -6 318 1 c 0
 322 4 326 5 330 5 c 0
 338 5 346 -3 357 -20 c 2
 406 -98 l 2
 420 -120 426 -131 434 -131 c 0
 440 -131 448 -123 462 -107 c 2
 534 -27 l 2
EndSplineSet
EndChar

StartChar: g
Encoding: 103 103 39
Width: 586
Flags: W
VStem: -117.5 31<111.312 333.23>
LayerCount: 2
Fore
SplineSet
0.5 -15.334 m 0
 -7.5 -15.334 -12.5 -14.334 -27.5 9.66602 c 0
 -72.5 82.666 -86.5 154.666 -86.5 224.666 c 0
 -86.5 316.666 -55.5 404.666 6.5 491.666 c 0
 12.5 499.666 17.5 507.666 17.5 515.666 c 0
 17.5 522.666 13.5 531.666 6.5 531.666 c 0
 1.5 531.666 -3.5 526.666 -11.5 517.666 c 0
 -82.5 424.666 -117.5 323.666 -117.5 223.666 c 0
 -117.5 130.666 -87.6182 38.3627 -28.5 -47.334 c 0
 -8.05762 -76.9669 -0.962891 -82.7188 22.1084 -57 c 2
 58 -17 l 2
 73.1416 -0.125 82 8 90 8 c 0
 98 8 104 -1 115 -18 c 2
 168 -100 l 2
 181 -121 187 -131 195 -131 c 0
 202 -131 209 -122 225 -104 c 2
 302 -18 l 2
 318 -0 327 8 335 8 c 0
 343 8 350 -2 362 -21 c 2
 410 -96 l 2
 425 -119 432 -130 440 -130 c 0
 448 -130 457 -118 475 -98 c 2
 571 9 l 2
 578 17 581 23 581 28 c 0
 581 36 571 53 565 53 c 0
 562 53 558 50 553 44 c 2
 533 22 l 2
 514 2 504 -8 496 -8 c 0
 488 -8 482 1 471 17 c 2
 417 103 l 2
 404 123 398 132 391 132 c 0
 385 132 377 123 363 106 c 2
 288 23 l 2
 271 4 261 -5 251 -5 c 0
 243 -5 235 3 224 20 c 2
 175 98 l 2
 161 120 155 131 147 131 c 0
 141 131 133.229 122.795 119 107 c 2
 24.1079 1.66667 l 2
 19.5039 -3.44397 8.46094 -15.334 0.5 -15.334 c 0
EndSplineSet
EndChar

StartChar: p
Encoding: 112 112 40
Width: 684
Flags: HW
VStem: 0 36<72.8681 274.772> 379 36<-210 -200 -90 -71.2559 -3.73306 7.05078 73.2497 85 200 210>
LayerCount: 2
Back
SplineSet
58 -17 m 2x9fc0
 19 -60 l 2
 11 -68 5 -72 -0 -72 c 0
 -12 -72 -21 -57 -32 -41 c 0
 -79 28 -103 101 -103 176 c 0
 -103 256 -72 340 -15 414 c 0
 -9 421 -3 427 3 427 c 0
 12 427 14 416 14 407 c 0
 14 401 10 395 5 388 c 0
 -44 319 -71 250 -71 177 c 0
 -71 121 -58 63 -22 5 c 0
 -10 -15 -6 -15 0 -15 c 0x2fc0
 7 -15 19 -5 23 0 c 2
 119 107 l 2
 133 123 141 131 147 131 c 0
 155 131 161 120 175 98 c 2
 224 20 l 2
 235 3 243 -5 251 -5 c 0
 270 -5 277 24 277 55 c 0
 277 100 276 128 276 183 c 0
 276 202 280 200 298 200 c 0
 309 200 311 199 311 181 c 2
 311 89 l 2
 311 74 313 64 318 64 c 0
 323 64 330 69 338 78 c 2
 363 106 l 2
 377 123 385 132 391 132 c 0
 398 132 404 123 417 103 c 2
 471 17 l 2
 482 1 488 -8 496 -8 c 0
 504 -8 514 2 533 22 c 2
 553 44 l 2
 558 50 562 53 565 53 c 0
 571 53 581 36 581 28 c 0
 581 23 578 17 571 9 c 2
 475 -98 l 2
 457 -118 448 -130 440 -130 c 0
 432 -130 425 -119 410 -96 c 2
 362 -21 l 2
 350 -2 343 8 335 8 c 0
 317 8 310 -18 310 -47 c 0
 310 -97 311 -140 311 -182 c 0
 311 -197 308 -200 295 -200 c 0
 279 -200 276 -200 276 -183 c 2
 276 -94 l 2
 277 -77 273 -66 266 -66 c 0
 261 -66 255 -70 248 -78 c 2
 225 -104 l 2
 209 -122 202 -131 195 -131 c 0
 187 -131 181 -121 168 -100 c 2
 115 -18 l 2
 104 -1 98 8 90 8 c 0
 82 8 73 -0 58 -17 c 2x9fc0
EndSplineSet
Fore
SplineSet
126 0 m 2
 222 107 l 2
 236 123 244 131 250 131 c 0
 258 131 264 120 278 98 c 2
 327 20 l 2
 338 3 346 -5 354 -5 c 0
 358 -5 362 -4 366 -1 c 0
 377 6 379 10 379 29 c 2
 379 200 l 2
 379 210 380 210 388 210 c 2
 405 210 l 2
 414 210 415 210 415 200 c 2
 415 85 l 2
 415 67 424 59 440 77 c 2
 466 106 l 2
 480 123 488 132 494 132 c 0
 501 132 507 123 520 103 c 2
 574 17 l 2
 585 1 591 -8 599 -8 c 0
 607 -8 617 2 636 22 c 2
 656 44 l 2
 661 50 665 53 668 53 c 0
 674 53 684 36 684 28 c 0
 684 23 681 17 674 9 c 2
 578 -98 l 2
 560 -118 551 -130 543 -130 c 0
 535 -130 528 -119 513 -96 c 2
 465 -21 l 2
 453 -2 446 8 438 8 c 0
 435 8 432 7 429 5 c 0
 419 -2 415 -6 415 -25 c 2
 415 -200 l 2
 415 -210 414 -210 406 -210 c 2
 389 -210 l 2
 380 -210 379 -210 379 -200 c 2
 379 -90 l 2
 379 -60 370 -57 351 -78 c 2
 328 -104 l 2
 312 -122 305 -131 298 -131 c 0
 290 -131 284 -121 271 -100 c 2
 218 -18 l 2
 207 -1 201 8 193 8 c 0
 185 8 176 0 161 -17 c 2
 122 -60 l 2
 103 -81 100 -81 82 -56 c 0
 31 11 0 96 0 176 c 0
 0 256 31 340 88 414 c 0
 94 421 100 429 106 429 c 0
 112 429 118 410 118 401 c 0
 118 398 118 395 114 390 c 0
 65 321 36 250 36 177 c 0
 36 121 52 57 89 0 c 0
 101 -19 110 -18 126 0 c 2
EndSplineSet
EndChar

StartChar: cent
Encoding: 162 162 41
Width: 647
VWidth: 1250
Flags: W
HStem: -301 42<153.799 208.668> -105 31<43.8537 96.8211> -69 128<533.266 610.04> 43 32<50.6466 151.341>
VStem: 0 31<-61.1588 22.9922> 234 32<-224.186 -87.1615> 530 92<-58.6458 9.49167>
LayerCount: 2
Back
SplineSet
24 129 m 7x80
 48 129 61 128 85 128 c 7
 257 128 235 132 289 132 c 7
 314 132 330 132 333 128 c 4
 337 125 337 108 337 78 c 7
 337 66 335 57 335 45 c 7
 335 17 354 19 384 13 c 5
 384 13 385 8 385 6 c 7
 385 4 384 -1 384 -1 c 13
 -47 -1 l 21
 -47 -1 -48 4 -48 6 c 7
 -48 8 -47 13 -47 13 c 5x40
 -30 15 2 11 2 32 c 7
 2 60 0 68 0 96 c 7
 0 123 5 129 24 129 c 7x80
EndSplineSet
Fore
SplineSet
530 -22 m 0xee
 531 -16 532 -10 532 -4 c 0
 532 5 530 11 520 11 c 0
 511 11 498 -1 490 -11 c 0
 475 -34 464 -60 451 -86 c 0
 371 -261 l 0
 360 -288 352 -298 321 -298 c 0
 300 -298 l 0
 281 -298 274 -294 274 -284 c 0
 274 -279 276 -271 280 -262 c 0
 364 -80 l 0
 375 -55 386 -25 386 -2 c 0
 386 16 378 26 354 26 c 0
 329 26 299 11 275 -3 c 0
 257 -15 250 -26 250 -40 c 0
 250 -61 266 -91 266 -142 c 0
 266 -222 231 -301 159 -301 c 0
 112 -301 82 -260 82 -215 c 0
 82 -189 87 -176 96 -141 c 0
 100 -125 101 -106 72 -105 c 1
 28 -101 0 -66 0 -19 c 0
 0 46 46 75 108 75 c 0xde
 122 75 140 71 155 66 c 0
 160 65 165 64 170 64 c 0
 184 64 192 72 199 90 c 0
 226 164 l 0
 234 182 240 192 262 192 c 0
 286 192 l 0
 300 192 310 192 310 179 c 0
 310 172 308 164 302 151 c 0
 274 79 l 2
 268 63 259 39 277 39 c 0
 289 39 309 49 322 54 c 0
 342 63 365 68 382 68 c 0
 404 68 422 61 436 49 c 0
 451 35 460 30 470 30 c 0
 479 30 489 35 508 45 c 0
 525 52 545 59 562 59 c 0
 595 59 622 38 622 -1 c 0
 622 -40 606 -69 568 -69 c 0
 544 -69 530 -51 530 -31 c 0
 530 -22 l 0xee
100 43 m 0
 48 43 31 12 31 -25 c 0
 31 -53 50 -74 81 -74 c 0
 122 -74 137 -54 150 -25 c 0
 172 24 148 43 100 43 c 0
234 -154 m 0
 234 -144 234 -127 231 -112 c 0
 225 -73 205 -82 192 -114 c 2
 169 -171 l 2
 160 -195 136 -259 172 -259 c 0
 211 -259 234 -206 234 -154 c 0
EndSplineSet
EndChar

StartChar: currency
Encoding: 164 164 42
Width: 1000
VWidth: 0
Flags: HM
LayerCount: 2
Back
SplineSet
68 203 m 7
 104 203 136 183 136 137 c 7
 136 116 125 106 125 99 c 7
 125 89 129 87 140 87 c 7
 158 87 213 117 236 157 c 4
 248 178 252 203 271 203 c 7
 278 203 281 197 281 190 c 4
 281 185 279 178 278 173 c 4
 228 -19 211 -113 187 -226 c 4
 180 -258 176 -265 144 -265 c 7
 133 -265 122 -264 122 -249 c 7
 122 -229 147 -172 178 -71 c 4
 191 -30 210 36 218 67 c 4
 219 72 220 76 220 79 c 4
 220 85 217 88 213 88 c 4
 208 88 200 83 194 79 c 4
 174 65 142 44 88 44 c 7
 41 44 0 77 0 127 c 7
 0 168 23.8184 203 68 203 c 7
EndSplineSet
EndChar

StartChar: yen
Encoding: 165 165 43
Width: 1000
VWidth: 0
Flags: HM
LayerCount: 2
Back
SplineSet
188 -220 m 4
 181 -252 178 -256 146 -256 c 7
 135 -256 125 -255 125 -240 c 7
 125 -220 147 -172 178 -71 c 4
 191 -30 210 36 218 67 c 4
 219 72 220 76 220 79 c 4
 220 85 217 88 213 88 c 4
 208 88 200 83 194 79 c 4
 174 65 142 44 88 44 c 7
 41 44 0 77 0 127 c 7
 0 168 24 203 68 203 c 7
 104 203 136 183 136 137 c 7
 136 116 125 106 125 99 c 7
 125 89 129 87 140 87 c 7
 158 87 213 117 236 157 c 4
 248 178 273 282 281 313 c 4
 282 318 283 322 283 325 c 4
 283 331 280 334 276 334 c 4
 271 334 263 329 257 325 c 4
 237 311 205 290 151 290 c 7
 104 290 63 323 63 373 c 7
 63 414 87 449 131 449 c 7
 167 449 199 429 199 383 c 7
 199 362 188 352 188 345 c 7
 188 335 192 333 203 333 c 7
 221 333 276 363 299 403 c 4
 311 424 315 449 334 449 c 7
 341 449 344 443 344 436 c 4
 344 431 342 424 341 419 c 4
 258 101 235 3 188 -220 c 4
EndSplineSet
EndChar

StartChar: brokenbar
Encoding: 166 166 44
Width: 1000
VWidth: 0
Flags: HM
LayerCount: 2
Back
SplineSet
188 -466 m 4
 181 -498 178 -502 146 -502 c 7
 135 -502 125 -501 125 -486 c 7
 125 -466 147 -418 178 -317 c 4
 191 -276 210 -210 218 -179 c 4
 219 -174 220 -170 220 -167 c 4
 220 -161 217 -158 213 -158 c 4
 208 -158 200 -163 194 -167 c 4
 174 -181 142 -202 88 -202 c 7
 41 -202 0 -169 0 -119 c 7
 0 -78 24 -43 68 -43 c 7
 104 -43 136 -63 136 -109 c 7
 136 -130 125 -140 125 -147 c 7
 125 -157 129 -159 140 -159 c 7
 158 -159 213 -129 236 -89 c 4
 248 -68 273 36 281 67 c 4
 282 72 283 76 283 79 c 4
 283 85 280 88 276 88 c 4
 271 88 263 83 257 79 c 4
 237 65 205 44 151 44 c 7
 104 44 63 77 63 127 c 7
 63 168 87 203 131 203 c 7
 167 203 199 183 199 137 c 7
 199 116 188 106 188 99 c 7
 188 89 192 87 203 87 c 7
 221 87 276 117 299 157 c 4
 311 178 336 282 344 313 c 4
 345 318 346 322 346 325 c 4
 346 331 343 334 339 334 c 4
 334 334 326 329 320 325 c 4
 300 311 268 290 214 290 c 7
 167 290 126 323 126 373 c 7
 126 414 150 449 194 449 c 7
 230 449 262 429 262 383 c 7
 262 362 251 352 251 345 c 7
 251 335 255 333 266 333 c 7
 284 333 339 363 362 403 c 4
 374 424 378 449 397 449 c 7
 404 449 407 443 407 436 c 4
 407 431 405 424 404 419 c 4
 304 36 264 -108 188 -466 c 4
EndSplineSet
EndChar

StartChar: section
Encoding: 167 167 45
Width: 1000
VWidth: 0
Flags: HM
LayerCount: 2
Back
SplineSet
188 -712 m 4
 181 -744 178 -748 146 -748 c 7
 135 -748 125 -747 125 -732 c 7
 125 -712 147 -664 178 -563 c 4
 191 -522 210 -456 218 -425 c 4
 219 -420 220 -416 220 -413 c 4
 220 -407 217 -404 213 -404 c 4
 208 -404 200 -409 194 -413 c 4
 174 -427 142 -448 88 -448 c 7
 41 -448 0 -415 0 -365 c 7
 0 -324 24 -289 68 -289 c 7
 104 -289 136 -309 136 -355 c 7
 136 -376 125 -386 125 -393 c 7
 125 -403 129 -405 140 -405 c 7
 158 -405 213 -375 236 -335 c 4
 248 -314 273 -210 281 -179 c 4
 282 -174 283 -170 283 -167 c 4
 283 -161 280 -158 276 -158 c 4
 271 -158 263 -163 257 -167 c 4
 237 -181 205 -202 151 -202 c 7
 104 -202 63 -169 63 -119 c 7
 63 -78 87 -43 131 -43 c 7
 167 -43 199 -63 199 -109 c 7
 199 -130 188 -140 188 -147 c 7
 188 -157 192 -159 203 -159 c 7
 221 -159 276 -129 299 -89 c 4
 311 -68 336 36 344 67 c 4
 345 72 346 76 346 79 c 4
 346 85 343 88 339 88 c 4
 334 88 326 83 320 79 c 4
 300 65 268 44 214 44 c 7
 167 44 126 77 126 127 c 7
 126 168 150 203 194 203 c 7
 230 203 262 183 262 137 c 7
 262 116 251 106 251 99 c 7
 251 89 255 87 266 87 c 7
 284 87 339 117 362 157 c 4
 374 178 399 282 407 313 c 4
 408 318 409 322 409 325 c 4
 409 331 406 334 402 334 c 4
 397 334 389 329 383 325 c 4
 363 311 331 290 277 290 c 7
 230 290 189 323 189 373 c 7
 189 414 213 449 257 449 c 7
 293 449 325 429 325 383 c 7
 325 362 314 352 314 345 c 7
 314 335 318 333 329 333 c 7
 347 333 402 363 425 403 c 4
 437 424 441 449 460 449 c 7
 467 449 470 443 470 436 c 4
 470 431 468 424 467 419 c 4
 359 7 300 -184 188 -712 c 4
EndSplineSet
EndChar

StartChar: dieresis
Encoding: 168 168 46
Width: 535
Flags: HMW
LayerCount: 2
Back
SplineSet
210 14 m 6
 174 14 170 1 162 -26 c 6
 120 -180 l 6
 114 -205 112 -233 133 -233 c 4
 168 -233 233 -145 252 -78 c 6
 264 -35 l 6
 274 4 268 14 232 14 c 6
 210 14 l 6
228 208 m 6
 192 79 l 6
 186 56 197 52 209 52 c 6
 243 52 l 6
 273 52 278 65 293 65 c 4
 301 65 308 64 316 64 c 4
 335 64 342 67 351 67 c 4
 371 67 358 42 372 42 c 4
 383 42 398 74 442 74 c 4
 491 74 509 36.8066 509 -3 c 4
 509 -35.6162 496 -66 454 -66 c 4
 430 -66 414 -44 414 -21 c 4
 414 -6 417 4 421 12 c 4
 438 44 421 51 395 25 c 5
 364 -8 330 -82 311 -150 c 6
 286 -240 l 6
 279 -265 275 -272 252 -272 c 6
 216 -272 l 6
 207 -272 199 -265 201 -255 c 4
 209 -224 190 -233 172 -248 c 4
 159 -259 140 -275 102 -275 c 4
 3 -275 39 -176 53 -128 c 6
 83 -19 l 6
 91 11 78 14 58 14 c 6
 31 14 l 6
 11 14 0 16 0 29 c 4
 0 45 9 52 42 52 c 6
 56 52 l 6
 93 52 103 55 109 76 c 6
 124 130 l 6
 131 152 134 156 149 166 c 4
 178 184 187 196 207 221 c 4
 218 235 235 234 228 208 c 6
EndSplineSet
Fore
SplineSet
210 16 m 2
 174 16 170 1 162 -26 c 2
 120 -180 l 2
 114 -205 112 -233 133 -233 c 0
 168 -233 224 -179 241 -118 c 2
 264 -35 l 2
 275 4 268 16 232 16 c 2
 210 16 l 2
228 208 m 2
 192 79 l 2
 186 56 197 50 209 50 c 2
 225 50 l 2
 283 50 315 67 332 67 c 2
 347 67 l 2
 362 67 364 53 378 53 c 0
 392 53 407 74 442 74 c 0
 491 74 509 37 509 -3 c 0
 509 -36 494 -66 456 -66 c 0
 429 -66 414 -44 414 -21 c 0
 414 -6 417 4 421 12 c 0
 432 36 415 38 398 21 c 0
 383 6 366 -14 352 -42 c 0
 336 -75 321 -113 311 -150 c 2
 286 -240 l 2
 279 -265 275 -272 252 -272 c 2
 216 -272 l 2
 208 -272 201 -267 200 -257 c 0
 200 -247 192 -244 174 -254 c 0
 159 -262 140 -275 102 -275 c 0
 3 -275 39 -176 53 -128 c 2
 83 -19 l 2
 91 11 78 16 58 16 c 2
 24 16 l 2
 6 16 -0 17 -0 26 c 0
 -0 46 7 50 33 50 c 2
 56 50 l 2
 93 50 103 55 109 76 c 2
 126 138 l 2
 134 160 138 163 152 174 c 2
 207 221 l 2
 221 232 235 234 228 208 c 2
EndSplineSet
EndChar

StartChar: Egrave
Encoding: 200 200 47
Width: 1000
VWidth: 0
Flags: H
CounterMasks: 1 e0
LayerCount: 2
Back
SplineSet
193 105 m 7x9a80
 198 105 202 100 202 97 c 7
 202 91 201 83 200 73 c 28
 200 63 202 57 202 46 c 7
 202 29 192 31 175 30 c 4
 154 29 149 31 136 22 c 4
 129 16 125 9 125 -0 c 7
 125 -10 154 -24 182 -31 c 4x9aa4
 197 -34 204 -32 204 -45 c 7
 204 -51 203 -61 203 -69 c 7
 203 -80 206 -83 206 -94 c 7
 206 -100 197 -106 188 -106 c 4
 179 -106 174 -102 164 -100 c 12
 156 -99 152 -101 143 -101 c 7
 132 -101 131 -89 131 -78 c 4
 131 -75 131 -73 131 -70 c 7
 131 -21 107 -18 104 -18 c 7
 92 -18 78 -59 73 -89 c 4
 71 -99 64 -104 54 -104 c 31
 46 -104 42 -102 33 -101 c 28x70b0
 26 -101 21 -102 15 -102 c 4
 5 -102 4 -96 4 -92 c 7
 4 -84 7 -88 7 -67 c 7
 7 -59 5 -51 5 -44 c 7
 5 -33 14 -32 28 -31 c 4
 54 -30 79 -20 79 1 c 7x90c0
 79 19 45 28 18 29 c 4
 10 29 2 29 2 36 c 7
 2 41 2 47 2 53 c 20
 2 65 0 71 0 82 c 4x91
 0 90 2 100 15 100 c 7
 23 100 18 98 45 98 c 7
 52 98 55 97 62 97 c 7
 73 97 73 85 73 77 c 4
 75 42 89 23 103 23 c 7
 120 23 127 55 130 81 c 4
 132 92 133 104 143 104 c 7
 150 104 154 103 168 103 c 7
 186 103 185 105 193 105 c 7x9a80
EndSplineSet
EndChar

StartChar: Eacute
Encoding: 201 201 48
Width: 822
VWidth: 0
Flags: HW
HStem: 211 21G<290 304> 6 137<324 386> 1 85<317 347> -85 85<250 280> -232 20G<290 305>
VStem: 281 33<86 232 -232 -85>
LayerCount: 2
Fore
SplineSet
381 142 m 0xbc
 392 142 402 125 419 96 c 2
 457 33 l 2
 473 6 482 -7 492 -7 c 0
 500 -7 509 4 523 26 c 2
 574 108 l 2
 589 131 597 143 606 143 c 0
 616 143 626 129 643 99 c 2
 681 36 l 2
 698 8 706 -6 715 -6 c 0
 723 -6 731 5 746 29 c 2
 789 98 l 2
 796 108 802 116 808 116 c 0
 815 116 822 102 822 94 c 0
 822 86 819 79 812 68 c 2
 701 -108 l 2
 686 -131 677 -143 668 -143 c 0
 659 -143 651 -131 636 -107 c 2
 594 -37 l 2
 577 -9 568 6 558 6 c 0xdc
 548 6 539 -7 523 -32 c 2
 478 -103 l 2
 462 -128 452 -141 443 -141 c 0
 432 -141 422 -127 406 -100 c 2
 371 -41 l 2
 361 -25 349 1 332 1 c 0
 316 1 313 -41 313 -71 c 0
 313 -113 314 -145 314 -195 c 0
 314 -232 313 -232 297 -232 c 0
 283 -232 281 -230 281 -187 c 0
 281 -161 281 -141 281 -121 c 0
 281 -97 278 -85 271 -85 c 0
 266 -85 260 -91 252 -103 c 0
 236 -128 226 -141 217 -141 c 0
 206 -141 196 -127 180 -100 c 2
 145 -41 l 2
 127 -11 117 4 107 4 c 0
 98 4 88 -11 71 -38 c 2
 29 -105 l 2
 27 -109 21 -115 16 -115 c 0
 8 -115 0 -102 0 -94 c 0
 0 -87 3 -80 9 -71 c 2
 115 97 l 2
 134 126 145 140 155 140 c 0
 166 140 176 125 193 96 c 2
 231 33 l 2
 239 20 253 0 264 0 c 0
 279 0 283 32 283 58 c 0
 283 115 281 167 281 208 c 0
 281 227 283 232 296 232 c 0
 312 232 314 229 314 206 c 0
 314 178 314 149 314 119 c 0
 314 96 318 86 325 86 c 0
 331 86 339 94 348 108 c 2
 354 117 l 2
 365 133 374 142 381 142 c 0xbc
EndSplineSet
EndChar

StartChar: acircumflex
Encoding: 226 226 49
Width: 1154
VWidth: 0
Flags: HW
VStem: 0 33<68.6739 296.896>
LayerCount: 2
Fore
SplineSet
773 -141 m 0
 762 -141 752 -125 735 -96 c 2
 697 -33 l 2
 681 -6 672 7 662 7 c 0
 654 7 645 -4 631 -26 c 2
 580 -108 l 2
 565 -131 556 -142 547 -142 c 0
 536 -142 526 -125 509 -96 c 2
 471 -33 l 2
 455 -6 446 7 436 7 c 0
 428 7 419 -4 405 -26 c 2
 354 -108 l 2
 339 -131 331 -143 322 -143 c 0
 312 -143 302 -129 285 -99 c 2
 247 -36 l 2
 230 -8 222 6 213 6 c 0
 205 6 197 -5 182 -29 c 2
 139 -98 l 2
 132 -108 126 -116 120 -116 c 0
 109 -116 98 -97 90 -87 c 0
 31 -1 0 92 0 185 c 0
 0 285 37 386 108 479 c 0
 116 488 121 493 126 493 c 0
 133 493 137 484 137 477 c 0
 137 469 132 461 126 453 c 0
 64 366 33 278 33 186 c 0
 33 116 47 44 92 -29 c 0
 112 -61 124 -53 139 -32 c 2
 227 108 l 2
 242 131 251 143 260 143 c 0
 269 143 277 131 292 107 c 2
 334 37 l 2
 351 9 360 -6 370 -6 c 0
 380 -6 389 7 405 32 c 2
 450 103 l 2
 466 128 476 141 485 141 c 0
 496 141 506 127 522 100 c 2
 557 41 l 2
 575 11 585 -4 595 -4 c 0
 605 -4 615 7 631 32 c 2
 676 103 l 2
 692 128 702 141 711 141 c 0
 722 141 732 127 748 100 c 2
 783 41 l 2
 793 25 805 -1 822 -1 c 0
 838 -1 841 41 841 71 c 0
 841 113 840 145 840 195 c 0
 840 232 841 232 857 232 c 0
 871 232 873 230 873 187 c 0
 873 161 873 141 873 121 c 0
 873 97 876 85 883 85 c 0
 888 85 894 91 902 103 c 0
 918 128 928 141 937 141 c 0
 948 141 958 127 974 100 c 2
 1009 41 l 2
 1027 11 1037 -4 1047 -4 c 0
 1056 -4 1066 11 1083 38 c 2
 1125 105 l 2
 1127 109 1133 115 1138 115 c 0
 1146 115 1154 102 1154 94 c 0
 1154 87 1151 80 1145 71 c 2
 1039 -97 l 2
 1020 -126 1009 -140 999 -140 c 0
 988 -140 978 -125 961 -96 c 2
 923 -33 l 2
 915 -20 901 0 890 0 c 0
 875 0 871 -32 871 -58 c 0
 871 -115 873 -167 873 -208 c 0
 873 -227 871 -232 858 -232 c 0
 842 -232 840 -229 840 -206 c 0
 840 -178 840 -149 840 -119 c 0
 840 -96 836 -86 829 -86 c 0
 821 -86 812 -99 806 -108 c 0
 791 -131 782 -141 773 -141 c 0
EndSplineSet
EndChar

StartChar: eacute
Encoding: 233 233 50
Width: 846
VWidth: 0
Flags: HW
VStem: 0 33<-379 -151>
LayerCount: 2
Fore
SplineSet
145 108 m 2
 160 131 169 143 178 143 c 0
 187 143 195 131 210 107 c 2
 252 37 l 2
 269 9 278 -6 288 -6 c 0
 298 -6 307 7 323 32 c 2
 368 103 l 2
 384 128 394 141 403 141 c 0
 414 141 424 127 440 100 c 2
 475 41 l 2
 493 11 503 -4 513 -4 c 0
 523 -4 533 7 549 32 c 2
 594 103 l 2
 610 128 620 141 629 141 c 0
 640 141 650 127 666 100 c 2
 701 41 l 2
 719 11 729 -4 739 -4 c 0
 748 -4 758 11 775 38 c 2
 817 105 l 2
 819 109 825 115 830 115 c 0
 838 115 846 102 846 94 c 0
 846 87 843 80 837 71 c 2
 731 -97 l 2
 712 -126 701 -140 691 -140 c 0
 680 -140 670 -125 653 -96 c 2
 615 -33 l 2
 599 -6 590 7 580 7 c 0
 572 7 563 -4 549 -26 c 2
 498 -108 l 2
 483 -131 474 -142 465 -142 c 0
 454 -142 444 -125 427 -96 c 2
 389 -33 l 2
 373 -6 364 7 354 7 c 0
 346 7 337 -4 323 -26 c 2
 272 -108 l 2
 257 -131 249 -143 240 -143 c 0
 230 -143 220 -129 203 -99 c 2
 165 -36 l 2
 148 -8 140 6 131 6 c 0
 120 6 113 -9 100 -29 c 0
 59 -98 33 -186 33 -268 c 0
 33 -360 64 -448 126 -535 c 0
 132 -543 137 -551 137 -559 c 0
 137 -566 133 -575 126 -575 c 0
 121 -575 116 -570 108 -561 c 0
 37 -468 0 -367 0 -267 c 0
 0 -143 44 -55 105 44 c 2
 145 108 l 2
EndSplineSet
EndChar

StartChar: oslash
Encoding: 248 248 51
Width: 620
VWidth: 0
Flags: W
VStem: 587 33<150.642 378.896>
LayerCount: 2
Back
SplineSet
64 210 m 7
 121 210 151 145 151 85 c 7
 151 -45 77 -146 48 -146 c 7
 39 -146 32 -138 32 -129 c 7
 32 -99 108 -38 108 50 c 7
 108 65 88 81 77 81 c 7
 69 81 65 80 57 80 c 31
 22 80 0 96 0 149 c 7
 0 184 29 210 64 210 c 7
EndSplineSet
Fore
SplineSet
475 -108 m 2
 460 -131 451 -143 442 -143 c 0
 433 -143 425 -131 410 -107 c 2
 368 -37 l 2
 351 -9 342 6 332 6 c 0
 322 6 313 -7 297 -32 c 2
 252 -103 l 2
 236 -128 226 -141 217 -141 c 0
 206 -141 196 -127 180 -100 c 2
 145 -41 l 2
 127 -11 117 4 107 4 c 0
 98 4 88 -11 71 -38 c 2
 29 -105 l 2
 27 -109 21 -115 16 -115 c 0
 8 -115 0 -102 0 -94 c 0
 0 -87 3 -80 9 -71 c 2
 115 97 l 2
 134 126 145 140 155 140 c 0
 166 140 176 125 193 96 c 2
 231 33 l 2
 247 6 256 -7 266 -7 c 0
 274 -7 283 4 297 26 c 2
 348 108 l 2
 363 131 371 143 380 143 c 0
 390 143 400 129 417 99 c 2
 455 36 l 2
 472 8 480 -6 489 -6 c 0
 497 -6 505 5 520 29 c 0
 561 98 587 186 587 268 c 0
 587 360 556 448 494 535 c 0
 488 543 483 551 483 559 c 0
 483 566 487 575 494 575 c 0
 499 575 504 570 512 561 c 0
 583 468 620 367 620 267 c 0
 620 143 577 55 515 -44 c 2
 475 -108 l 2
EndSplineSet
EndChar

StartChar: ucircumflex
Encoding: 251 251 52
Width: 1017
VWidth: 0
Flags: W
HStem: 282 45<835.61 1015.66>
CounterMasks: 1 38
LayerCount: 2
Back
SplineSet
264.765 56 m 4
 264.765 92.4307 294.859 122.528 331.292 122.528 c 4
 367.724 122.528 396.235 92.4307 396.235 56 c 4
 396.235 19.5693 367.724 -10.5283 331.292 -10.5283 c 4
 294.859 -10.5283 264.765 19.5693 264.765 56 c 4
336 401 m 7
 521 401 644 239 660 57 c 4
 662 39 667 27 667 9 c 15
 667 1.30762 658 -1 650 -1 c 7
 625 -1 638 49 618 104 c 4
 587 185 498 283 360 283 c 7
 141 283 71 156 46 66 c 4
 33.7204 21.7935 29.2627 -29 12 -29 c 7
 2 -29 0 -16 0 -5 c 7
 0 128 70 282 168 353 c 4
 206 380 273 401 336 401 c 7
EndSplineSet
Fore
SplineSet
551 14 m 2
 481 -97 l 2
 462 -126 451 -140 441 -140 c 0
 430 -140 420 -125 403 -96 c 2
 365 -33 l 2
 349 -6 340 7 330 7 c 0
 322 7 313 -4 299 -26 c 2
 248 -108 l 2
 233 -131 225 -143 216 -143 c 0
 206 -143 196 -129 179 -99 c 2
 141 -36 l 2
 124 -8 116 6 107 6 c 0
 99 6 91 -5 76 -29 c 2
 33 -98 l 2
 26 -108 20 -116 14 -116 c 0
 7 -116 0 -102 0 -94 c 0
 0 -86 3 -79 10 -68 c 2
 121 108 l 2
 136 131 145 143 154 143 c 0
 163 143 171 131 186 107 c 2
 228 37 l 2
 245 9 254 -6 264 -6 c 0
 274 -6 283 7 299 32 c 2
 344 103 l 2
 360 128 370 141 379 141 c 0
 390 141 400 127 416 100 c 2
 451 41 l 2
 469 11 479 -4 489 -4 c 0
 498 -4 508 11 525 38 c 2
 530 46 l 2
 641 223 780 327 974 327 c 0
 993 327 1017 330 1017 313 c 0
 1017 295 1004 282 982 282 c 0
 728 282 624 130 551 14 c 2
EndSplineSet
EndChar

StartChar: edieresis
Encoding: 235 235 53
Width: 1298
VWidth: 0
Flags: HW
VStem: 0 33<-379 -151>
LayerCount: 2
Fore
SplineSet
145 108 m 2
 160 131 169 143 178 143 c 0
 187 143 195 131 210 107 c 2
 252 37 l 2
 269 9 278 -6 288 -6 c 0
 298 -6 307 7 323 32 c 2
 368 103 l 2
 384 128 394 141 403 141 c 0
 414 141 424 127 440 100 c 2
 475 41 l 2
 493 11 503 -4 513 -4 c 0
 523 -4 533 7 549 32 c 2
 594 103 l 2
 610 128 620 141 629 141 c 0
 640 141 650 127 666 100 c 2
 701 41 l 2
 719 11 729 -4 739 -4 c 0
 749 -4 759 7 775 32 c 2
 820 103 l 2
 836 128 846 141 855 141 c 0
 866 141 876 127 892 100 c 2
 927 41 l 2
 945 11 955 -4 965 -4 c 0
 975 -4 985 7 1001 32 c 2
 1046 103 l 2
 1062 128 1072 141 1081 141 c 0
 1092 141 1102 127 1118 100 c 2
 1153 41 l 2
 1171 11 1181 -4 1191 -4 c 0
 1200 -4 1210 11 1227 38 c 2
 1269 105 l 2
 1271 109 1277 115 1282 115 c 0
 1290 115 1298 102 1298 94 c 0
 1298 87 1295 80 1289 71 c 2
 1183 -97 l 2
 1164 -126 1153 -140 1143 -140 c 0
 1132 -140 1122 -125 1105 -96 c 2
 1067 -33 l 2
 1051 -6 1042 7 1032 7 c 0
 1024 7 1015 -4 1001 -26 c 2
 950 -108 l 2
 935 -131 926 -141 917 -141 c 0
 906 -141 896 -125 879 -96 c 2
 841 -33 l 2
 825 -6 816 7 806 7 c 0
 798 7 789 -4 775 -26 c 2
 724 -108 l 2
 709 -131 700 -141 691 -141 c 0
 680 -141 670 -125 653 -96 c 2
 615 -33 l 2
 599 -6 590 7 580 7 c 0
 572 7 563 -4 549 -26 c 2
 498 -108 l 2
 483 -131 474 -142 465 -142 c 0
 454 -142 444 -125 427 -96 c 2
 389 -33 l 2
 373 -6 364 7 354 7 c 0
 346 7 337 -4 323 -26 c 2
 272 -108 l 2
 257 -131 249 -143 240 -143 c 0
 230 -143 220 -129 203 -99 c 2
 165 -36 l 2
 148 -8 140 6 131 6 c 0
 131 6 l 0
 122 6 113 -8 100 -29 c 0
 59 -98 33 -186 33 -268 c 0
 33 -360 64 -448 126 -535 c 0
 132 -543 137 -551 137 -559 c 0
 137 -566 133 -575 126 -575 c 0
 121 -575 116 -570 108 -561 c 0
 37 -468 0 -367 0 -267 c 0
 0 -143 44 -55 105 44 c 2
 145 108 l 2
EndSplineSet
EndChar

StartChar: igrave
Encoding: 236 236 54
Width: 1000
VWidth: 0
Flags: H
LayerCount: 2
Back
SplineSet
84 17 m 7
 97 17 105 0 111 -14 c 4
 128 -55 150 -110 169 -148 c 4
 184 -178 183 -180 198 -180 c 7
 207 -180 215 -156 226 -133 c 4
 245 -95 261 -47 280 -12 c 4
 289 5 297 15 303 15 c 7
 310 15 323 12 323 2 c 7
 323 -5 319 -17 309 -39 c 4
 271 -132 232 -218 195 -311 c 4
 192 -317 172 -381 160 -381 c 7
 144 -381 125 -323 119 -306 c 4
 57 -160 61 -170 17 -57 c 4
 12 -43 0 -8 0 0 c 7
 0 15 20 18 43 18 c 4
 57 18 72 17 84 17 c 7
EndSplineSet
EndChar

StartChar: Abreve
Encoding: 258 258 55
Width: 1000
Flags: H
LayerCount: 2
Back
SplineSet
150 195 m 7
 89 195 52 145 52 88 c 7
 52 35 87 7 164 7 c 7
 212 7 263 33 263 81 c 7
 263 110 237 132 209 158 c 4
 189 176 169 195 150 195 c 7
238 412 m 31
 196 412 147 389 147 354 c 7
 147 336 176 303 206 275 c 4
 225 256 244 238 260 238 c 7
 290 238 333 290 333 338 c 7
 333 391 285 412 238 412 c 31
233 438 m 7
 306 438 373 397 373 327 c 7
 373 240 277 247 277 226 c 7
 277 197 332 188 332 123 c 7
 332 20 243 -14 155 -14 c 31
 79 -14 0 26 0 105 c 7
 0 140 31 172 62 188 c 4
 92 206 122 208 122 215 c 7
 122 244 72 251 72 312 c 7
 72 366 96 394 142 416 c 4
 171 430 203 438 233 438 c 7
EndSplineSet
EndChar

StartChar: lcommaaccent
Encoding: 316 316 56
Width: 0
VWidth: 0
Flags: HM
LayerCount: 2
Back
SplineSet
254 -88 m 4xb0
 247 -88 236 -77 236 -68 c 4
 236 -62 240 -56 247 -46 c 6
 355 96 l 6
 369 113 379 122 390 122 c 4
 399 122 408 115 419 101 c 6
 464 41 l 6
 475 27 493 8 505 8 c 4xb0
 514 8 520 17 520 42 c 4
 520 91 519 115 519 175 c 4
 519 212 520 212 537 212 c 4
 552 212 554 210 554 167 c 4
 554 135 553 121 553 92 c 4
 553 81 555 68 563 68 c 4
 567 68 574 72 582 83 c 6
 594 99 l 6
 605 114 616 121 626 121 c 4
 636 121 645 115 654 102 c 6
 703 38 l 6
 717 20 728 11 739 11 c 4
 751 11 763 22 780 44 c 6
 805 77 l 6
 811 84 815 87 820 87 c 4
 827 87 837 75 837 67 c 4
 837 61 832 54 823 41 c 6
 722 -92 l 6
 707 -112 696 -121 685 -121 c 4
 673 -121 662 -110 647 -90 c 6
 607 -38 l 6
 592 -19 579 -6 569 -6 c 4x70
 558 -6 552 -19 552 -50 c 4
 553 -102 554 -147 554 -188 c 4
 554 -207 553 -212 538 -212 c 4
 520 -212 519 -209 519 -186 c 6
 519 -92 l 6
 519 -78 517 -67 510 -67 c 4
 506 -67 500 -72 492 -82 c 6
 482 -96 l 5
 469 -112 458 -119 448 -119 c 4
 436 -119 425 -109 412 -93 c 6
 361 -26 l 6
 349 -10 341 -3 333 -3 c 4
 324 -3 316 -14 304 -30 c 6
 271 -74 l 6
 263 -84 258 -88 254 -88 c 4xb0
EndSplineSet
EndChar

StartChar: Ohungarumlaut
Encoding: 336 336 57
Width: 1000
VWidth: 0
Flags: H
LayerCount: 2
Back
SplineSet
-2 0 m 7
 -2 108 80 185 98 185 c 7
 105 185 106 183 106 178 c 7
 106 162 32 115 32 0 c 1031
95 185 m 0
 108 184 110 181 109 179 c 0
 63 113 32 75 32 0 c 0
 32 -76 63 -114 109 -179 c 0
 112 -183 101 -185 95 -185 c 0
 89 -185 77 -185 75 -181 c 0
 29 -116 -2 -77 -2 0 c 0
 -2 76 29 115 75 181 c 0
 76 183 83 186 95 185 c 0
EndSplineSet
EndChar

StartChar: OE
Encoding: 338 338 58
Width: 1000
VWidth: 0
Flags: H
LayerCount: 2
Back
SplineSet
0 6 m 3
 0 125 91 264 117 264 c 3
 123 264 131 262 131 253 c 3
 131 238 45 170 45 -9 c 3
 45 -182 131 -218 131 -245 c 7
 131 -252 129 -264 116 -264 c 7
 104 -264 0 -152 0 6 c 3
EndSplineSet
EndChar

StartChar: Racute
Encoding: 340 340 59
Width: 1000
VWidth: 0
Flags: H
LayerCount: 2
Back
SplineSet
0 9 m 7
 0 210 149 391 183 391 c 7
 192 391 202 387 202 379 c 7
 202 349 58 292 58 0 c 7
 58 -273 196 -349 196 -376 c 7
 196 -386 185 -391 175 -391 c 7
 158 -391 0 -226 0 9 c 7
EndSplineSet
EndChar

StartChar: q
Encoding: 113 113 60
Width: 929
Flags: HW
HStem: -210 21G<629.5 655> 112 20G<247 254 491 497.5 629 654.5 736 742.5> 112 20G<491 497.5 736 742.5> 190 20G<629 654.5>
VStem: 624 36<-210 -71.2559 -5.09409 6.93923 73.2497 210>
LayerCount: 2
Back
SplineSet
58 -17 m 2
 19 -60 l 2
 11 -68 5 -72 -0 -72 c 0
 -12 -72 -21 -57 -32 -41 c 0
 -79 28 -103 101 -103 176 c 0
 -103 256 -72 340 -15 414 c 0
 -9 421 -3 427 3 427 c 0
 12 427 14 416 14 407 c 0
 14 401 10 395 5 388 c 0
 -44 319 -71 250 -71 177 c 0
 -71 121 -58 63 -22 5 c 0
 -10 -15 -6 -15 0 -15 c 0
 7 -15 19 -5 23 -0 c 2
 119 107 l 2
 133 123 141 131 147 131 c 0
 155 131 161 120 175 98 c 2
 224 20 l 2
 235 3 243 -5 251 -5 c 0
 261 -5 271 4 288 23 c 2
 364 107 l 2
 378 123 386 131 392 131 c 0
 400 131 406 120 420 98 c 2
 469 20 l 2
 480 3 488 -5 496 -5 c 0
 515 -5 522 24 522 55 c 0
 522 100 521 128 521 183 c 0
 521 202 525 200 543 200 c 0
 554 200 556 199 556 181 c 2
 556 89 l 2
 556 74 558 64 563 64 c 0
 568 64 575 69 583 78 c 2
 608 106 l 2
 622 123 630 132 636 132 c 0
 643 132 649 123 662 103 c 2
 716 17 l 2
 727 1 733 -8 741 -8 c 0
 749 -8 759 2 778 22 c 2
 798 44 l 2
 803 50 807 53 810 53 c 0
 816 53 826 36 826 28 c 0
 826 23 823 17 816 9 c 2
 720 -98 l 2
 702 -118 693 -130 685 -130 c 0
 677 -130 670 -119 655 -96 c 2
 607 -21 l 2
 595 -2 588 8 580 8 c 0
 562 8 555 -18 555 -47 c 0
 555 -97 556 -140 556 -182 c 0
 556 -197 553 -200 540 -200 c 0
 524 -200 521 -200 521 -183 c 2
 521 -94 l 2
 522 -77 518 -66 511 -66 c 0
 506 -66 500 -70 493 -78 c 2
 470 -104 l 2
 454 -122 447 -131 440 -131 c 0
 432 -131 426 -121 413 -100 c 2
 360 -18 l 2
 349 -1 343 8 335 8 c 0
 327 8 317 -2 302 -18 c 2
 225 -104 l 2
 209 -122 202 -131 195 -131 c 0
 187 -131 181 -121 168 -100 c 2
 115 -18 l 2
 104 -1 98 8 90 8 c 0
 82 8 73 -0 58 -17 c 2
EndSplineSet
Fore
SplineSet
126 0 m 2
 222 107 l 2
 236 123 244 131 250 131 c 0
 258 131 264 120 278 98 c 2
 327 20 l 2
 338 3 346 -5 354 -5 c 0
 364 -5 374 4 391 23 c 2
 466 106 l 1
 480 123 488 132 494 132 c 0
 501 132 507 123 520 103 c 2
 574 17 l 2
 585 1 591 -7 599 -7 c 0
 603 -7 607 -5 611 -2 c 0
 622 7 624 10 624 29 c 2
 624 200 l 2
 624 210 625 210 633 210 c 2
 650 210 l 2
 659 210 660 210 660 200 c 2
 660 85 l 2
 660 67 669 59 685 77 c 2
 711 106 l 2xd8
 726 122 733 132 739 132 c 0
 746 132 752 123 765 103 c 2
 819 17 l 2
 830 1 836 -8 844 -8 c 0
 852 -8 862 2 881 22 c 2
 901 44 l 2
 906 50 910 53 913 53 c 0
 919 53 929 36 929 28 c 0
 929 23 926 17 919 9 c 2
 823 -98 l 2
 805 -118 796 -130 788 -130 c 0
 780 -130 773 -119 758 -96 c 2
 710 -21 l 2
 698 -2 691 8 683 8 c 0
 680 8 677 7 673 4 c 0
 664 -2 660 -7 660 -25 c 2
 660 -200 l 2
 660 -210 659 -210 651 -210 c 2
 634 -210 l 2
 625 -210 624 -210 624 -200 c 2
 624 -90 l 2
 624 -60 615 -57 596 -78 c 2
 578 -98 l 2
 560 -118 551 -130 543 -130 c 0
 535 -130 528 -119 513 -96 c 2
 465 -21 l 2
 453 -2 446 8 438 8 c 0
 430 8 421 0 405 -18 c 2
 328 -104 l 2
 312 -122 305 -131 298 -131 c 0
 290 -131 284 -121 271 -100 c 2
 218 -18 l 2
 207 -1 201 8 193 8 c 0
 185 8 176 0 161 -17 c 2
 122 -60 l 2
 103 -81 100 -81 82 -56 c 0
 31 11 0 96 0 176 c 0
 0 256 31 340 88 414 c 0
 94 421 100 429 106 429 c 0
 112 429 118 410 118 401 c 0
 118 398 118 395 114 390 c 0
 65 321 36 250 36 177 c 0
 36 121 52 57 89 0 c 0
 101 -19 110 -17 126 0 c 2
EndSplineSet
EndChar

StartChar: space
Encoding: 32 32 61
Width: 100
Flags: W
LayerCount: 2
Back
SplineSet
130.672 108 m 6
 136 131 l 1030
370 14 m 0x09f8
 371 19 372 24 372 29 c 0
 372 37 371 41 363 41 c 0x05f8
 355 41 345 32 338 24 c 0
 326 5 317 -16 307 -37 c 0
 242 -179 l 0
 233 -201 227 -208 202 -208 c 0
 185 -208 l 0
 170 -208 164 -205 164 -197 c 0
 164 -193 166 -188 169 -180 c 0
 237 -32 l 0
 246 -12 255 11 255 30 c 0
 255 44 248 53 229 53 c 0
 209 53 184 40 165 29 c 0
 151 19 144 11 144 0 c 0
 144 -17 158 -42 158 -83 c 0
 158 -148 129 -211 71 -211 c 0
 33 -211 9 -178 9 -142 c 0
 9 -121 13 -110 21 -82 c 0
 24 -69 25 -53 1 -52 c 0
 -34 -49 -57 -21 -57 17 c 0
 -57 69 -20 93 30 93 c 0xa3f8
 41 93 56 89 68 85 c 0
 72 84 76 83 80 83 c 0
 91 83 98 90 104 104 c 0
 122 152 l 0
 129 170 132 170 142 178 c 0
 182 205 l 0
 201 218 209 211 199 187 c 0
 164 96 l 0
 159 83 152 63 166 63 c 0
 176 63 193 72 203 76 c 0
 219 84 239 87 252 87 c 0
 270 87 284 82 295 72 c 0
 307 61 315 57 323 57 c 0
 331 57 338 60 353 68 c 0x05f8
 366 74 384 80 397 80 c 0
 423.999 80 445.999 62 445.999 31 c 0
 445.999 0 431.999 -24 402 -24 c 0
 383 -24 370 -9 370 7 c 0
 370 14 l 0x09f8
24 67 m 0x23f8
 -18 67 -32 41 -32 12 c 0
 -32 -11 -16 -28 9 -28 c 0
 42 -28 55 -12 65 12 c 0
 83 52 63 67 24 67 c 0x23f8
132 -92 m 0
 132 -84 132 -70 129 -58 c 0
 124 -27 108 -34 98 -60 c 0
 80 -106 l 0
 72 -125 53 -177 82 -177 c 0x81f8
 113 -177 132 -134 132 -92 c 0
EndSplineSet
EndChar

StartChar: h
Encoding: 104 104 62
Width: 684
Flags: HW
VStem: 0 36<72.8681 274.772>
LayerCount: 2
Back
SplineSet
0 -15 m 0
 -6 -15 -10 -15 -22 5 c 0
 -58 63 -71 121 -71 177 c 0
 -71 250 -44 319 5 388 c 0
 10 395 14 401 14 407 c 0
 14 416 12 427 3 427 c 0
 -3 427 -9 421 -15 414 c 0
 -72 340 -103 256 -103 176 c 0
 -103 101 -79 28 -32 -41 c 0
 -21 -57 -12 -72 -0 -72 c 0
 5 -72 12 -69 19 -60 c 2
 58 -17 l 2
 73 -0 82 8 90 8 c 0
 98 8 104 -1 115 -18 c 2
 168 -100 l 2
 181 -121 187 -131 195 -131 c 0
 202 -131 209 -122 225 -104 c 2
 302 -18 l 2
 318 -0 327 8 335 8 c 0
 343 8 350 -2 362 -21 c 2
 410 -96 l 2
 425 -119 432 -130 440 -130 c 0
 448 -130 457 -118 475 -98 c 2
 571 9 l 2
 578 17 581 23 581 28 c 0
 581 36 571 53 565 53 c 0
 562 53 558 50 553 44 c 2
 533 22 l 2
 514 2 504 -8 496 -8 c 0
 488 -8 482 1 471 17 c 2
 417 103 l 2
 404 123 398 132 391 132 c 0
 385 132 377 123 363 106 c 2
 288 23 l 2
 271 4 261 -5 251 -5 c 0
 243 -5 235 3 224 20 c 2
 175 98 l 2
 161 120 155 131 147 131 c 0
 141 131 133.197 122.824 119 107 c 2
 23 0 l 2
 19 -5 7 -15 0 -15 c 0
EndSplineSet
Fore
SplineSet
89 0 m 0
 101 -19 110 -17 126 0 c 2
 222 107 l 2
 236 123 244 131 250 131 c 0
 258 131 264 120 278 98 c 2
 327 20 l 2
 338 3 346 -5 354 -5 c 0
 364 -5 374 4 391 23 c 2
 466 106 l 2
 480 123 488 132 494 132 c 0
 501 132 507 123 520 103 c 2
 574 17 l 2
 585 1 591 -8 599 -8 c 0
 607 -8 617 2 636 22 c 2
 656 44 l 2
 661 50 665 53 668 53 c 0
 674 53 684 36 684 28 c 0
 684 23 681 17 674 9 c 2
 578 -98 l 2
 560 -118 551 -130 543 -130 c 0
 535 -130 528 -119 513 -96 c 2
 465 -21 l 2
 453 -2 446 8 438 8 c 0
 430 8 421 0 405 -18 c 2
 328 -104 l 2
 312 -122 305 -131 298 -131 c 0
 290 -131 284 -121 271 -100 c 2
 218 -18 l 2
 207 -1 201 8 193 8 c 0
 185 8 176 0 161 -17 c 2
 122 -60 l 2
 103 -81 100 -81 82 -56 c 0
 31 11 0 96 0 176 c 0
 0 256 31 340 88 414 c 0
 94 421 100 429 106 429 c 0
 112 429 118 410 118 401 c 0
 118 398 118 395 114 390 c 0
 65 321 36 250 36 177 c 4
 36 121 52 57 89 0 c 0
EndSplineSet
EndChar

StartChar: i
Encoding: 105 105 63
Width: 929
Flags: HW
LayerCount: 2
Back
SplineSet
58 -17 m 2
 19 -60 l 2
 11 -68 5 -72 -0 -72 c 0
 -12 -72 -21 -57 -32 -41 c 0
 -79 28 -103 101 -103 176 c 0
 -103 256 -72 340 -15 414 c 0
 -9 421 -3 427 3 427 c 0
 12 427 14 416 14 407 c 0
 14 401 10 395 5 388 c 0
 -44 319 -71 250 -71 177 c 0
 -71 121 -58 63 -22 5 c 0
 -10 -15 -6 -15 0 -15 c 0
 7 -15 19 -4 24 2 c 2
 119 107 l 2
 133 123 141 131 147 131 c 0
 155 131 161 120 175 98 c 2
 224 20 l 2
 235 3 243 -5 251 -5 c 0
 261 -5 271 4 288 23 c 2
 363 106 l 2
 377 123 385 132 391 132 c 0
 398 132 404 123 417 103 c 2
 471 17 l 2
 482 1 488 -8 496 -8 c 0
 504 -8 515 2 534 23 c 2
 608 106 l 2
 623 122 630 132 636 132 c 0
 643 132 649 123 662 103 c 2
 716 17 l 2
 727 1 733 -8 741 -8 c 0
 749 -8 759 2 778 22 c 2
 798 44 l 2
 803 50 807 53 810 53 c 0
 816 53 826 36 826 28 c 0
 826 23 823 17 816 9 c 2
 720 -98 l 2
 702 -118 693 -130 685 -130 c 0
 677 -130 670 -119 655 -96 c 2
 607 -21 l 2
 595 -2 588 8 580 8 c 0
 572 8 563 -0 547 -18 c 2
 475 -98 l 2
 457 -118 448 -130 440 -130 c 0
 432 -130 425 -119 410 -96 c 2
 362 -21 l 2
 350 -2 343 8 335 8 c 0
 327 8 318 -0 302 -18 c 2
 225 -104 l 2
 209 -122 202 -131 195 -131 c 0
 187 -131 181 -121 168 -100 c 2
 115 -18 l 2
 104 -1 98 8 90 8 c 0
 82 8 73 -0 58 -17 c 2
EndSplineSet
Fore
SplineSet
126 0 m 2
 222 107 l 2
 236 123 244 131 250 131 c 0
 258 131 264 120 278 98 c 2
 327 20 l 2
 338 3 346 -5 354 -5 c 0
 364 -5 374 4 391 23 c 2
 466 106 l 2
 480 123 488 132 494 132 c 0
 501 132 507 123 520 103 c 2
 574 17 l 2
 585 1 591 -8 599 -8 c 0
 607 -8 618 2 637 23 c 2
 711 106 l 2
 726 122 733 132 739 132 c 0
 746 132 752 123 765 103 c 2
 819 17 l 2
 830 1 836 -8 844 -8 c 0
 852 -8 862 2 881 22 c 2
 901 44 l 2
 906 50 910 53 913 53 c 0
 919 53 929 36 929 28 c 0
 929 23 926 17 919 9 c 2
 823 -98 l 2
 805 -118 796 -130 788 -130 c 0
 780 -130 773 -119 758 -96 c 2
 710 -21 l 2
 698 -2 691 8 683 8 c 0
 675 8 666 0 650 -18 c 2
 578 -98 l 2
 560 -118 551 -130 543 -130 c 0
 535 -130 528 -119 513 -96 c 2
 465 -21 l 2
 453 -2 446 8 438 8 c 0
 430 8 421 0 405 -18 c 2
 328 -104 l 2
 312 -122 305 -131 298 -131 c 0
 290 -131 284 -121 271 -100 c 2
 218 -18 l 2
 207 -1 201 8 193 8 c 0
 185 8 176 0 161 -17 c 2
 122 -60 l 2
 103 -81 100 -81 82 -56 c 0
 31 11 0 96 0 176 c 0
 0 256 31 340 88 414 c 0
 94 421 100 429 106 429 c 0
 112 429 118 410 118 401 c 0
 118 398 118 395 114 390 c 0
 65 321 36 250 36 177 c 0
 36 121 52 57 89 0 c 0
 101 -19 110 -17 126 0 c 2
EndSplineSet
EndChar

StartChar: j
Encoding: 106 106 64
Width: 1174
Flags: HW
LayerCount: 2
Back
SplineSet
58 -17 m 2
 19 -60 l 2
 11 -68 5 -72 -0 -72 c 0
 -12 -72 -21 -57 -32 -41 c 0
 -79 28 -103 101 -103 176 c 0
 -103 256 -72 340 -15 414 c 0
 -9 421 -3 427 3 427 c 0
 12 427 14 416 14 407 c 0
 14 401 10 395 5 388 c 0
 -44 319 -71 250 -71 177 c 0
 -71 121 -58 63 -22 5 c 0
 -10 -15 -6 -15 0 -15 c 0
 7 -15 20 -3 24 2 c 2
 119 107 l 2
 133 123 141 131 147 131 c 0
 155 131 161 120 175 98 c 2
 224 20 l 2
 235 3 243 -5 251 -5 c 0
 261 -5 271 4 288 23 c 2
 363 106 l 2
 377 123 385 132 391 132 c 0
 398 132 404 123 417 103 c 2
 471 17 l 2
 482 1 488 -8 496 -8 c 0
 504 -8 515 2 534 23 c 2
 608 106 l 2
 623 122 630 132 636 132 c 0
 643 132 649 123 662 103 c 2
 716 17 l 2
 727 1 733 -8 741 -8 c 0
 749 -8 760 1 779 23 c 2
 853 106 l 2
 868 122 875 132 881 132 c 0
 888 132 894 123 907 103 c 2
 961 17 l 2
 972 1 978 -8 986 -8 c 0
 994 -8 1004 2 1023 22 c 2
 1043 44 l 2
 1048 50 1052 53 1055 53 c 0
 1061 53 1071 36 1071 28 c 0
 1071 23 1068 17 1061 9 c 2
 965 -98 l 2
 947 -118 938 -130 930 -130 c 0
 922 -130 915 -119 900 -96 c 2
 852 -21 l 2
 840 -2 833 8 825 8 c 0
 817 8 808 -1 792 -18 c 2
 720 -98 l 2
 702 -118 693 -130 685 -130 c 0
 677 -130 670 -119 655 -96 c 2
 607 -21 l 2
 595 -2 588 8 580 8 c 0
 572 8 563 -0 547 -18 c 2
 475 -98 l 2
 457 -118 448 -130 440 -130 c 0
 432 -130 425 -119 410 -96 c 2
 362 -21 l 2
 350 -2 343 8 335 8 c 0
 327 8 318 -0 302 -18 c 2
 225 -104 l 2
 209 -122 202 -131 195 -131 c 0
 187 -131 181 -121 168 -100 c 2
 115 -18 l 2
 104 -1 98 8 90 8 c 0
 82 8 73 -0 58 -17 c 2
EndSplineSet
Fore
SplineSet
126 0 m 2
 222 107 l 2
 236 123 244 131 250 131 c 0
 258 131 264 120 278 98 c 2
 327 20 l 2
 338 3 346 -5 354 -5 c 0
 364 -5 374 4 391 23 c 2
 466 106 l 2
 480 123 488 132 494 132 c 0
 501 132 507 123 520 103 c 2
 574 17 l 2
 585 1 591 -8 599 -8 c 0
 607 -8 618 2 637 23 c 2
 711 106 l 2
 726 122 733 132 739 132 c 0
 746 132 752 123 765 103 c 2
 819 17 l 2
 830 1 836 -8 844 -8 c 0
 852 -8 863 1 882 23 c 2
 956 106 l 2
 971 122 978 132 984 132 c 0
 991 132 997 123 1010 103 c 2
 1064 17 l 2
 1075 1 1081 -8 1089 -8 c 0
 1097 -8 1107 2 1126 22 c 2
 1146 44 l 2
 1151 50 1155 53 1158 53 c 0
 1164 53 1174 36 1174 28 c 0
 1174 23 1171 17 1164 9 c 2
 1068 -98 l 2
 1050 -118 1041 -130 1033 -130 c 0
 1025 -130 1018 -119 1003 -96 c 2
 955 -21 l 2
 943 -2 936 8 928 8 c 0
 920 8 911 -1 895 -18 c 2
 823 -98 l 2
 805 -118 796 -130 788 -130 c 0
 780 -130 773 -119 758 -96 c 2
 710 -21 l 2
 698 -2 691 8 683 8 c 0
 675 8 666 0 650 -18 c 2
 578 -98 l 2
 560 -118 551 -130 543 -130 c 0
 535 -130 528 -119 513 -96 c 2
 465 -21 l 2
 453 -2 446 8 438 8 c 0
 430 8 421 0 405 -18 c 2
 328 -104 l 2
 312 -122 305 -131 298 -131 c 0
 290 -131 284 -121 271 -100 c 2
 218 -18 l 2
 207 -1 201 8 193 8 c 0
 185 8 176 0 161 -17 c 2
 122 -60 l 2
 103 -81 100 -81 82 -56 c 0
 31 11 0 96 0 176 c 0
 0 256 31 340 88 414 c 0
 94 421 100 429 106 429 c 0
 112 429 118 410 118 401 c 0
 118 398 118 395 114 390 c 0
 65 321 36 250 36 177 c 0
 36 121 52 57 89 0 c 0
 101 -19 110 -17 126 0 c 2
EndSplineSet
EndChar

StartChar: k
Encoding: 107 107 65
Width: 1419
Flags: HW
LayerCount: 2
Back
SplineSet
58 -17 m 2
 19 -60 l 2
 11 -68 5 -72 -0 -72 c 0
 -12 -72 -21 -57 -32 -41 c 0
 -79 28 -103 101 -103 176 c 0
 -103 256 -72 340 -15 414 c 0
 -9 421 -3 427 3 427 c 0
 12 427 14 416 14 407 c 0
 14 401 10 395 5 388 c 0
 -44 319 -71 250 -71 177 c 0
 -71 121 -58 63 -22 5 c 0
 -10 -15 -6 -15 0 -15 c 0
 7 -15 18 -6 23 0 c 2
 119 107 l 2
 133 123 141 131 147 131 c 0
 155 131 161 120 175 98 c 2
 224 20 l 2
 235 3 243 -5 251 -5 c 0
 261 -5 271 4 288 23 c 2
 363 106 l 2
 377 123 385 132 391 132 c 0
 398 132 404 123 417 103 c 2
 471 17 l 2
 482 1 488 -8 496 -8 c 0
 504 -8 515 2 534 23 c 2
 608 106 l 2
 623 122 630 132 636 132 c 0
 643 132 649 123 662 103 c 2
 716 17 l 2
 727 1 733 -8 741 -8 c 0
 749 -8 760 1 779 23 c 2
 853 106 l 2
 868 122 875 132 881 132 c 0
 888 132 894 123 907 103 c 2
 961 17 l 2
 972 1 978 -8 986 -8 c 0
 994 -8 1005 1 1023 22 c 2
 1098 106 l 2
 1113 122 1120 132 1126 132 c 0
 1133 132 1139 123 1152 103 c 2
 1206 17 l 2
 1217 1 1223 -8 1231 -8 c 0
 1239 -8 1249 2 1268 22 c 2
 1288 44 l 2
 1293 50 1297 53 1300 53 c 0
 1306 53 1316 36 1316 28 c 0
 1316 23 1313 17 1306 9 c 2
 1210 -98 l 2
 1192 -118 1183 -130 1175 -130 c 0
 1167 -130 1160 -119 1145 -96 c 2
 1097 -21 l 2
 1085 -2 1078 8 1070 8 c 0
 1062 8 1052 -1 1037 -18 c 2
 965 -98 l 2
 947 -118 938 -130 930 -130 c 0
 922 -130 915 -119 900 -96 c 2
 852 -21 l 2
 840 -2 833 8 825 8 c 0
 817 8 808 -1 792 -18 c 2
 720 -98 l 2
 702 -118 693 -130 685 -130 c 0
 677 -130 670 -119 655 -96 c 2
 607 -21 l 2
 595 -2 588 8 580 8 c 0
 572 8 563 -0 547 -18 c 2
 475 -98 l 2
 457 -118 448 -130 440 -130 c 0
 432 -130 425 -119 410 -96 c 2
 362 -21 l 2
 350 -2 343 8 335 8 c 0
 327 8 318 -0 302 -18 c 2
 225 -104 l 2
 209 -122 202 -131 195 -131 c 0
 187 -131 181 -121 168 -100 c 2
 115 -18 l 2
 104 -1 98 8 90 8 c 0
 82 8 73 -0 58 -17 c 2
EndSplineSet
Fore
SplineSet
126 0 m 2
 222 107 l 2
 236 123 244 131 250 131 c 0
 258 131 264 120 278 98 c 2
 327 20 l 2
 338 3 346 -5 354 -5 c 0
 364 -5 374 4 391 23 c 2
 466 106 l 2
 480 123 488 132 494 132 c 0
 501 132 507 123 520 103 c 2
 574 17 l 2
 585 1 591 -8 599 -8 c 0
 607 -8 618 2 637 23 c 2
 711 106 l 2
 726 122 733 132 739 132 c 0
 746 132 752 123 765 103 c 2
 819 17 l 2
 830 1 836 -8 844 -8 c 0
 852 -8 863 1 882 23 c 2
 956 106 l 2
 971 122 978 132 984 132 c 0
 991 132 997 123 1010 103 c 2
 1064 17 l 2
 1075 1 1081 -8 1089 -8 c 0
 1097 -8 1108 1 1126 22 c 2
 1201 106 l 2
 1216 122 1223 132 1229 132 c 0
 1236 132 1242 123 1255 103 c 2
 1309 17 l 2
 1320 1 1326 -8 1334 -8 c 0
 1342 -8 1352 2 1371 22 c 2
 1391 44 l 2
 1396 50 1400 53 1403 53 c 0
 1409 53 1419 36 1419 28 c 0
 1419 23 1416 17 1409 9 c 2
 1313 -98 l 2
 1295 -118 1286 -130 1278 -130 c 0
 1270 -130 1263 -119 1248 -96 c 2
 1200 -21 l 2
 1188 -2 1181 8 1173 8 c 0
 1165 8 1155 -1 1140 -18 c 2
 1068 -98 l 2
 1050 -118 1041 -130 1033 -130 c 0
 1025 -130 1018 -119 1003 -96 c 2
 955 -21 l 2
 943 -2 936 8 928 8 c 0
 920 8 911 -1 895 -18 c 2
 823 -98 l 2
 805 -118 796 -130 788 -130 c 0
 780 -130 773 -119 758 -96 c 2
 710 -21 l 2
 698 -2 691 8 683 8 c 0
 675 8 666 0 650 -18 c 2
 578 -98 l 2
 560 -118 551 -130 543 -130 c 0
 535 -130 528 -119 513 -96 c 2
 465 -21 l 2
 453 -2 446 8 438 8 c 0
 430 8 421 0 405 -18 c 2
 328 -104 l 2
 312 -122 305 -131 298 -131 c 0
 290 -131 284 -121 271 -100 c 2
 218 -18 l 2
 207 -1 201 8 193 8 c 0
 185 8 176 0 161 -17 c 2
 122 -60 l 2
 103 -81 100 -81 82 -56 c 0
 31 11 0 96 0 176 c 0
 0 256 31 340 88 414 c 0
 94 421 100 429 106 429 c 0
 112 429 118 410 118 401 c 0
 118 398 118 395 114 390 c 0
 65 321 36 250 36 177 c 0
 36 121 52 57 89 0 c 0
 101 -19 110 -17 126 0 c 2
EndSplineSet
EndChar

StartChar: o
Encoding: 111 111 66
Width: 1630
Flags: W
HStem: -120 38<116.965 256.908> 111 21G<458 465 702 708.5 947 953.5 1192 1198.5 1437 1443.5> 111 21G<458 465 702 708.5 947 953.5 1192 1198.5 1437 1443.5>
VStem: 0 55<-24.6858 24.8926>
LayerCount: 2
Fore
SplineSet
373 40 m 2xd0
 433 107 l 2
 447 123 455 131 461 131 c 0
 469 131 475 120 489 98 c 2
 538 20 l 2
 549 3 557 -5 565 -5 c 0
 575 -5 585 4 602 23 c 2
 677 106 l 2
 691 123 699 132 705 132 c 0
 712 132 718 123 731 103 c 2
 785 17 l 2
 796 1 802 -8 810 -8 c 0
 818 -8 829 2 848 23 c 2
 922 106 l 2
 937 122 944 132 950 132 c 0
 957 132 963 123 976 103 c 2
 1030 17 l 2
 1041 1 1047 -8 1055 -8 c 0
 1063 -8 1074 1 1093 23 c 2
 1167 106 l 2
 1182 122 1189 132 1195 132 c 0
 1202 132 1208 123 1221 103 c 2
 1275 17 l 2
 1286 1 1292 -8 1300 -8 c 0
 1308 -8 1319 1 1337 22 c 2
 1412 106 l 2
 1427 122 1434 132 1440 132 c 0
 1447 132 1453 123 1466 103 c 2
 1520 17 l 2
 1531 1 1537 -8 1545 -8 c 0
 1553 -8 1563 2 1582 22 c 2
 1602 44 l 2
 1607 50 1611 53 1614 53 c 0
 1620 53 1630 36 1630 28 c 0
 1630 23 1627 17 1620 9 c 2
 1524 -98 l 2
 1506 -118 1497 -130 1489 -130 c 0
 1481 -130 1474 -119 1459 -96 c 2
 1411 -21 l 2
 1399 -2 1392 8 1384 8 c 0
 1376 8 1366 -1 1351 -18 c 2
 1279 -98 l 2
 1261 -118 1252 -130 1244 -130 c 0
 1236 -130 1229 -119 1214 -96 c 2
 1166 -21 l 2
 1154 -2 1147 8 1139 8 c 0
 1131 8 1122 -1 1106 -18 c 2
 1034 -98 l 2
 1016 -118 1007 -130 999 -130 c 0
 991 -130 984 -119 969 -96 c 2
 921 -21 l 2
 909 -2 902 8 894 8 c 0
 886 8 877 0 861 -18 c 2
 789 -98 l 2
 771 -118 762 -130 754 -130 c 0
 746 -130 739 -119 724 -96 c 2
 676 -21 l 2
 664 -2 657 8 649 8 c 0
 641 8 632 0 616 -18 c 2
 539 -104 l 2
 523 -122 516 -131 509 -131 c 0
 501 -131 495 -121 482 -100 c 2
 429 -18 l 2
 418 -1 412 8 404 8 c 0
 396 8 387 0 372 -17 c 0
 334 -58 273 -120 184 -120 c 0
 89 -120 23 -48 4 3 c 0
 2 8 0 12 0 15 c 0
 0 24 27 26 39 26 c 0
 47 26 52 24 55 16 c 0
 75 -35 113 -82 186 -82 c 0
 253 -82 299 -43 373 40 c 2xd0
EndSplineSet
EndChar

StartChar: r
Encoding: 114 114 67
Width: 1174
Flags: HW
HStem: -210 21G<874.5 900> 111 20G<247 254 491 497.5 737 744 874 899.5 981 987.5> 112 20G<491 497.5 981 987.5> 190 20G<874 899.5>
VStem: 869 36<-210 -71.2559 -3.73306 7.05078 73.2633 210>
LayerCount: 2
Back
SplineSet
58 -17 m 6
 19 -60 l 6
 11 -68 5 -72 -0 -72 c 4
 -12 -72 -21 -57 -32 -41 c 4
 -79 28 -103 101 -103 176 c 4
 -103 256 -72 340 -15 414 c 4
 -9 421 -3 427 3 427 c 4
 12 427 14 416 14 407 c 4
 14 401 10 395 5 388 c 4
 -44 319 -71 250 -71 177 c 4
 -71 121 -58 63 -22 5 c 4
 -10 -15 -6 -15 0 -15 c 4
 7 -15 19 -5 23 0 c 6
 119 107 l 6
 133 123 141 131 147 131 c 4
 155 131 161 120 175 98 c 6
 224 20 l 6
 235 3 243 -5 251 -5 c 4
 261 -5 270 3 288 23 c 6
 364 107 l 6
 378 123 386 131 392 131 c 4
 400 131 406 120 420 98 c 6
 469 20 l 6
 480 3 488 -5 496 -5 c 4
 506 -5 516 4 533 23 c 6
 609 107 l 6
 623 123 631 131 637 131 c 4
 645 131 651 120 665 98 c 6
 714 20 l 6
 725 3 733 -5 741 -5 c 4
 760 -5 767 24 767 55 c 4
 767 100 766 128 766 183 c 4
 766 202 770 200 788 200 c 4
 799 200 801 199 801 181 c 6
 801 89 l 6
 801 74 803 64 808 64 c 4
 813 64 820 69 828 78 c 6
 853 106 l 6
 867 123 875 132 881 132 c 4
 888 132 894 123 907 103 c 6
 961 17 l 6
 972 1 978 -8 986 -8 c 4
 994 -8 1004 2 1023 22 c 6
 1043 44 l 6
 1048 50 1052 53 1055 53 c 4
 1061 53 1071 36 1071 28 c 4
 1071 23 1068 17 1061 9 c 6
 965 -98 l 6
 947 -118 938 -130 930 -130 c 4
 922 -130 915 -119 900 -96 c 6
 852 -21 l 6
 840 -2 833 8 825 8 c 4
 807 8 800 -18 800 -47 c 4
 800 -97 801 -140 801 -182 c 4
 801 -197 798 -200 785 -200 c 4
 769 -200 766 -200 766 -183 c 6
 766 -94 l 6
 767 -77 763 -66 756 -66 c 4
 751 -66 745 -70 738 -78 c 6
 715 -104 l 6
 699 -122 692 -131 685 -131 c 4
 677 -131 671 -121 658 -100 c 6
 605 -18 l 6
 594 -1 588 8 580 8 c 4
 572 8 562 -2 547 -18 c 6
 470 -104 l 6
 454 -122 447 -131 440 -131 c 4
 432 -131 426 -121 413 -100 c 6
 360 -18 l 6
 349 -1 343 8 335 8 c 4
 327 8 317 -1 302 -18 c 6
 225 -104 l 6
 209 -122 202 -131 195 -131 c 4
 187 -131 181 -121 168 -100 c 6
 115 -18 l 6
 104 -1 98 8 90 8 c 4
 82 8 73 -0 58 -17 c 6
EndSplineSet
Fore
SplineSet
126 0 m 2
 222 107 l 2
 236 123 244 131 250 131 c 0xd8
 258 131 264 120 278 98 c 2
 327 20 l 2
 338 3 346 -5 354 -5 c 0
 364 -5 374 4 391 23 c 2
 466 106 l 1
 480 123 488 132 494 132 c 0xb8
 501 132 507 123 520 103 c 2
 574 17 l 2
 585 1 591 -8 599 -8 c 0
 607 -8 616 1 635 22 c 2
 712 107 l 2
 726 123 734 131 740 131 c 0xd8
 748 131 754 120 768 98 c 2
 817 20 l 2
 828 3 836 -5 844 -5 c 0
 848 -5 852 -4 856 -1 c 0
 867 6 869 10 869 29 c 2
 869 200 l 2
 869 210 870 210 878 210 c 2
 895 210 l 2
 904 210 905 210 905 200 c 2
 905 85 l 2
 905 67 914 59 930 77 c 2
 956 106 l 2
 970 123 978 132 984 132 c 0
 991 132 997 123 1010 103 c 2
 1064 17 l 2
 1075 1 1081 -8 1089 -8 c 0
 1097 -8 1107 2 1126 22 c 2
 1146 44 l 2
 1151 50 1155 53 1158 53 c 0
 1164 53 1174 36 1174 28 c 0
 1174 23 1171 17 1164 9 c 2
 1068 -98 l 2
 1050 -118 1041 -130 1033 -130 c 0
 1025 -130 1018 -119 1003 -96 c 2
 955 -21 l 2
 943 -2 936 8 928 8 c 0
 925 8 922 7 919 5 c 0
 909 -2 905 -6 905 -25 c 2
 905 -200 l 2
 905 -210 904 -210 896 -210 c 2
 879 -210 l 2
 870 -210 869 -210 869 -200 c 2
 869 -90 l 2
 869 -60 860 -57 841 -78 c 2
 818 -104 l 2
 802 -122 795 -131 788 -131 c 0
 780 -131 774 -121 761 -100 c 2
 708 -18 l 2
 697 -1 691 8 683 8 c 0
 675 8 665 -1 651 -17 c 2
 578 -98 l 2
 560 -118 551 -130 543 -130 c 0
 535 -130 528 -119 513 -96 c 2
 465 -21 l 2
 453 -2 446 8 438 8 c 0
 430 8 421 0 405 -18 c 2
 328 -104 l 2
 312 -122 305 -131 298 -131 c 0
 290 -131 284 -121 271 -100 c 2
 218 -18 l 2
 207 -1 201 8 193 8 c 0
 185 8 176 0 161 -17 c 2
 122 -60 l 2
 103 -81 100 -81 82 -56 c 0
 31 11 0 96 0 176 c 0
 0 256 31 340 88 414 c 0
 94 421 100 429 106 429 c 0
 112 429 118 410 118 401 c 0
 118 398 118 395 114 390 c 0
 65 321 36 250 36 177 c 0
 36 121 52 57 89 0 c 0
 101 -19 110 -17 126 0 c 2
EndSplineSet
EndChar

StartChar: s
Encoding: 115 115 68
Width: 1419
Flags: HW
HStem: -200 21G<384.5 410> -200 21G<384.5 410> 180 20G<384 409.5> 180 20G<384 409.5>
VStem: 379 36<-200 200>
LayerCount: 2
Back
SplineSet
58 -17 m 2x9dc0
 19 -60 l 2
 11 -68 5 -72 -0 -72 c 0
 -12 -72 -21 -57 -32 -41 c 0
 -79 28 -103 101 -103 176 c 0
 -103 256 -72 340 -15 414 c 0
 -9 421 -3 427 3 427 c 0
 12 427 14 416 14 407 c 0
 14 401 10 395 5 388 c 0
 -44 319 -71 250 -71 177 c 0
 -71 121 -58 63 -22 5 c 0
 -10 -15 -6 -15 0 -15 c 0x2ac0
 7 -15 19 -5 23 -0 c 2
 119 107 l 2
 133 123 141 131 147 131 c 0
 155 131 161 120 175 98 c 2
 224 20 l 2
 235 3 243 -5 251 -5 c 0
 261 -5 271 4 288 23 c 2
 364 107 l 2
 378 123 386 131 392 131 c 0
 400 131 406 120 420 98 c 2
 469 20 l 2
 480 3 488 -5 496 -5 c 0
 506 -5 515 3 533 23 c 2
 609 107 l 2
 623 123 631 131 637 131 c 0
 645 131 651 120 665 98 c 2
 714 20 l 2
 725 3 733 -5 741 -5 c 0
 751 -5 761 4 778 23 c 2
 854 107 l 2
 868 123 876 131 882 131 c 0x1ac0
 890 131 896 120 910 98 c 2
 959 20 l 2
 970 3 978 -5 986 -5 c 0
 1005 -5 1012 24 1012 55 c 0
 1012 100 1011 128 1011 183 c 0
 1011 202 1015 200 1033 200 c 0
 1044 200 1046 199 1046 181 c 2
 1046 89 l 2
 1046 74 1048 64 1053 64 c 0
 1058 64 1065 69 1073 78 c 2
 1098 106 l 2
 1112 123 1120 132 1126 132 c 0
 1133 132 1139 123 1152 103 c 2
 1206 17 l 2
 1217 1 1223 -8 1231 -8 c 0
 1239 -8 1249 2 1268 22 c 2
 1288 44 l 2
 1293 50 1297 53 1300 53 c 0
 1306 53 1316 36 1316 28 c 0
 1316 23 1313 17 1306 9 c 2
 1210 -98 l 2
 1192 -118 1183 -130 1175 -130 c 0
 1167 -130 1160 -119 1145 -96 c 2
 1097 -21 l 2
 1085 -2 1078 8 1070 8 c 0
 1052 8 1045 -18 1045 -47 c 0
 1045 -97 1046 -140 1046 -182 c 0
 1046 -197 1043 -200 1030 -200 c 0
 1014 -200 1011 -200 1011 -183 c 2
 1011 -94 l 2
 1012 -77 1008 -66 1001 -66 c 0
 996 -66 990 -70 983 -78 c 2
 960 -104 l 2
 944 -122 937 -131 930 -131 c 0
 922 -131 916 -121 903 -100 c 2
 850 -18 l 2
 839 -1 833 8 825 8 c 0
 817 8 807 -2 792 -18 c 2
 715 -104 l 2
 699 -122 692 -131 685 -131 c 0
 677 -131 671 -121 658 -100 c 2
 605 -18 l 2
 594 -1 588 8 580 8 c 0
 572 8 562 -1 547 -18 c 2
 470 -104 l 2
 454 -122 447 -131 440 -131 c 0
 432 -131 426 -121 413 -100 c 2
 360 -18 l 2
 349 -1 343 8 335 8 c 0
 327 8 317 -1 302 -18 c 2
 225 -104 l 2
 209 -122 202 -131 195 -131 c 0
 187 -131 181 -121 168 -100 c 2
 115 -18 l 2
 104 -1 98 8 90 8 c 0
 82 8 73 -0 58 -17 c 2x9dc0
EndSplineSet
Fore
SplineSet
126 0 m 2
 222 107 l 2
 236 123 244 131 250 131 c 0
 258 131 264 120 278 98 c 2
 327 20 l 2
 338 3 346 -5 354 -5 c 0
 364 -5 374 4 391 23 c 2
 466 106 l 1
 480 123 488 132 494 132 c 0
 501 132 507 123 520 103 c 2
 574 17 l 2
 585 1 591 -8 599 -8 c 0
 607 -8 618 2 637 23 c 2x58
 711 106 l 2
 726 122 733 132 739 132 c 0
 746 132 752 123 765 103 c 2
 819 17 l 2
 830 1 836 -8 844 -8 c 0
 852 -8 861 1 880 22 c 2
 957 107 l 2
 971 123 979 131 985 131 c 0
 993 131 999 120 1013 98 c 2
 1062 20 l 2
 1073 3 1081 -5 1089 -5 c 0
 1093 -5 1097 -4 1101 -1 c 0
 1112 6 1114 10 1114 29 c 2
 1114 200 l 2
 1114 210 1115 210 1123 210 c 2
 1140 210 l 2
 1149 210 1150 210 1150 200 c 2
 1150 85 l 2
 1150 67 1159 59 1175 77 c 2
 1201 106 l 2
 1215 123 1223 132 1229 132 c 0
 1236 132 1242 123 1255 103 c 2
 1309 17 l 2
 1320 1 1326 -8 1334 -8 c 0
 1342 -8 1352 2 1371 22 c 2
 1391 44 l 2
 1396 50 1400 53 1403 53 c 0
 1409 53 1419 36 1419 28 c 0
 1419 23 1416 17 1409 9 c 2
 1313 -98 l 2
 1295 -118 1286 -130 1278 -130 c 0
 1270 -130 1263 -119 1248 -96 c 2
 1200 -21 l 2
 1188 -2 1181 8 1173 8 c 0
 1170 8 1167 7 1164 5 c 0
 1154 -2 1150 -6 1150 -25 c 2
 1150 -200 l 2
 1150 -210 1149 -210 1141 -210 c 2
 1124 -210 l 2
 1115 -210 1114 -210 1114 -200 c 2
 1114 -90 l 2
 1114 -60 1105 -57 1086 -78 c 2
 1063 -104 l 2
 1047 -122 1040 -131 1033 -131 c 0
 1025 -131 1019 -121 1006 -100 c 2
 953 -18 l 2
 942 -1 936 8 928 8 c 0
 920 8 911 0 896 -17 c 2
 823 -98 l 2
 805 -118 796 -130 788 -130 c 0
 780 -130 773 -119 758 -96 c 2
 710 -21 l 2
 698 -2 691 8 683 8 c 0
 675 8 666 0 650 -18 c 2
 578 -98 l 2
 560 -118 551 -130 543 -130 c 0
 535 -130 528 -119 513 -96 c 2
 465 -21 l 2
 453 -2 446 8 438 8 c 0
 430 8 421 0 405 -18 c 2
 328 -104 l 2
 312 -122 305 -131 298 -131 c 0
 290 -131 284 -121 271 -100 c 2
 218 -18 l 2
 207 -1 201 8 193 8 c 0
 185 8 176 0 161 -17 c 2
 122 -60 l 2
 103 -81 100 -81 82 -56 c 0
 31 11 0 96 0 176 c 0
 0 256 31 340 88 414 c 0
 94 421 100 429 106 429 c 0
 112 429 118 410 118 401 c 0
 118 398 118 395 114 390 c 0
 65 321 36 250 36 177 c 0
 36 121 52 57 89 0 c 0
 101 -19 110 -17 126 0 c 2
EndSplineSet
EndChar

StartChar: t
Encoding: 116 116 69
Width: 895
Flags: HW
HStem: -200 21G<281.5 307> -200 21G<281.5 307> 180 20G<281 306.5> 180 20G<281 306.5>
VStem: 276 36<-200 200>
LayerCount: 2
Fore
SplineSet
59 40 m 2
 119 107 l 2
 133 123 141 131 147 131 c 0
 155 131 161 120 175 98 c 2
 224 20 l 2
 235 3 243 -5 251 -5 c 0
 255 -5 259 -4 263 -1 c 0
 274 6 276 10 276 29 c 2
 276 200 l 2
 276 210 277 210 285 210 c 2
 302 210 l 2
 311 210 312 210 312 200 c 2
 312 85 l 2
 312 67 321 59 337 77 c 2
 363 106 l 2
 377 123 385 132 391 132 c 0
 398 132 404 123 417 103 c 2
 471 17 l 2
 482 1 488 -8 496 -8 c 0
 504 -8 514 2 533 22 c 2
 553 44 l 2
 558 50 562 53 565 53 c 0
 571 53 581 36 581 28 c 0
 581 23 578 17 571 9 c 2
 475 -98 l 2
 457 -118 448 -130 440 -130 c 0
 432 -130 425 -119 410 -96 c 2
 362 -21 l 2
 350 -2 343 8 335 8 c 0
 332 8 329 7 326 5 c 0
 316 -2 312 -6 312 -25 c 2
 312 -200 l 2
 312 -210 311 -210 303 -210 c 2
 286 -210 l 2
 277 -210 276 -210 276 -200 c 2
 276 -90 l 2
 276 -60 267 -57 248 -78 c 2
 225 -104 l 2
 209 -122 202 -131 195 -131 c 0
 187 -131 181 -121 168 -100 c 2
 115 -18 l 2
 104 -1 98 8 90 8 c 0
 82 8 73 -0 58 -17 c 0
 20 -58 -41 -120 -130 -120 c 0
 -225 -120 -291 -48 -310 3 c 0
 -312 8 -314 12 -314 15 c 0
 -314 24 -287 26 -275 26 c 0
 -267 26 -262 24 -259 16 c 0
 -239 -35 -201 -82 -128 -82 c 0
 -61 -82 -15 -43 59 40 c 2
EndSplineSet
EndChar

StartChar: v
Encoding: 118 118 70
Width: 895
Flags: HW
HStem: -210 21G<771.5 797> 111 20G<144 151 388 394.5 634 641 771 796.5 878 884.5> 112 20G<388 394.5 878 884.5> 190 20G<771 796.5>
VStem: 766 36<-210 -71.2559 -3.73306 7.05078 73.2633 210>
LayerCount: 2
Fore
SplineSet
59 40 m 2
 119 107 l 2
 133 123 141 131 147 131 c 0xd8
 155 131 161 120 175 98 c 2
 224 20 l 2
 235 3 243 -5 251 -5 c 0
 261 -5 271 4 288 23 c 2
 363 106 l 1
 377 123 385 132 391 132 c 0xb8
 398 132 404 123 417 103 c 2
 471 17 l 2
 482 1 488 -8 496 -8 c 0
 504 -8 513 1 532 22 c 2
 609 107 l 2
 623 123 631 131 637 131 c 0xd8
 645 131 651 120 665 98 c 2
 714 20 l 2
 725 3 733 -5 741 -5 c 0
 745 -5 749 -4 753 -1 c 0
 764 6 766 10 766 29 c 2
 766 200 l 2
 766 210 767 210 775 210 c 2
 792 210 l 2
 801 210 802 210 802 200 c 2
 802 85 l 2
 802 67 811 59 827 77 c 2
 853 106 l 2
 867 123 875 132 881 132 c 0
 888 132 894 123 907 103 c 2
 961 17 l 2
 972 1 978 -8 986 -8 c 0
 994 -8 1004 2 1023 22 c 2
 1043 44 l 2
 1048 50 1052 53 1055 53 c 0
 1061 53 1071 36 1071 28 c 0
 1071 23 1068 17 1061 9 c 2
 965 -98 l 2
 947 -118 938 -130 930 -130 c 0
 922 -130 915 -119 900 -96 c 2
 852 -21 l 2
 840 -2 833 8 825 8 c 0
 822 8 819 7 816 5 c 0
 806 -2 802 -6 802 -25 c 2
 802 -200 l 2
 802 -210 801 -210 793 -210 c 2
 776 -210 l 2
 767 -210 766 -210 766 -200 c 2
 766 -90 l 2
 766 -60 757 -57 738 -78 c 2
 715 -104 l 2
 699 -122 692 -131 685 -131 c 0
 677 -131 671 -121 658 -100 c 2
 605 -18 l 2
 594 -1 588 8 580 8 c 0
 572 8 562 -1 548 -17 c 2
 475 -98 l 2
 457 -118 448 -130 440 -130 c 0
 432 -130 425 -119 410 -96 c 2
 362 -21 l 2
 350 -2 343 8 335 8 c 0
 327 8 318 -0 302 -18 c 2
 225 -104 l 2
 209 -122 202 -131 195 -131 c 0
 187 -131 181 -121 168 -100 c 2
 115 -18 l 2
 104 -1 98 8 90 8 c 0
 82 8 73 -0 58 -17 c 0
 20 -58 -41 -120 -130 -120 c 0
 -225 -120 -291 -48 -310 3 c 0
 -312 8 -314 12 -314 15 c 0
 -314 24 -287 26 -275 26 c 0
 -267 26 -262 24 -259 16 c 0
 -239 -35 -201 -82 -128 -82 c 0
 -61 -82 -15 -43 59 40 c 2
EndSplineSet
EndChar

StartChar: w
Encoding: 119 119 71
Width: 895
Flags: HW
HStem: -200 21G<281.5 307> -200 21G<281.5 307> 180 20G<281 306.5> 180 20G<281 306.5>
VStem: 276 36<-200 200>
LayerCount: 2
Fore
SplineSet
59 40 m 2
 119 107 l 2
 133 123 141 131 147 131 c 0
 155 131 161 120 175 98 c 2
 224 20 l 2
 235 3 243 -5 251 -5 c 0
 261 -5 271 4 288 23 c 2
 363 106 l 1
 377 123 385 132 391 132 c 0
 398 132 404 123 417 103 c 2
 471 17 l 2
 482 1 488 -8 496 -8 c 0
 504 -8 515 2 534 23 c 2x58
 608 106 l 2
 623 122 630 132 636 132 c 0
 643 132 649 123 662 103 c 2
 716 17 l 2
 727 1 733 -8 741 -8 c 0
 749 -8 758 1 777 22 c 2
 854 107 l 2
 868 123 876 131 882 131 c 0
 890 131 896 120 910 98 c 2
 959 20 l 2
 970 3 978 -5 986 -5 c 0
 990 -5 994 -4 998 -1 c 0
 1009 6 1011 10 1011 29 c 2
 1011 200 l 2
 1011 210 1012 210 1020 210 c 2
 1037 210 l 2
 1046 210 1047 210 1047 200 c 2
 1047 85 l 2
 1047 67 1056 59 1072 77 c 2
 1098 106 l 2
 1112 123 1120 132 1126 132 c 0
 1133 132 1139 123 1152 103 c 2
 1206 17 l 2
 1217 1 1223 -8 1231 -8 c 0
 1239 -8 1249 2 1268 22 c 2
 1288 44 l 2
 1293 50 1297 53 1300 53 c 0
 1306 53 1316 36 1316 28 c 0
 1316 23 1313 17 1306 9 c 2
 1210 -98 l 2
 1192 -118 1183 -130 1175 -130 c 0
 1167 -130 1160 -119 1145 -96 c 2
 1097 -21 l 2
 1085 -2 1078 8 1070 8 c 0
 1067 8 1064 7 1061 5 c 0
 1051 -2 1047 -6 1047 -25 c 2
 1047 -200 l 2
 1047 -210 1046 -210 1038 -210 c 2
 1021 -210 l 2
 1012 -210 1011 -210 1011 -200 c 2
 1011 -90 l 2
 1011 -60 1002 -57 983 -78 c 2
 960 -104 l 2
 944 -122 937 -131 930 -131 c 0
 922 -131 916 -121 903 -100 c 2
 850 -18 l 2
 839 -1 833 8 825 8 c 0
 817 8 808 0 793 -17 c 2
 720 -98 l 2
 702 -118 693 -130 685 -130 c 0
 677 -130 670 -119 655 -96 c 2
 607 -21 l 2
 595 -2 588 8 580 8 c 0
 572 8 563 -0 547 -18 c 2
 475 -98 l 2
 457 -118 448 -130 440 -130 c 0
 432 -130 425 -119 410 -96 c 2
 362 -21 l 2
 350 -2 343 8 335 8 c 0
 327 8 318 -0 302 -18 c 2
 225 -104 l 2
 209 -122 202 -131 195 -131 c 0
 187 -131 181 -121 168 -100 c 2
 115 -18 l 2
 104 -1 98 8 90 8 c 0
 82 8 73 -0 58 -17 c 0
 20 -58 -41 -120 -130 -120 c 0
 -225 -120 -291 -48 -310 3 c 0
 -312 8 -314 12 -314 15 c 0
 -314 24 -287 26 -275 26 c 0
 -267 26 -262 24 -259 16 c 0
 -239 -35 -201 -82 -128 -82 c 0
 -61 -82 -15 -43 59 40 c 2
EndSplineSet
EndChar

StartChar: uni0091
Encoding: 145 145 72
Width: 1000
VWidth: 0
Flags: H
LayerCount: 2
Back
SplineSet
34 -450 m 4xec
 34 -461 38 -471 52 -471 c 4
 124 -471 179 -379 179 -309 c 4
 179 -297 173 -289 166 -289 c 4
 163 -289 160 -291 158 -294 c 4
 121 -343 96 -353 51 -414 c 4
 42 -427 34 -434 34 -450 c 4xec
187 -118 m 4xe2
 187 -100 185 -65 170 -65 c 4
 166 -65 161 -68 154 -72 c 4
 128 -91 106 -98 68 -98 c 4
 60 -98 56 -96 49 -96 c 4
 35 -96 33 -117 33 -236 c 6
 33 -247 l 6
 33 -285 34 -302 54 -302 c 4
 126 -302 187 -206 187 -118 c 4xe2
198 -414 m 7
 198 -432 213 -447 213 -493 c 4
 213 -620 117 -658 51 -753 c 4
 42 -766 38 -771 34 -789 c 4
 31 -804 37 -835 11 -835 c 4
 1 -835 -3 -815 -3 -805 c 7
 -3 -724 0 -474 0 -371 c 4xec
 0 -276 -1 -223 -1 -157 c 4
 -1 -123 -1 -84 0 -34 c 5xf0
 0 39 65 96 145 96 c 4
 196 96 213 53 213 28 c 4xe4
 213 18 211 6 208 -6 c 5
 204 -17 202 -22 202 -28 c 4xf0
 202 -34 204 -39 207 -49 c 4
 215 -72 222 -97 222 -124 c 4xe2
 222 -193 198 -205 198 -235 c 4
 198 -272 213 -277 213 -323 c 4xe4
 213 -348 209 -369 203 -388 c 4
 198 -401 197 -406 197 -410 c 4
 197 -412 198 -413 198 -414 c 7
138 -486 m 4
 110 -516 78 -544 51 -583 c 4
 42 -596 34 -609 34 -622 c 7
 34 -633 37 -641 52 -641 c 7
 124 -641 179 -549 179 -479 c 4
 179 -467 173 -459 166 -459 c 7
 159 -459 157 -465 138 -486 c 4
EndSplineSet
EndChar

StartChar: uni0098
Encoding: 152 152 73
Width: 684
Flags: W
VStem: 648 36<-274.772 -72.8681>
LayerCount: 2
Back
SplineSet
581 15 m 0
 587 15 591 15 603 -5 c 0
 639 -63 652 -121 652 -177 c 0
 652 -250 625 -319 576 -388 c 0
 571 -395 567 -401 567 -407 c 0
 567 -416 569 -427 578 -427 c 0
 584 -427 590 -421 596 -414 c 0
 653 -340 684 -256 684 -176 c 0
 684 -101 660 -28 613 41 c 0
 602 57 593 72 581 72 c 0
 576 72 569 69 562 60 c 2
 523 17 l 2
 508 0 499 -8 491 -8 c 0
 483 -8 477 1 466 18 c 2
 413 100 l 2
 400 121 394 131 386 131 c 0
 379 131 372 122 356 104 c 2
 279 18 l 2
 263 0 254 -8 246 -8 c 0
 238 -8 231 2 219 21 c 2
 171 96 l 2
 156 119 149 130 141 130 c 0
 133 130 124 118 106 98 c 2
 10 -9 l 2
 3 -17 0 -23 0 -28 c 0
 0 -36 10 -53 16 -53 c 0
 19 -53 23 -50 28 -44 c 2
 48 -22 l 2
 67 -2 77 8 85 8 c 0
 93 8 99 -1 110 -17 c 2
 164 -103 l 2
 177 -123 183 -132 190 -132 c 0
 196 -132 204 -123 218 -106 c 2
 293 -23 l 2
 310 -4 320 5 330 5 c 0
 338 5 346 -3 357 -20 c 2
 406 -98 l 2
 420 -120 426 -131 434 -131 c 0
 440 -131 447.803 -122.824 462 -107 c 2
 558 0 l 2
 562 5 574 15 581 15 c 0
EndSplineSet
Fore
SplineSet
595 0 m 0
 632 -57 648 -121 648 -177 c 0
 648 -250 619 -321 570 -390 c 0
 566 -395 566 -398 566 -401 c 0
 566 -410 572 -429 578 -429 c 0
 584 -429 590 -421 596 -414 c 0
 653 -340 684 -256 684 -176 c 0
 684 -96 653 -11 602 56 c 0
 584 81 581 81 562 60 c 2
 523 17 l 2
 508 0 499 -8 491 -8 c 0
 483 -8 477 1 466 18 c 2
 413 100 l 2
 400 121 394 131 386 131 c 0
 379 131 372 122 356 104 c 2
 279 18 l 2
 263 0 254 -8 246 -8 c 0
 238 -8 231 2 219 21 c 2
 171 96 l 2
 156 119 149 130 141 130 c 0
 133 130 124 118 106 98 c 2
 10 -9 l 2
 3 -17 0 -23 0 -28 c 0
 0 -36 10 -53 16 -53 c 0
 19 -53 23 -50 28 -44 c 2
 48 -22 l 2
 67 -2 77 8 85 8 c 0
 93 8 99 -1 110 -17 c 2
 164 -103 l 2
 177 -123 183 -132 190 -132 c 0
 196 -132 204 -123 218 -106 c 2
 293 -23 l 2
 310 -4 320 5 330 5 c 0
 338 5 346 -3 357 -20 c 2
 406 -98 l 2
 420 -120 426 -131 434 -131 c 0
 440 -131 448 -123 462 -107 c 2
 558 0 l 2
 574 17 583 19 595 0 c 0
EndSplineSet
EndChar

StartChar: uni0099
Encoding: 153 153 74
Width: 1067
Flags: W
HStem: 111 20G<387.5 395> 111 20G<387.5 395> 253 53<987.855 1061.98>
LayerCount: 2
Back
SplineSet
475 -98 m 2
 601 44 l 2
 730 188 834 266 1032 266 c 0
 1059 266 1065 274 1065 291 c 0
 1065 306 1055 307 1041 307 c 0
 844 307 739 243 581 70 c 2
 535 19 l 2
 511 -8 503 -8 495 -8 c 0
 487 -8 481 1 470 17 c 2
 416 103 l 2
 403 123 397 132 390 132 c 0
 384 132 376 123 362 106 c 2
 287 23 l 2
 270 4 260 -5 250 -5 c 0
 242 -5 234 3 223 20 c 2
 174 98 l 2
 160 120 154 131 146 131 c 0
 140 131 132 123 118 107 c 2
 13 -11 l 2
 6 -18 3 -23 3 -28 c 0
 3 -35 14 -52 20 -52 c 0
 24 -52 28 -49 35 -42 c 2
 57 -17 l 2
 72 0 81 8 89 8 c 0
 97 8 103 -1 114 -18 c 2
 167 -100 l 2
 180 -121 186 -131 194 -131 c 0
 201 -131 208 -122 224 -104 c 2
 301 -18 l 2
 317 0 326 8 334 8 c 0
 342 8 349 -2 361 -21 c 2
 409 -96 l 2
 424 -119 431 -130 439 -130 c 0
 447 -130 457 -118 475 -98 c 2
EndSplineSet
Fore
SplineSet
1049 306 m 0xa0
 1062 305 1067 304 1067 296 c 0
 1067 290 1064 281 1059 265 c 0
 1057 259 1053 253 1046 253 c 0
 1038 253 1005 257 987 257 c 0
 799 257 710 165 527 -40 c 2
 467 -107 l 2
 453 -123 445 -131 439 -131 c 0
 431 -131 425 -120 411 -98 c 2
 362 -20 l 2
 351 -3 343 5 335 5 c 0
 325 5 315 -4 298 -23 c 2
 223 -106 l 1
 209 -123 201 -132 195 -132 c 0
 188 -132 182 -123 169 -103 c 2
 115 -17 l 2
 104 -1 98 8 90 8 c 0
 82 8 72 -2 53 -22 c 2
 33 -44 l 2
 28 -50 24 -53 21 -53 c 0
 15 -53 5 -36 5 -28 c 0
 5 -23 8 -17 15 -9 c 2
 111 98 l 2
 129 118 138 130 146 130 c 0
 154 130 161 119 176 96 c 2
 224 21 l 2
 236 2 243 -8 251 -8 c 0
 259 -8 268 0 284 18 c 2
 361 104 l 2
 377 122 384 131 391 131 c 0
 399 131 405 121 418 100 c 2
 471 18 l 2
 482 1 488 -8 496 -8 c 0
 504 -8 513 0 528 17 c 0
 667 172 816 330 1049 306 c 0xa0
EndSplineSet
EndChar

StartChar: cedilla
Encoding: 184 184 75
Width: 596
VWidth: 0
Flags: W
HStem: -232 21G<292 306.5> -86 85<248.435 278.673> 0 85<316.358 346.211> 212 20G<291 306>
VStem: 282 33<-231.978 -86.0073 85.0088 231.998>
LayerCount: 2
Back
SplineSet
14 -116 m 4
 7 -116 0 -102 0 -94 c 4
 0 -86 3.04466 -79.0283 10 -68 c 6
 121 108 l 6
 136 131 145 143 154 143 c 4
 163 143 171 131 186 107 c 6
 228 37 l 6
 245 9 254 -6 264 -6 c 4
 270.094 -6 275.816 -1.17275 282.977 8.25549 c 5
 282.992 16.3661 283 24.6112 283 33 c 4
 283 96.1816 282 131.471 282 195 c 4
 282 232.377 283.333 232 299 232 c 4
 313.004 232 315 230 315 187 c 4
 315 131.516 314.013 96.4993 313.426 54.7612 c 5
 344 103 l 6
 360 128 370 141 379 141 c 4
 390 141 399.987 126.993 416 100 c 6
 451 41 l 6
 469 11 479 -4 489 -4 c 4
 498 -4 508 11 525 38 c 6
 567 105 l 6
 569 109 575 115 580 115 c 4
 588 115 596 102 596 94 c 4
 596 87 593 80 587 71 c 6
 481 -97 l 6
 462 -126 451 -140 441 -140 c 4
 430 -140 420 -125 403 -96 c 6
 365 -33 l 6
 348.79 -6.12555 340 7 330 7 c 4
 325.037 7 319.689 2.76605 313 -5.70187 c 5
 313.028 -84.582 315 -155.378 315 -208 c 4
 315 -227 313.35 -232 300 -232 c 4
 284.33 -232 282 -229 282 -206 c 4
 282 -158.376 282.459 -108.385 282.755 -52.1197 c 5
 248 -108 l 6
 233 -131 225 -143 216 -143 c 4
 206 -143 196 -129 179 -99 c 6
 141 -36 l 6
 124 -8 116 6 107 6 c 4
 99 6 91 -5 76 -29 c 6
 33 -98 l 6
 26 -108 20 -116 14 -116 c 4
EndSplineSet
Fore
SplineSet
282 -206 m 0
 282 -178 282 -149 282 -119 c 0
 282 -96 278 -86 271 -86 c 0
 265 -86 257 -94 248 -108 c 0
 233 -131 225 -143 216 -143 c 0
 206 -143 196 -129 179 -99 c 2
 141 -36 l 2
 124 -8 116 6 107 6 c 0
 99 6 91 -5 76 -29 c 2
 33 -98 l 2
 26 -108 20 -116 14 -116 c 0
 7 -116 0 -102 0 -94 c 0
 0 -86 3 -79 10 -68 c 2
 121 108 l 2
 136 131 145 143 154 143 c 0
 163 143 171 131 186 107 c 2
 228 37 l 2
 244 10 256 -1 264 -1 c 0
 280 -1 283 41 283 71 c 0
 283 113 282 145 282 195 c 0
 282 232 283 232 299 232 c 0
 313 232 315 230 315 187 c 0
 315 161 315 141 315 121 c 0
 315 97 318 85 325 85 c 0
 330 85 336 91 344 103 c 0
 360 128 370 141 379 141 c 0
 390 141 400 127 416 100 c 2
 451 41 l 2
 469 11 479 -4 489 -4 c 0
 498 -4 508 11 525 38 c 2
 567 105 l 2
 569 109 575 115 580 115 c 0
 588 115 596 102 596 94 c 0
 596 87 593 80 587 71 c 2
 481 -97 l 2
 462 -126 451 -140 441 -140 c 0
 430 -140 420 -125 403 -96 c 2
 365 -33 l 2
 350 -9 340 0 332 0 c 0
 317 0 313 -32 313 -58 c 0
 313 -115 315 -167 315 -208 c 0
 315 -227 313 -232 300 -232 c 0
 284 -232 282 -229 282 -206 c 0
EndSplineSet
EndChar

StartChar: uni00B9
Encoding: 185 185 76
Width: 822
VWidth: 0
Flags: HW
HStem: -232 21G<517.999 532.499> -143 137<435.5 497.999> -86 85<474.659 504.672> 0 85<542.357 572.21> 212 20G<517 532>
VStem: 507.999 33<-231.978 -86.0073 85.0088 231.998>
LayerCount: 2
Back
SplineSet
106 99 m 7xe8
 50 99 50 4 50 -63 c 6xd8
 50 -79 l 6
 50 -98 51 -104 57 -104 c 7
 83 -104 143 -9 143 52 c 7
 143 75 129 99 106 99 c 7xe8
39 430 m 7
 56 430 57 416 57 399 c 4
 57 398 57 396 57 394 c 7xe8
 57 271 49 200 49 127 c 4
 49 116 50 110 58 110 c 7
 71 110 75 141 131 141 c 7
 173 141 200 125 214 96 c 4
 221 82 227 66 227 47 c 7
 227 -4 201 -46 160 -69 c 4
 86 -109 44 -172 25 -172 c 7
 13 -172 13 -156 13 -144 c 31
 13 -97 15 -71 15 -24 c 31xd8
 15 137 0 227 0 388 c 7xe8
 0 428 2 430 39 430 c 7
EndSplineSet
Fore
SplineSet
441 -142 m 0xbc
 430 -142 420 -125 403 -96 c 2
 365 -33 l 2
 349 -6 340 7 330 7 c 0
 322 7 313 -4 299 -26 c 2
 248 -108 l 2
 233 -131 225 -143 216 -143 c 0
 206 -143 196 -129 179 -99 c 2
 141 -36 l 2
 124 -8 116 6 107 6 c 0
 99 6 91 -5 76 -29 c 2
 33 -98 l 2
 26 -108 20 -116 14 -116 c 0
 7 -116 0 -102 0 -94 c 0
 0 -86 3 -79 10 -68 c 2
 121 108 l 2
 136 131 145 143 154 143 c 0
 163 143 171 131 186 107 c 2
 228 37 l 2
 245 9 254 -6 264 -6 c 0xdc
 274 -6 283 7 299 32 c 2
 344 103 l 2
 360 128 370 141 379 141 c 0
 390 141 400 127 416 100 c 2
 451 41 l 2
 461 25 473 -1 490 -1 c 0
 506 -1 509 41 509 71 c 0
 509 113 508 145 508 195 c 0
 508 232 509 232 525 232 c 0
 539 232 541 230 541 187 c 0
 541 161 541 141 541 121 c 0
 541 97 544 85 551 85 c 0
 556 85 562 91 570 103 c 0
 586 128 596 141 605 141 c 0
 616 141 626 127 642 100 c 2
 677 41 l 2
 695 11 705 -4 715 -4 c 0
 724 -4 734 11 751 38 c 2
 793 105 l 2
 795 109 801 115 806 115 c 0
 814 115 822 102 822 94 c 0
 822 87 819 80 813 71 c 2
 707 -97 l 2
 688 -126 677 -140 667 -140 c 0
 656 -140 646 -125 629 -96 c 2
 591 -33 l 2
 583 -20 569 -0 558 0 c 0
 543 0 539 -32 539 -58 c 0
 539 -115 541 -167 541 -208 c 0
 541 -227 539 -232 526 -232 c 0
 510 -232 508 -229 508 -206 c 0
 508 -178 508 -149 508 -119 c 0
 508 -96 504 -86 497 -86 c 0
 491 -86 483 -94 474 -108 c 2
 468 -117 l 2
 457 -133 448 -142 441 -142 c 0xbc
EndSplineSet
EndChar

StartChar: ordmasculine
Encoding: 186 186 77
Width: 1048
VWidth: 0
Flags: W
HStem: -86 85<700.119 730.673> 0 85<768.358 798.211> 123 18G<149.5 158.5 374.5 384.5 600.5 610.5 743 758 826.5 836.5>
VStem: 734 33<-231.978 -86.0073 85.0088 231.998>
LayerCount: 2
Fore
SplineSet
667 -141 m 0
 656 -141 646 -125 629 -96 c 2
 591 -33 l 2
 575 -6 566 7 556 7 c 0
 548 7 539 -4 525 -26 c 2
 474 -108 l 2
 459 -131 450 -142 441 -142 c 0
 430 -142 420 -125 403 -96 c 2
 365 -33 l 2
 349 -6 340 7 330 7 c 0
 322 7 313 -4 299 -26 c 2
 248 -108 l 2
 233 -131 225 -143 216 -143 c 0
 206 -143 196 -129 179 -99 c 2
 141 -36 l 2
 124 -8 116 6 107 6 c 0
 99 6 91 -5 76 -29 c 2
 33 -98 l 2
 26 -108 20 -116 14 -116 c 0
 7 -116 0 -102 0 -94 c 0
 0 -86 3 -79 10 -68 c 2
 121 108 l 2
 136 131 145 143 154 143 c 0
 163 143 171 131 186 107 c 2
 228 37 l 2
 245 9 254 -6 264 -6 c 0
 274 -6 283 7 299 32 c 2
 344 103 l 2
 360 128 370 141 379 141 c 0
 390 141 400 127 416 100 c 2
 451 41 l 2
 469 11 479 -4 489 -4 c 0
 499 -4 509 7 525 32 c 2
 570 103 l 2
 586 128 596 141 605 141 c 0
 616 141 626 127 642 100 c 2
 677 41 l 2
 687 25 699 -1 716 -1 c 0
 732 -1 735 41 735 71 c 0
 735 113 734 145 734 195 c 0
 734 232 735 232 751 232 c 0
 765 232 767 230 767 187 c 0
 767 161 767 141 767 121 c 0
 767 97 770 85 777 85 c 0
 782 85 788 91 796 103 c 0
 812 128 822 141 831 141 c 0
 842 141 852 127 868 100 c 2
 903 41 l 2
 921 11 931 -4 941 -4 c 0
 950 -4 960 11 977 38 c 2
 1019 105 l 2
 1021 109 1027 115 1032 115 c 0
 1040 115 1048 102 1048 94 c 0
 1048 87 1045 80 1039 71 c 2
 933 -97 l 2
 914 -126 903 -140 893 -140 c 0
 882 -140 872 -125 855 -96 c 2
 817 -33 l 2
 809 -20 795 -0 784 0 c 0
 769 0 765 -32 765 -58 c 0
 765 -115 767 -167 767 -208 c 0
 767 -227 765 -232 752 -232 c 0
 736 -232 734 -229 734 -206 c 0
 734 -178 734 -149 734 -119 c 0
 734 -96 730 -86 723 -86 c 0
 715 -86 706 -99 700 -108 c 0
 685 -131 676 -141 667 -141 c 0
EndSplineSet
EndChar

StartChar: guillemotright
Encoding: 187 187 78
Width: 1274
VWidth: 0
Flags: HW
LayerCount: 2
Fore
SplineSet
893 -141 m 0
 882 -141 872 -125 855 -96 c 2
 817 -33 l 2
 801 -6 792 7 782 7 c 0
 774 7 765 -4 751 -26 c 2
 700 -108 l 2
 685 -131 676 -141 667 -141 c 0
 656 -141 646 -125 629 -96 c 2
 591 -33 l 2
 575 -6 566 7 556 7 c 0
 548 7 539 -4 525 -26 c 2
 474 -108 l 2
 459 -131 450 -142 441 -142 c 0
 430 -142 420 -125 403 -96 c 2
 365 -33 l 2
 349 -6 340 7 330 7 c 0
 322 7 313 -4 299 -26 c 2
 248 -108 l 2
 233 -131 225 -143 216 -143 c 0
 206 -143 196 -129 179 -99 c 2
 141 -36 l 2
 124 -8 116 6 107 6 c 0
 99 6 91 -5 76 -29 c 2
 33 -98 l 2
 26 -108 20 -116 14 -116 c 0
 7 -116 0 -102 0 -94 c 0
 0 -86 3 -79 10 -68 c 2
 121 108 l 2
 136 131 145 143 154 143 c 0
 163 143 171 131 186 107 c 2
 228 37 l 2
 245 9 254 -6 264 -6 c 0
 274 -6 283 7 299 32 c 2
 344 103 l 2
 360 128 370 141 379 141 c 0
 390 141 400 127 416 100 c 2
 451 41 l 2
 469 11 479 -4 489 -4 c 0
 499 -4 509 7 525 32 c 2
 570 103 l 2
 586 128 596 141 605 141 c 0
 616 141 626 127 642 100 c 2
 677 41 l 2
 695 11 705 -4 715 -4 c 0
 725 -4 735 7 751 32 c 2
 796 103 l 2
 812 128 822 141 831 141 c 0
 842 141 852 127 868 100 c 2
 903 41 l 2
 913 25 925 -1 942 -1 c 0
 958 -1 961 41 961 71 c 0
 961 113 960 145 960 195 c 0
 960 232 961 232 977 232 c 0
 991 232 993 230 993 187 c 0
 993 161 993 141 993 121 c 0
 993 97 996 85 1003 85 c 0
 1008 85 1014 91 1022 103 c 0
 1038 128 1048 141 1057 141 c 0
 1068 141 1078 127 1094 100 c 2
 1129 41 l 2
 1147 11 1157 -4 1167 -4 c 0
 1176 -4 1186 11 1203 38 c 2
 1245 105 l 2
 1247 109 1253 115 1258 115 c 0
 1266 115 1274 102 1274 94 c 0
 1274 87 1271 80 1265 71 c 2
 1159 -97 l 2
 1140 -126 1129 -140 1119 -140 c 0
 1108 -140 1098 -125 1081 -96 c 2
 1043 -33 l 2
 1035 -20 1021 -0 1010 0 c 0
 995 0 991 -32 991 -58 c 0
 991 -115 993 -167 993 -208 c 0
 993 -227 991 -232 978 -232 c 0
 962 -232 960 -229 960 -206 c 0
 960 -178 960 -149 960 -119 c 0
 960 -96 956 -86 949 -86 c 0
 943 -86 931 -99 926 -108 c 0
 911 -131 902 -141 893 -141 c 0
EndSplineSet
EndChar

StartChar: onequarter
Encoding: 188 188 79
Width: 1000
VWidth: 0
Flags: H
LayerCount: 2
Back
SplineSet
153 0 m 4
 153 -30 208.066 -37.0117 238 -39 c 14
 253 -40 l 29
 256 -128 l 29
 168 -125 l 29
 167 -110 l 22
 165.012 -80.0664 158 -25 128 -25 c 4
 98 -25 90.9883 -80.0664 89 -110 c 14
 88 -125 l 29
 0 -128 l 29
 3 -40 l 29
 18 -39 l 22
 47.9336 -37.0117 103 -30 103 0 c 4
 103 30 47.9336 37.0117 18 39 c 14
 3 40 l 29
 0 128 l 29
 88 125 l 29
 89 110 l 22
 90.9883 80.0664 98 25 128 25 c 4
 158 25 165.012 80.0664 167 110 c 14
 168 125 l 29
 256 128 l 29
 253 40 l 29
 238 39 l 22
 208.066 37.0117 153 30 153 0 c 4
247 131 m 3xde
 253 131 253 129 253 125 c 0
 253 118 248 105 248 92 c 24
 248 78 252 71 252 58 c 3
 252 36 240 39 219 38 c 0
 193 37 175 31 163 20 c 0
 157 14 152 9 152 1 c 3
 152 -14 192 -30 227 -38 c 0
 246 -42 255 -40 255 -56 c 3
 255 -64 254 -69 254 -78 c 3
 254 -107 258 -108 258 -122 c 3
 258 -128 252 -133 244 -133 c 24
 229 -133 220 -124 205 -124 c 24
 195 -124 190 -126 179 -126 c 3
 165 -126 164 -111 164 -97 c 0
 164 -94 164 -91 164 -87 c 3
 164 -26 134 -15 131 -15 c 3
 119 -15 97 -73 91 -111 c 0
 89 -124 80 -131 68 -131 c 27
 55 -131 49 -125 36 -125 c 24
 27 -125 23 -127 14 -127 c 16
 9 -127 3 -124 3 -119 c 3
 3 -109 10 -105 10 -78 c 3
 10 -69 8 -64 8 -55 c 3
 8 -41 17 -40 35 -39 c 0
 67 -37 106 -23 106 2 c 3
 106 27 56 35 23 36 c 0
 13 36 2 36 2 45 c 3
 2 52 4 58 4 67 c 16
 4 81 0 89 0 103 c 0
 0 113 2 125 12 125 c 3
 22 125 22 121 56 121 c 3
 65 121 69 122 78 122 c 3
 91 122 91 107 91 96 c 0
 94 53 108 21 130 21 c 3
 154 21 159 69 163 102 c 0
 165 115 166 130 179 130 c 3
 187 130 192 126 210 126 c 3xee
 233 126 237 131 247 131 c 3xde
EndSplineSet
EndChar

StartChar: onehalf
Encoding: 189 189 80
Width: 596
VWidth: 0
Flags: HW
HStem: -232 21G<10 24.5> -86 85<-33.565 -3.327> 0 85<34.358 64.211> 212 20G<9 24>
VStem: 0 33<-231.978 -86.0073 85.0088 231.998>
LayerCount: 2
Fore
SplineSet
-40 16 m 1
 -30.7998 4.13477 -23.4658 -1 -18 -1 c 0
 -2 -1 1 41 1 71 c 0
 1 113 0 145 0 195 c 0
 0 232 1 232 17 232 c 0
 31 232 33 230 33 187 c 0
 33 161 33 141 33 121 c 0
 33 97 36 85 43 85 c 0
 48 85 54 91 62 103 c 0
 68.5605 113.251 74.1123 121.484 79 127.631 c 1
 86.0322 136.476 79 -26.7754 79 -26.7754 c 1
 66.1836 -7.42578 57.2666 0 50 0 c 0
 35 0 31 -32 31 -58 c 0
 31 -115 33 -167 33 -208 c 0
 33 -227 31 -232 18 -232 c 0
 2 -232 0 -229 0 -206 c 0
 0 -178 0 -149 0 -119 c 0
 0 -96 -4 -86 -11 -86 c 0
 -17 -86 -25 -94 -34 -108 c 0
 -40 -117.146 l 1
 -51.2969 -134.172 -44.2656 21.501 -40 16 c 1
EndSplineSet
EndChar

StartChar: threequarters
Encoding: 190 190 81
Width: 822
VWidth: 0
Flags: HW
LayerCount: 2
Back
SplineSet
14 -116 m 0
 7 -116 0 -102 0 -94 c 0
 0 -86 3 -79 10 -68 c 2
 121 108 l 2
 136 131 145 143 154 143 c 0
 163 143 171 131 186 107 c 2
 228 37 l 2
 245 9 254 -6 264 -6 c 0
 274 -6 283 7 299 32 c 2
 344 103 l 2
 360 128 370 141 379 141 c 0
 390 141 400 127 416 100 c 2
 451 41 l 2
 469 11 479 -4 489 -4 c 0
 498 -4 508 11 525 38 c 2
 567 105 l 2
 569 109 575 115 580 115 c 0
 588 115 596 102 596 94 c 0
 596 87 593 80 587 71 c 2
 481 -97 l 2
 462 -126 451 -140 441 -140 c 0
 430 -140 420 -125 403 -96 c 2
 365 -33 l 2
 349 -6 340 7 330 7 c 0
 322 7 313 -4 299 -26 c 2
 248 -108 l 2
 233 -131 225 -143 216 -143 c 0
 206 -143 196 -129 179 -99 c 2
 141 -36 l 2
 124 -8 116 6 107 6 c 0
 99 6 91 -5 76 -29 c 2
 33 -98 l 2
 26 -108 20 -116 14 -116 c 0
EndSplineSet
Fore
SplineSet
240 16 m 5
 249.2 4.13477 258.534 -1 264 -1 c 4
 280 -1 283 41 283 71 c 4
 283 113 282 145 282 195 c 4
 282 232 283 232 299 232 c 4
 313 232 315 230 315 187 c 4
 315 161 315 141 315 121 c 4
 315 97 318 85 325 85 c 4
 330 85 336 91 344 103 c 4
 350.561 113.251 357.333 123.333 363.333 126 c 5
 376 112 362 -26.7754 362 -26.7754 c 5
 349.184 -7.42578 339.267 0 332 0 c 4
 317 0 313 -32 313 -58 c 4
 313 -115 315 -167 315 -208 c 4
 315 -227 313 -232 300 -232 c 4
 284 -232 282 -229 282 -206 c 4
 282 -178 282 -149 282 -119 c 4
 282 -96 278 -86 271 -86 c 4
 265 -86 254.5 -98.1667 247 -108 c 4
 240 -117.146 l 5
 228.703 -134.172 235.734 21.501 240 16 c 5
EndSplineSet
EndChar

StartChar: questiondown
Encoding: 191 191 82
Width: 1000
VWidth: 0
Flags: H
LayerCount: 2
Back
SplineSet
319 32 m 6xd158
 319 70 317 80 304 80 c 4
 289 80 252 67 238 62 c 4
 220 56 219 46 219 16 c 4
 219 11 219 4 219 -3 c 6
 219 -53 l 6
 219 -75 219 -83 229 -83 c 4
 234 -83 289 -67 302 -62 c 4
 314 -57 316 -52 317 -46 c 4
 319 -37 319 -17 319 1 c 6
 319 32 l 6xd158
301 -167 m 4xb128
 292 -167 207 -202 195 -202 c 4
 181 -202 181 -188 181 -149 c 4
 181 -148 181 -146 181 -145 c 7xc168
 181 -24 182 3 182 55 c 7
 182 179 173 250 173 300 c 6
 173 319 l 6
 173 345 174 360 195 360 c 7
 218 360 224 357 224 334 c 7
 224 235 223 252 223 196 c 7
 223 173 227 167 236 167 c 4xcb88
 245 167 258 173 292 185 c 4
 317 195 333 203 343 203 c 4
 354 203 357 193 357 162 c 7
 357 79 355 75 355 -52 c 7x9198
 355 -190 365 -214 365 -342 c 7
 365 -357 353 -360 341 -360 c 7
 336 -360 331 -361 328 -361 c 4
 319 -361 314 -356 314 -320 c 7
 314 -315 315 -261 315 -218 c 7
 315 -214 315 -209 315 -206 c 4
 315 -175 311 -167 301 -167 c 4xb128
537 -7 m 7
 537 -126 446 -265 420 -265 c 7
 414 -265 406 -263 406 -254 c 7
 406 -239 492 -171 492 8 c 7
 492 181 406 218 406 245 c 7
 406 252 408 264 421 264 c 7x8508
 433 264 537 151 537 -7 c 7
0 6 m 7
 0 125 91 264 117 264 c 7
 123 264 131 262 131 253 c 7
 131 238 45 170 45 -9 c 7
 45 -182 131 -219 131 -246 c 7
 131 -253 129 -265 116 -265 c 7
 104 -265 0 -152 0 6 c 7
EndSplineSet
EndChar

StartChar: Agrave
Encoding: 192 192 83
Width: 1000
VWidth: -9
Flags: H
LayerCount: 2
Back
SplineSet
274 99 m 7xe8
 218 99 218 4 218 -63 c 6xd8
 218 -79 l 6
 218 -98 219 -104 225 -104 c 7
 251 -104 311 -9 311 52 c 7
 311 75 297 99 274 99 c 7xe8
207 430 m 7
 224 430 225 416 225 399 c 4
 225 398 225 396 225 394 c 7xe8
 225 271 217 200 217 127 c 4
 217 116 218 110 226 110 c 7
 239 110 243 141 299 141 c 7
 341 141 368 125 382 96 c 4
 389 82 395 66 395 47 c 7
 395 -4 369 -46 328 -69 c 4
 254 -109 212 -172 193 -172 c 7
 181 -172 181 -156 181 -144 c 31
 181 -97 183 -71 183 -24 c 31xd8
 183 137 168 227 168 388 c 7xe8
 168 428 170 430 207 430 c 7
501 25 m 7
 501 -94 410 -233 384 -233 c 7
 378 -233 370 -231 370 -222 c 7
 370 -207 456 -139 456 40 c 7
 456 213 370 250 370 277 c 7
 370 284 372 296 385 296 c 7
 397 296 501 183 501 25 c 7
0 38 m 7
 0 157 91 296 117 296 c 7
 123 296 131 294 131 285 c 7
 131 270 45 202 45 23 c 7
 45 -150 131 -187 131 -214 c 7
 131 -221 129 -233 116 -233 c 7
 104 -233 0 -120 0 38 c 7
EndSplineSet
EndChar

StartChar: Aacute
Encoding: 193 193 84
Width: 1000
VWidth: 0
Flags: H
LayerCount: 2
Back
SplineSet
275 72 m 4x6e40
 231 59 228 59 228 22 c 4
 228 15 228 6 228 -4 c 7
 228 -16 228 -26 228 -34 c 4
 228 -72 229 -77 244 -77 c 7
 251 -77 262 -73 280 -67 c 4
 319 -54 321 -54 321 -0 c 4
 321 5 321 10 321 16 c 7
 321 25 321 32 321 39 c 4
 321 76 320 78 300 78 c 7
 294 78 286 75 275 72 c 4x6e40
182 38 m 4
 176 38 165 34 160 34 c 4
 148 34 148 46 148 70 c 4
 148 79 147 86 147 93 c 4
 147 107 150 117 170 123 c 4
 193 130 194 134 194 164 c 4
 194 167 194 169 194 172 c 7
 194 188 192 251 192 284 c 7
 192 307 197 312 217 312 c 7
 229 312 235 307 235 287 c 7
 235 259 233 227 233 172 c 7
 233 156 236 150 247 150 c 4
 253 150 262 152 274 156 c 4
 307 166 316 162 316 213 c 7xaec0
 316 244 314 288 314 323 c 7xaf40
 314 346 316 352 337 352 c 7
 355 352 357 344 357 331 c 4
 357 327 357 322 357 317 c 7
 357 282 355 259 355 223 c 7
 355 198 356 186 367 186 c 4
 373 186 385 191 390 191 c 4
 401 191 401 180 401 154 c 7
 401 101 397 107 378 101 c 4
 360 95 355 93 355 27 c 7
 355 9 355 -4 355 -13 c 4x1ec0
 355 -31 356 -36 363 -36 c 4
 367 -36 380 -32 386 -32 c 4
 400 -32 401 -47 401 -63 c 4
 401 -66 401 -69 401 -72 c 7
 401 -108 399 -114 377 -121 c 4
 354 -128 353 -134 353 -169 c 7
 353 -232 356 -225 356 -277 c 7
 356 -294 351 -301 334 -301 c 7
 315 -301 314 -290 314 -271 c 7x1f40
 314 -230 316 -206 316 -165 c 7
 316 -152 315 -146 306 -146 c 4x5ec0
 300 -146 289 -149 271 -154 c 4
 239 -164 232 -171 232 -189 c 7
 232 -298 235 -268 235 -309 c 7
 235 -312 235 -314 235 -316 c 4
 235 -329 234 -339 216 -339 c 4
 201 -339 193 -328 193 -315 c 31
 193 -280 195 -264 195 -225 c 7
 195 -193 193 -183 184 -183 c 4
 178 -183 163 -189 158 -189 c 4
 149 -189 148 -181 148 -162 c 4
 148 -158 148 -153 148 -148 c 4
 148 -141 148 -135 148 -130 c 4
 148 -109 150 -104 170 -98 c 4x8ec0
 192 -91 194 -93 194 -57 c 4
 194 -46 194 -33 194 -15 c 7
 194 25 194 38 182 38 c 4
557 -7 m 7
 557 -126 466 -265 440 -265 c 7
 434 -265 426 -263 426 -254 c 7
 426 -239 512 -171 512 8 c 7
 512 181 426 218 426 245 c 7
 426 252 428 264 441 264 c 7
 453 264 557 151 557 -7 c 7
0 6 m 7
 0 125 91 264 117 264 c 7
 123 264 131 262 131 253 c 7
 131 238 45 170 45 -9 c 7
 45 -182 131 -219 131 -246 c 7
 131 -253 129 -265 116 -265 c 7
 104 -265 0 -152 0 6 c 7
EndSplineSet
EndChar

StartChar: Acircumflex
Encoding: 194 194 85
Width: 1048
VWidth: 0
Flags: HW
LayerCount: 2
Fore
SplineSet
667 -141 m 0
 656 -141 646 -125 629 -96 c 2
 591 -33 l 2
 583 -20 569 -0 558 0 c 0
 543 0 539 -32 539 -58 c 0
 539 -115 541 -167 541 -208 c 0
 541 -227 539 -232 526 -232 c 0
 510 -232 508 -229 508 -206 c 0
 508 -178 508 -149 508 -119 c 0
 508 -96 504 -86 497 -86 c 0
 491 -86 479 -99 474 -108 c 0
 459 -131 450 -142 441 -142 c 0
 430 -142 420 -125 403 -96 c 2
 365 -33 l 2
 349 -6 340 7 330 7 c 0
 322 7 313 -4 299 -26 c 2
 248 -108 l 2
 233 -131 225 -143 216 -143 c 0
 206 -143 196 -129 179 -99 c 2
 141 -36 l 2
 124 -8 116 6 107 6 c 0
 99 6 91 -5 76 -29 c 2
 33 -98 l 2
 26 -108 20 -116 14 -116 c 0
 7 -116 0 -102 0 -94 c 0
 0 -86 3 -79 10 -68 c 2
 121 108 l 2
 136 131 145 143 154 143 c 0
 163 143 171 131 186 107 c 2
 228 37 l 2
 245 9 254 -6 264 -6 c 0
 274 -6 283 7 299 32 c 2
 344 103 l 2
 360 128 370 141 379 141 c 0
 390 141 400 127 416 100 c 2
 451 41 l 2
 461 25 473 -1 490 -1 c 0
 506 -1 509 41 509 71 c 0
 509 113 508 145 508 195 c 0
 508 232 509 232 525 232 c 0
 539 232 541 230 541 187 c 0
 541 161 541 141 541 121 c 0
 541 97 544 85 551 85 c 0
 556 85 562 91 570 103 c 0
 586 128 596 141 605 141 c 0
 616 141 626 127 642 100 c 2
 677 41 l 2
 695 11 705 -4 715 -4 c 0
 725 -4 735 7 751 32 c 2
 796 103 l 2
 812 128 822 141 831 141 c 0
 842 141 852 127 868 100 c 2
 903 41 l 2
 921 11 931 -4 941 -4 c 0
 950 -4 960 11 977 38 c 2
 1019 105 l 2
 1021 109 1027 115 1032 115 c 0
 1040 115 1048 102 1048 94 c 0
 1048 87 1045 80 1039 71 c 2
 933 -97 l 2
 914 -126 903 -140 893 -140 c 0
 882 -140 872 -125 855 -96 c 2
 817 -33 l 2
 801 -6 792 7 782 7 c 0
 774 7 765 -4 751 -26 c 2
 700 -108 l 2
 685 -131 676 -141 667 -141 c 0
EndSplineSet
EndChar

StartChar: Atilde
Encoding: 195 195 86
Width: 1000
VWidth: 0
Flags: H
LayerCount: 2
Back
SplineSet
406 192 m 7
 437 192 500 76 500 1 c 7
 500 -80 437 -187 409 -187 c 7
 401 -187 392 -181 392 -175 c 7
 392 -163 466 -85 466 -5 c 7
 466 113 392 150 392 181 c 7
 392 188 400 192 406 192 c 7
94 -187 m 7
 63 -187 0 -71 0 4 c 7
 0 85 63 192 91 192 c 7
 99 192 108 186 108 180 c 7
 108 168 34 90 34 10 c 7
 34 -108 108 -145 108 -176 c 7
 108 -183 100 -187 94 -187 c 7
367 131 m 7
 373 131 373 129 373 125 c 4
 373 118 368 105 368 92 c 28
 368 78 372 71 372 58 c 7
 372 36 360 39 339 38 c 4
 313 37 295 31 283 20 c 4
 277 14 272 9 272 1 c 7
 272 -14 312 -30 347 -38 c 4
 366 -42 375 -40 375 -56 c 7
 375 -64 374 -69 374 -78 c 7
 374 -107 378 -108 378 -122 c 7
 378 -128 372 -133 364 -133 c 28
 349 -133 340 -124 325 -124 c 28
 315 -124 310 -126 299 -126 c 7
 285 -126 284 -111 284 -97 c 4
 284 -94 284 -91 284 -87 c 7
 284 -26 254 -15 251 -15 c 7
 239 -15 217 -73 211 -111 c 4
 209 -124 200 -131 188 -131 c 31
 175 -131 169 -125 156 -125 c 28
 147 -125 143 -127 134 -127 c 20
 129 -127 123 -124 123 -119 c 7
 123 -109 130 -105 130 -78 c 7
 130 -69 128 -64 128 -55 c 7
 128 -41 137 -40 155 -39 c 4
 187 -37 226 -23 226 2 c 7
 226 27 176 35 143 36 c 4
 133 36 122 36 122 45 c 7
 122 52 124 58 124 67 c 20
 124 81 120 89 120 103 c 4
 120 113 122 125 132 125 c 7
 142 125 142 121 176 121 c 7
 185 121 189 122 198 122 c 7
 211 122 211 107 211 96 c 4
 214 53 228 21 250 21 c 7
 274 21 279 69 283 102 c 4
 285 115 286 130 299 130 c 7
 307 130 312 126 330 126 c 7
 353 126 357 131 367 131 c 7
EndSplineSet
EndChar

StartChar: Adieresis
Encoding: 196 196 87
Width: 1000
VWidth: 0
Flags: H
LayerCount: 2
Back
SplineSet
112 23 m 6xea
 112 53 107 59 97 59 c 4
 85 59 66 51 55 47 c 4
 43 43 39 34 39 11 c 6
 39 -38 l 6
 39 -55 45 -58 53 -58 c 4
 57 -58 86 -49 96 -45 c 4
 109 -40 112 -29 112 -16 c 4
 112 -12 112 -8 112 0 c 6
 112 23 l 6xea
93 -113 m 7
 89 -113 77 -114 60 -121 c 5
 34 -130 35 -131 22 -131 c 7
 7 -131 6 -121 6 -100 c 4
 6 -98 6 -95 6 -92 c 6
 6 -89 l 6xec
 6 7 7 2 7 43 c 7
 7 141 0 192 0 232 c 6
 0 247 l 6
 0 267 1 279 18 279 c 7
 36 279 43 277 43 259 c 7
 43 181 42 190 42 146 c 7
 42 121 48 114 58 114 c 7
 68 114 73 116 94 124 c 4
 114 132 123 135 130 135 c 4
 139 135 146 130 146 106 c 7
 146 40 144 59 144 -41 c 7xf2
 144 -150 152 -163 152 -264 c 7
 152 -276 142 -279 133 -279 c 6
 118 -279 l 6
 111 -279 107 -275 107 -247 c 7xe4
 107 -243 109 -182 109 -148 c 6
 109 -137 l 6
 109 -114 102 -113 95 -113 c 4
 94 -113 94 -113 93 -113 c 7
EndSplineSet
EndChar

StartChar: Aring
Encoding: 197 197 88
Width: 1000
VWidth: 0
Flags: H
LayerCount: 2
Back
SplineSet
87 69 m 7xec
 56 69 46 36 46 3 c 4
 46 -4 46 -11 46 -19 c 14
 46 -57 l 30
 46 -63 49 -68 55 -68 c 7
 76 -68 113 -10 113 36 c 7
 113 57 104 69 87 69 c 7xec
27 350 m 7
 50 350 51 339 51 319 c 4
 51 317 51 316 51 315 c 7xf4
 51 282 45 188 45 106 c 15
 45 100 50 94 56 94 c 7
 68 94 73 115 113 115 c 7
 160 115 180 76 180 35 c 31
 180 -15 152 -43 109 -73 c 4
 53 -112 41 -133 27 -133 c 7
 15 -133 13 -119 13 -108 c 31xec
 13 -61 15 -34 15 13 c 31
 15 131 0 261 0 314 c 7xf4
 0 341 9 350 27 350 c 7
EndSplineSet
EndChar

StartChar: AE
Encoding: 198 198 89
Width: 1000
VWidth: 0
Flags: H
LayerCount: 2
Back
SplineSet
95 54 m 4xf180
 70 45 68 39 68 9 c 4
 68 2 68 -6 68 -16 c 7
 68 -51 72 -62 84 -62 c 4
 89 -62 97 -59 106 -56 c 4
 135 -45 136 -43 136 8 c 6
 136 12 l 6
 136 45 136 60 120 60 c 4
 114 60 106 58 95 54 c 4xf180
25 22 m 4
 22 22 17 21 13 21 c 4
 -0 21 -0 35 0 57 c 4
 0 58 -0 58 -0 59 c 4xf8
 -0 71 0 83 15 89 c 4
 33 96 35 105 35 117 c 4
 35 120 35 124 35 127 c 15xf2
 35 157 34 179 34 203 c 7
 34 205 34 206 34 207 c 4
 34 227 35 238 54 238 c 7
 76 238 77 232 77 209 c 7xf4
 77 182 76 168 76 141 c 7
 76 127 77 118 88 118 c 4
 92 118 96 119 103 122 c 4
 128 130 129 136 129 152 c 31
 129 185 128 204 128 237 c 7
 128 243 128 247 128 251 c 4
 128 268 130 271 150 271 c 7
 160 271 171 270 171 256 c 7
 171 236 169 195 169 175 c 7xf8
 169 156 172 151 179 151 c 4
 182 151 188 153 191 153 c 4
 200 153 205 147 205 123 c 6
 205 121 l 6xf2
 205 94 205 90 188 84 c 4
 170 77 168 72 168 49 c 4
 168 43 168 36 168 27 c 7xf080
 168 -6 169 -22 182 -22 c 4
 186 -22 191 -20 194 -20 c 4
 202 -20 205 -26 205 -47 c 4
 205 -50 205 -53 205 -56 c 4xf2
 205 -79 204 -84 188 -90 c 4
 170 -97 169 -106 169 -117 c 4
 169 -120 169 -122 169 -125 c 7xf8
 169 -140 171 -167 171 -202 c 6
 171 -204 l 6
 171 -230 171 -239 150 -239 c 4
 148 -239 146 -239 144 -239 c 4
 134 -239 128 -237 128 -215 c 4
 128 -184 130 -167 130 -137 c 23
 130 -127 129 -119 117 -119 c 4
 113 -119 108 -120 101 -122 c 4
 76 -131 75 -138 75 -155 c 7
 75 -188 77 -203 77 -238 c 7
 77 -261 75 -272 54 -272 c 7
 35 -272 34 -260 34 -248 c 31xf4
 34 -219 36 -205 36 -175 c 7
 36 -156 36 -150 28 -150 c 4
 25 -150 16 -154 12 -154 c 4
 4 -154 0 -147 0 -120 c 4
 0 -116 -0 -112 -0 -108 c 4xf8
 -0 -98 2 -90 18 -83 c 4
 36 -77 37 -70 37 -22 c 7
 37 12 36 22 25 22 c 4
EndSplineSet
EndChar

StartChar: Ccedilla
Encoding: 199 199 90
Width: 1000
VWidth: 0
Flags: H
LayerCount: 2
Back
SplineSet
27 350 m 4x8c04
 50 350 51 334 51 319 c 4
 51 317 51 316 51 315 c 4
 51 282 45 188 45 106 c 4
 45 100 50 94 56 94 c 4
 68 94 73 115 113 115 c 7xaa24
 139 115 145 100 156 100 c 7
 164 100 173 111 173 133 c 7xa844
 173 158 162 244 162 314 c 7
 162 341 171 350 189 350 c 4
 212 350 213 334 213 319 c 4
 213 317 213 316 213 315 c 4
 213 282 207 188 207 106 c 4
 207 100 212 94 218 94 c 4
 230 94 235 115 275 115 c 4
 322 115 342 76 342 35 c 4
 342 -16 314 -43 271 -73 c 4xa814
 215 -112 203 -133 189 -133 c 4x4814
 177 -133 175 -119 175 -108 c 4
 175 -82 176 -64 176 -42 c 7
 176 -37 174 -31 166 -31 c 7
 148 -31 138 -52 109 -73 c 4
 53 -112 41 -133 27 -133 c 4
 15 -133 13 -119 13 -108 c 4x888c
 13 -61 15 -34 15 13 c 4
 15 130 0 261 0 314 c 4
 0 341 9 350 27 350 c 4x8c04
85 70 m 7
 62 70 48 40 48 14 c 4
 48 -11 46 -33 46 -56 c 7
 46 -62 49 -68 55 -68 c 7x68a4
 76 -68 113 -10 113 36 c 7
 113 57 102 70 85 70 c 7
247 70 m 4
 224 70 210 40 210 14 c 4x6824
 210 -11 208 -33 208 -56 c 4x680c
 208 -62 211 -68 217 -68 c 4
 238 -68 275 -10 275 36 c 4
 275 57 264 70 247 70 c 4
EndSplineSet
EndChar

StartChar: aring
Encoding: 229 229 91
Width: 0
VWidth: 0
Flags: HW
LayerCount: 2
Back
SplineSet
28 338 m 7
 51 338 63 334 86 327 c 4
 176 301 365 258 478 230 c 4
 493 226 515 223 515 212 c 7
 515 200 500 197 488 196 c 4
 457 191 354 163 258 139 c 4
 180 119 119 108 82 95 c 4
 62 88 43 84 30 84 c 7
 21 84 0 94 0 110 c 7
 0 127 25 129 44 133 c 4
 128 152 204 173 255 182 c 4
 294 189 352 197 352 212 c 7
 352 221 329 224 314 228 c 4
 208 248 147 266 37 288 c 4
 20 292 4 298 4 318 c 7
 4 331 12 338 28 338 c 7
259 43 m 7
 280 43 301 29 301 8 c 31
 301 -17 294 -42 261 -42 c 7
 228 -42 214 -21 214 5 c 7
 214 27 229 43 259 43 c 7
EndSplineSet
EndChar

StartChar: ccedilla
Encoding: 231 231 92
Width: 0
VWidth: 0
Flags: HW
LayerCount: 2
Back
SplineSet
28 318 m 7
 51 318 63 314 86 307 c 4
 176 281 365 238 478 210 c 4
 493 206 515 203 515 192 c 7
 515 180 500 177 488 176 c 4
 457 171 354 143 258 119 c 4
 180 99 119 88 82 75 c 4
 62 68 43 64 30 64 c 7
 21 64 0 74 0 90 c 7
 0 107 25 109 44 113 c 4
 128 132 204 153 255 162 c 4
 294 169 352 177 352 192 c 7
 352 201 329 204 314 208 c 4
 208 228 147 246 37 268 c 4
 20 272 4 278 4 298 c 7
 4 311 12 318 28 318 c 7
30 0 m 7
 30 27 40 28 52 28 c 4
 52 28 53 28 54 28 c 7
 75 28 153 27 248 27 c 7
 372 27 422 28 460 28 c 7
 461 28 462 28 463 28 c 4
 474 28 485 27 485 0 c 7
 485 -27 476 -28 463 -28 c 4
 461 -28 459 -28 457 -28 c 7
 434 -28 359 -27 256 -27 c 7
 143 -27 59 -28 48 -28 c 7
 31 -28 30 -25 30 -10 c 4
 30 -7 30 -4 30 0 c 7
EndSplineSet
EndChar

StartChar: iacute
Encoding: 237 237 93
Width: 627
VWidth: 0
Flags: HW
HStem: 30 54<-7 35>
VStem: -106 33<-329 -101>
LayerCount: 2
Back
SplineSet
239 63 m 7
 226 63 218 80 212 94 c 4
 195 135 173 190 154 228 c 4
 139 258 140 260 125 260 c 7
 116 260 108 236 97 213 c 4
 78 175 62 127 43 92 c 4
 34 75 26 65 20 65 c 7
 13 65 0 68 0 78 c 7
 0 85 4 97 14 119 c 4
 52 212 91 298 128 391 c 4
 131 397 151 461 163 461 c 7
 179 461 194 403 200 386 c 4
 262 240 262 250 306 137 c 4
 311 123 323 88 323 80 c 7
 323 65 303 62 280 62 c 4
 266 62 251 63 239 63 c 7
134 43 m 7
 155 43 176 29 176 8 c 31
 176 -17 169 -42 136 -42 c 7
 103 -42 89 -21 89 5 c 7
 89 27 104 43 134 43 c 7
EndSplineSet
Fore
SplineSet
74 11 m 1
 71 15 l 2
 29 71 l 2
 22 79 18 84 14 84 c 0
 3 84 -8 65 -16 55 c 0
 -75 -31 -106 -124 -106 -217 c 0
 -106 -317 -69 -418 2 -511 c 0
 10 -520 15 -525 20 -525 c 0
 27 -525 31 -516 31 -509 c 0
 31 -501 26 -493 20 -485 c 0
 -42 -398 -73 -310 -73 -218 c 0
 -73 -148 -59 -76 -14 -3 c 0
 1 21 11 30 19 30 c 0
 23 30 26 28 29 24 c 2
 74 -36 l 1
 74 11 l 1
EndSplineSet
EndChar

StartChar: Ccircumflex
Encoding: 264 264 94
Width: 1000
VWidth: 0
Flags: H
LayerCount: 2
Back
SplineSet
112 473 m 7
 102 473 80 460 61 414 c 4
 56 403 35 363 35 340 c 4
 35 331 39 325 48 325 c 6
 50 325 l 6
 81 325 129 407 129 453 c 7
 129 464 124 473 112 473 c 7
109 494 m 7
 131 494 131 475 149 475 c 7
 159 475 162 486 172 486 c 23
 173 486 175 486 176 486 c 4
 182 486 187 485 187 476 c 7
 187 457 177 443 158 394 c 4
 149 370 136 347 136 333 c 7
 136 325 140 322 146 322 c 23
 160 322 169 336 176 347 c 4
 179 352 185 370 193 370 c 7
 197 370 198 368 198 364 c 4
 198 362 197 359 196 356 c 4
 191 343 178 300 135 300 c 7
 97 300 112 332 96 332 c 7
 82 332 71 302 40 302 c 7
 17 302 0 328 0 350 c 7
 0 403 49 494 109 494 c 7
EndSplineSet
EndChar

StartChar: aogonek
Encoding: 261 261 95
Width: 1000
VWidth: 0
Flags: H
LayerCount: 2
Back
SplineSet
399 341 m 3xbf80
 385 341 367 305 367 292 c 3
 367 280 374 277 381 277 c 3
 402 277 420 285 440 285 c 3
 524 285 558 225 558 158 c 3
 558 96 499 27 450 7 c 0
 422 -4 386 -7 353 -7 c 3
 298 -7 249 33 249 87 c 3
 249 122 265 161 305 161 c 3
 328 161 350 149 350 120 c 3
 350 80 307 83 307 53 c 3
 307 35 317 21 352 21 c 3
 426 21 442 68 464 125 c 0
 472 146 486 179 486 206 c 0
 486 230 477 252 441 252 c 3
 364 252 347 205 323 205 c 3
 314 205 309 213 309 222 c 3
 309 259 338 309 351 337 c 0
 366 370 366 367 373 387 c 0
 378 403 390 434 415 434 c 3
 457 434 465 421 558 421 c 3
 577 421 588 424 607 424 c 3
 615 424 625 418 625 411 c 3
 625 381 488 341 399 341 c 3xbf80
154 49 m 7
 154 23 209 37 209 13 c 7
 209 -2 195 -2 180 -2 c 3
 134 -2 136 2 90 2 c 3
 80 2 53 1 45 1 c 3
 41 1 38 1 34 1 c 0
 11 1 0 2 0 14 c 0
 0 36 6 33 45 38 c 0x7f80
 67 42 73 52 81 69 c 0
 107 123 123.367 169.292 149 234 c 24
 155.359 250.053 163 268 163 276 c 3
 163 280 158 282 153 282 c 3
 131 282 89 240 74 240 c 3
 66 240 62 240 62 249 c 3
 62 261 81 278 88 285 c 2
 188 386 l 2
 200 398 232 439 245 439 c 3
 262 439 268 430 290 426 c 0
 296 425 302 423 302 416 c 3
 302 392 290 372 281 354 c 0
 245.611 276.788 212.718 195.375 180 114 c 0
 180 114 154 59 154 49 c 7
EndSplineSet
EndChar

StartChar: U
Encoding: 85 85 97
Width: 0
VWidth: 0
Flags: HMW
LayerCount: 2
Back
SplineSet
348 380 m 7
 445 380 520 310 520 206 c 7
 520 113 448 40 363 40 c 7
 336 40 323 46 305 46 c 7
 297 46 289 45 279 29 c 4
 269 15 267 9 267 0 c 7
 267 -10 269 -13 278 -27 c 4
 289 -43 295 -44 308 -44 c 7
 326 -44 327 -40 362 -40 c 7
 448 -40 520 -111 520 -205 c 7
 520 -313 441 -380 348 -380 c 7
 280 -380 206 -350 206 -268 c 7
 206 -230 232 -202 268 -202 c 7
 296 -202 322 -221 322 -256 c 7
 322 -310 268 -306 268 -328 c 7
 268 -352 307 -358 328 -358 c 7
 375 -358 422 -318 422 -213 c 7
 422 -137 408 -70 344 -70 c 7
 305 -70 274 -102 270 -148 c 4
 268 -159 269 -167 260 -167 c 7
 250 -167 254 -161 245 -128 c 4
 237 -98 208 -28 182 -28 c 7
 173 -28 169 -30 169 -65 c 6
 169 -350 l 6
 169 -370 167 -380 147 -380 c 7
 134 -380 130 -362 130 -350 c 5
 130 347 l 6
 130 368 131 380 150 380 c 7
 165 380 169 376 169 350 c 6
 169 68 l 6
 169 35 173 30 181 30 c 7
 211 30 239 94 247 136 c 4
 250 151 248 170 259 170 c 7
 265 170 265 162 267 152 c 4
 273 108 301 70 345 70 c 7
 407 70 422 134 422 203 c 7
 422 301 403 358 321 358 c 7
 301 358 269 349 269 329 c 7
 269 307 317 312 317 256 c 7
 317 225 292 208 262 208 c 7
 229 208 206 236 206 265 c 7
 206 341 272 380 348 380 c 7
0 -338 m 6
 0 330 l 6
 0 374 1 380 46 380 c 7
 97 380 93 371 93 329 c 6
 93 -332 l 6
 93 -385 95 -380 36 -380 c 7
 -1 -380 0 -375 0 -338 c 6
EndSplineSet
EndChar

StartChar: x
Encoding: 120 120 99
Width: 638
Flags: W
HStem: 111 20G<201 208 445 451.5>
VStem: 0 36<-337.3 -120.849>
LayerCount: 2
Back
SplineSet
87 -420 m 0
 87 -430 85 -440 77 -440 c 0
 70 -440 66 -435 60 -427 c 0
 19 -371 0 -297 0 -234 c 0
 0 -122 39 -46 104 27 c 2
 176 107 l 2
 191 123 198 131 204 131 c 0
 212 131 218 120 232 98 c 2
 281 20 l 2
 292 3 300 -5 308 -5 c 0
 318 -5 328 4 345 23 c 2
 420 106 l 1
 434 123 442 132 448 132 c 0
 455 132 461 123 474 103 c 2
 528 17 l 2
 539 1 545 -8 553 -8 c 0
 561 -8 571 2 590 22 c 2
 610 44 l 2
 615 50 619 53 622 53 c 0
 628 53 638 36 638 28 c 0
 638 23 635 17 628 9 c 2
 532 -98 l 2
 514 -118 505 -130 497 -130 c 0
 489 -130 482 -119 467 -96 c 2
 419 -21 l 2
 407 -2 400 8 392 8 c 0
 384 8 375 0 359 -18 c 2
 282 -104 l 2
 266 -122 259 -131 252 -131 c 0
 244 -131 238 -121 225 -100 c 2
 172 -18 l 2
 161 -1 155 8 147 8 c 0
 139 8 131 2 115 -16 c 2
 112 -20 l 2
 52 -84 31 -154 31 -235 c 0
 31 -290 47 -360 80 -403 c 0
 84 -408 87 -415 87 -420 c 0
EndSplineSet
Fore
SplineSet
90 -406 m 4
 90 -416 83 -442 76 -442 c 4
 72 -442 66 -435 60 -427 c 4
 19 -371 0 -297 0 -234 c 4
 0 -122 39 -46 104 27 c 6
 176 107 l 2
 191 123 198 131 204 131 c 0
 212 131 218 120 232 98 c 2
 281 20 l 2
 292 3 300 -5 308 -5 c 0
 318 -5 328 4 345 23 c 2
 420 106 l 1
 434 123 442 132 448 132 c 0
 455 132 461 123 474 103 c 2
 528 17 l 2
 539 1 545 -8 553 -8 c 0
 561 -8 571 2 590 22 c 2
 610 44 l 2
 615 50 619 53 622 53 c 0
 628 53 638 36 638 28 c 0
 638 23 635 17 628 9 c 2
 532 -98 l 2
 514 -118 505 -130 497 -130 c 0
 489 -130 482 -119 467 -96 c 2
 419 -21 l 2
 407 -2 400 8 392 8 c 0
 384 8 375 0 359 -18 c 2
 282 -104 l 2
 266 -122 259 -131 252 -131 c 0
 244 -131 238 -121 225 -100 c 2
 172 -18 l 2
 161 -1 155 8 147 8 c 4
 139 8 129 0 115 -16 c 4
 56 -85 36 -152 36 -235 c 4
 36 -290 51 -353 86 -397 c 4
 89 -401 90 -403 90 -406 c 4
EndSplineSet
EndChar

StartChar: y
Encoding: 121 121 100
Width: 883
Flags: HW
LayerCount: 2
Back
SplineSet
115 -16 m 2
 110 -22 l 2
 50 -85 31 -154 31 -235 c 0
 31 -290 47 -360 80 -403 c 0
 84 -408 87 -415 87 -420 c 0
 87 -430 85 -440 77 -440 c 0
 70 -440 66 -435 60 -427 c 0
 19 -371 0 -297 0 -234 c 0
 0 -122 39 -46 104 27 c 2
 176 107 l 2
 190 123 198 131 204 131 c 0
 212 131 218 120 232 98 c 2
 281 20 l 2
 292 3 300 -5 308 -5 c 0
 318 -5 328 4 345 23 c 2
 420 106 l 2
 434 123 442 132 448 132 c 0
 455 132 461 123 474 103 c 2
 528 17 l 2
 539 1 545 -8 553 -8 c 0
 561 -8 572 2 591 23 c 2
 665 106 l 2
 680 122 687 132 693 132 c 0
 700 132 706 123 719 103 c 2
 773 17 l 2
 784 1 790 -8 798 -8 c 0
 806 -8 816 2 835 22 c 2
 855 44 l 2
 860 50 864 53 867 53 c 0
 873 53 883 36 883 28 c 0
 883 23 880 17 873 9 c 2
 777 -98 l 2
 759 -118 750 -130 742 -130 c 0
 734 -130 727 -119 712 -96 c 2
 664 -21 l 2
 652 -2 645 8 637 8 c 0
 629 8 620 0 604 -18 c 2
 532 -98 l 2
 514 -118 505 -130 497 -130 c 0
 489 -130 482 -119 467 -96 c 2
 419 -21 l 2
 407 -2 400 8 392 8 c 0
 384 8 375 0 359 -18 c 2
 282 -104 l 2
 266 -122 259 -131 252 -131 c 0
 244 -131 238 -121 225 -100 c 2
 172 -18 l 2
 161 -1 155 8 147 8 c 0
 139 8 131 -1 115 -16 c 2
EndSplineSet
Fore
SplineSet
104 27 m 2
 176 107 l 2
 190 123 198 131 204 131 c 0
 212 131 218 120 232 98 c 2
 281 20 l 2
 292 3 300 -5 308 -5 c 0
 318 -5 328 4 345 23 c 2
 420 106 l 2
 434 123 442 132 448 132 c 0
 455 132 461 123 474 103 c 2
 528 17 l 2
 539 1 545 -8 553 -8 c 0
 561 -8 572 2 591 23 c 2
 665 106 l 2
 680 122 687 132 693 132 c 0
 700 132 706 123 719 103 c 2
 773 17 l 2
 784 1 790 -8 798 -8 c 0
 806 -8 816 2 835 22 c 2
 855 44 l 2
 860 50 864 53 867 53 c 0
 873 53 883 36 883 28 c 0
 883 23 880 17 873 9 c 2
 777 -98 l 2
 759 -118 750 -130 742 -130 c 0
 734 -130 727 -119 712 -96 c 2
 664 -21 l 2
 652 -2 645 8 637 8 c 0
 629 8 620 0 604 -18 c 2
 532 -98 l 2
 514 -118 505 -130 497 -130 c 0
 489 -130 482 -119 467 -96 c 2
 419 -21 l 2
 407 -2 400 8 392 8 c 0
 384 8 375 0 359 -18 c 2
 282 -104 l 2
 266 -122 259 -131 252 -131 c 0
 244 -131 238 -121 225 -100 c 2
 172 -18 l 2
 161 -1 155 8 147 8 c 0
 139 8 129 0 115 -16 c 0
 56 -85 36 -152 36 -235 c 0
 36 -290 51 -353 86 -397 c 0
 89 -401 90 -403 90 -406 c 0
 90 -416 83 -442 76 -442 c 0
 72 -442 66 -435 60 -427 c 0
 19 -371 0 -297 0 -234 c 0
 0 -122 39 -46 104 27 c 2
EndSplineSet
EndChar

StartChar: z
Encoding: 122 122 101
Width: 1128
Flags: HW
LayerCount: 2
Back
SplineSet
115 -17 m 2
 130 0 139 8 147 8 c 0
 155 8 161 -1 172 -18 c 2
 225 -100 l 2
 238 -121 244 -131 252 -131 c 0
 259 -131 266 -122 282 -104 c 2
 359 -18 l 2
 375 0 384 8 392 8 c 0
 400 8 407 -2 419 -21 c 2
 467 -96 l 2
 482 -119 489 -130 497 -130 c 0
 505 -130 514 -118 532 -98 c 2
 604 -18 l 2
 620 0 629 8 637 8 c 0
 645 8 652 -2 664 -21 c 2
 712 -96 l 2
 727 -119 734 -130 742 -130 c 0
 750 -130 759 -118 777 -98 c 2
 849 -18 l 2
 865 -1 874 8 882 8 c 0
 890 8 897 -2 909 -21 c 2
 957 -96 l 2
 972 -119 979 -130 987 -130 c 0
 995 -130 1004 -118 1022 -98 c 2
 1118 9 l 2
 1125 17 1128 23 1128 28 c 0
 1128 36 1118 53 1112 53 c 0
 1109 53 1105 50 1100 44 c 2
 1080 22 l 2
 1061 2 1051 -8 1043 -8 c 0
 1035 -8 1029 1 1018 17 c 2
 964 103 l 2
 951 123 945 132 938 132 c 0
 932 132 925 122 910 106 c 2
 836 23 l 2
 817 1 806 -8 798 -8 c 0
 790 -8 784 1 773 17 c 2
 719 103 l 2
 706 123 700 132 693 132 c 0
 687 132 680 122 665 106 c 2
 591 23 l 2
 572 2 561 -8 553 -8 c 0
 545 -8 539 1 528 17 c 2
 474 103 l 2
 461 123 455 132 448 132 c 0
 442 132 434 123 420 106 c 2
 345 23 l 2
 328 4 318 -5 308 -5 c 0
 300 -5 292 3 281 20 c 2
 232 98 l 2
 218 120 212 131 204 131 c 0
 198 131 190 123 176 107 c 2
 104 27 l 2
 39 -46 0 -122 0 -234 c 0
 0 -297 19 -371 60 -427 c 0
 66 -435 70 -440 77 -440 c 0
 85 -440 87 -430 87 -420 c 0
 87 -415 84 -408 80 -403 c 0
 47 -360 31 -290 31 -235 c 0
 31 -142 54 -85 112 -20 c 2
 115 -17 l 2
EndSplineSet
Fore
SplineSet
104 27 m 2
 176 107 l 2
 190 123 198 131 204 131 c 0
 212 131 218 120 232 98 c 2
 281 20 l 2
 292 3 300 -5 308 -5 c 0
 318 -5 328 4 345 23 c 2
 420 106 l 2
 434 123 442 132 448 132 c 0
 455 132 461 123 474 103 c 2
 528 17 l 2
 539 1 545 -8 553 -8 c 0
 561 -8 572 2 591 23 c 2
 665 106 l 2
 680 122 687 132 693 132 c 0
 700 132 706 123 719 103 c 2
 773 17 l 2
 784 1 790 -8 798 -8 c 0
 806 -8 817 1 836 23 c 2
 910 106 l 2
 925 122 932 132 938 132 c 0
 945 132 951 123 964 103 c 2
 1018 17 l 2
 1029 1 1035 -8 1043 -8 c 0
 1051 -8 1061 2 1080 22 c 2
 1100 44 l 2
 1105 50 1109 53 1112 53 c 0
 1118 53 1128 36 1128 28 c 0
 1128 23 1125 17 1118 9 c 2
 1022 -98 l 2
 1004 -118 995 -130 987 -130 c 0
 979 -130 972 -119 957 -96 c 2
 909 -21 l 2
 897 -2 890 8 882 8 c 0
 874 8 865 -1 849 -18 c 2
 777 -98 l 2
 759 -118 750 -130 742 -130 c 0
 734 -130 727 -119 712 -96 c 2
 664 -21 l 2
 652 -2 645 8 637 8 c 0
 629 8 620 0 604 -18 c 2
 532 -98 l 2
 514 -118 505 -130 497 -130 c 0
 489 -130 482 -119 467 -96 c 2
 419 -21 l 2
 407 -2 400 8 392 8 c 0
 384 8 375 0 359 -18 c 2
 282 -104 l 2
 266 -122 259 -131 252 -131 c 0
 244 -131 238 -121 225 -100 c 2
 172 -18 l 2
 161 -1 155 8 147 8 c 0
 139 8 129 0 115 -16 c 0
 56 -85 36 -152 36 -235 c 0
 36 -290 51 -353 86 -397 c 0
 89 -401 90 -403 90 -406 c 0
 90 -416 83 -442 76 -442 c 0
 72 -442 66 -435 60 -427 c 0
 19 -371 0 -297 0 -234 c 0
 0 -122 40.0303 -44.0771 104 27 c 2
EndSplineSet
EndChar

StartChar: braceleft
Encoding: 123 123 102
Width: 1373
Flags: HW
LayerCount: 2
Back
SplineSet
115 -17 m 2
 112 -20 l 2
 52 -84 31 -154 31 -235 c 0
 31 -290 47 -360 80 -403 c 0
 84 -408 87 -415 87 -420 c 0
 87 -430 85 -440 77 -440 c 0
 70 -440 66 -435 60 -427 c 0
 19 -371 0 -297 0 -234 c 0
 0 -122 39 -46 104 27 c 2
 176 107 l 2
 190 123 198 131 204 131 c 0
 212 131 218 120 232 98 c 2
 281 20 l 2
 292 3 300 -5 308 -5 c 0
 318 -5 328 4 345 23 c 2
 420 106 l 2
 434 123 442 132 448 132 c 0
 455 132 461 123 474 103 c 2
 528 17 l 2
 539 1 545 -8 553 -8 c 0
 561 -8 572 2 591 23 c 2
 665 106 l 2
 680 122 687 132 693 132 c 0
 700 132 706 123 719 103 c 2
 773 17 l 2
 784 1 790 -8 798 -8 c 0
 806 -8 817 1 836 23 c 2
 910 106 l 2
 925 122 932 132 938 132 c 0
 945 132 951 123 964 103 c 2
 1018 17 l 2
 1029 1 1035 -8 1043 -8 c 0
 1051 -8 1062 1 1080 22 c 2
 1155 106 l 2
 1170 122 1177 132 1183 132 c 0
 1190 132 1196 123 1209 103 c 2
 1263 17 l 2
 1274 1 1280 -8 1288 -8 c 0
 1296 -8 1306 2 1325 22 c 2
 1345 44 l 2
 1350 50 1354 53 1357 53 c 0
 1363 53 1373 36 1373 28 c 0
 1373 23 1370 17 1363 9 c 2
 1267 -98 l 2
 1249 -118 1240 -130 1232 -130 c 0
 1224 -130 1217 -119 1202 -96 c 2
 1154 -21 l 2
 1142 -2 1135 8 1127 8 c 0
 1119 8 1109 -1 1094 -18 c 2
 1022 -98 l 2
 1004 -118 995 -130 987 -130 c 0
 979 -130 972 -119 957 -96 c 2
 909 -21 l 2
 897 -2 890 8 882 8 c 0
 874 8 865 -1 849 -18 c 2
 777 -98 l 2
 759 -118 750 -130 742 -130 c 0
 734 -130 727 -119 712 -96 c 2
 664 -21 l 2
 652 -2 645 8 637 8 c 0
 629 8 620 0 604 -18 c 2
 532 -98 l 2
 514 -118 505 -130 497 -130 c 0
 489 -130 482 -119 467 -96 c 2
 419 -21 l 2
 407 -2 400 8 392 8 c 0
 384 8 375 0 359 -18 c 2
 282 -104 l 2
 266 -122 259 -131 252 -131 c 0
 244 -131 238 -121 225 -100 c 2
 172 -18 l 2
 161 -1 155 8 147 8 c 0
 139 8 130 0 115 -17 c 2
EndSplineSet
Fore
SplineSet
147 8 m 0
 139 8 129 0 115 -16 c 0
 56 -85 36 -152 36 -235 c 0
 36 -290 51 -353 86 -397 c 0
 89 -401 90 -403 90 -406 c 0
 90 -416 83 -442 76 -442 c 0
 72 -442 66 -435 60 -427 c 0
 19 -371 0 -297 0 -234 c 0
 0 -122 39 -46 104 27 c 2
 176 107 l 2
 190 123 198 131 204 131 c 0
 212 131 218 120 232 98 c 2
 281 20 l 2
 292 3 300 -5 308 -5 c 0
 318 -5 328 4 345 23 c 2
 420 106 l 2
 434 123 442 132 448 132 c 0
 455 132 461 123 474 103 c 2
 528 17 l 2
 539 1 545 -8 553 -8 c 0
 561 -8 572 2 591 23 c 2
 665 106 l 2
 680 122 687 132 693 132 c 0
 700 132 706 123 719 103 c 2
 773 17 l 2
 784 1 790 -8 798 -8 c 0
 806 -8 817 1 836 23 c 2
 910 106 l 2
 925 122 932 132 938 132 c 0
 945 132 951 123 964 103 c 2
 1018 17 l 2
 1029 1 1035 -8 1043 -8 c 0
 1051 -8 1062 1 1080 22 c 2
 1155 106 l 2
 1170 122 1177 132 1183 132 c 0
 1190 132 1196 123 1209 103 c 2
 1263 17 l 2
 1274 1 1280 -8 1288 -8 c 0
 1296 -8 1306 2 1325 22 c 2
 1345 44 l 2
 1350 50 1354 53 1357 53 c 0
 1363 53 1373 36 1373 28 c 0
 1373 23 1370 17 1363 9 c 2
 1267 -98 l 2
 1249 -118 1240 -130 1232 -130 c 0
 1224 -130 1217 -119 1202 -96 c 2
 1154 -21 l 2
 1142 -2 1135 8 1127 8 c 0
 1119 8 1109 -1 1094 -18 c 2
 1022 -98 l 2
 1004 -118 995 -130 987 -130 c 0
 979 -130 972 -119 957 -96 c 2
 909 -21 l 2
 897 -2 890 8 882 8 c 0
 874 8 865 -1 849 -18 c 2
 777 -98 l 2
 759 -118 750 -130 742 -130 c 0
 734 -130 727 -119 712 -96 c 2
 664 -21 l 2
 652 -2 645 8 637 8 c 0
 629 8 620 0 604 -18 c 2
 532 -98 l 2
 514 -118 505 -130 497 -130 c 0
 489 -130 482 -119 467 -96 c 2
 419 -21 l 2
 407 -2 400 8 392 8 c 0
 384 8 375 0 359 -18 c 2
 282 -104 l 2
 266 -122 259 -131 252 -131 c 0
 244 -131 238 -121 225 -100 c 2
 172 -18 l 2
 161 -1 155 8 147 8 c 0
EndSplineSet
EndChar

StartChar: bar
Encoding: 124 124 103
Width: 989
Flags: W
HStem: 51 38<114.48 251.947> 111 20G<552 559 796 802.5> 111 20G<552 559 796 802.5>
LayerCount: 2
Back
SplineSet
405 -30 m 2
 527 107 l 2
 541 123 549 131 555 131 c 0
 563 131 569 120 583 98 c 2
 632 20 l 2
 643 3 651 -5 659 -5 c 0
 669 -5 679 4 696 23 c 2
 771 106 l 1
 785 123 793 132 799 132 c 0
 806 132 812 123 825 103 c 2
 879 17 l 2
 890 1 896 -8 904 -8 c 0
 912 -8 922 2 941 22 c 2
 961 44 l 2
 966 50 970 53 973 53 c 0
 979 53 989 36 989 28 c 0
 989 23 986 17 979 9 c 2
 883 -98 l 2
 865 -118 856 -130 848 -130 c 0
 840 -130 833 -119 818 -96 c 2
 770 -21 l 2
 758 -2 751 8 743 8 c 0
 735 8 726 0 710 -18 c 2
 633 -104 l 2
 617 -122 610 -131 603 -131 c 0
 595 -131 589 -121 576 -100 c 2
 523 -18 l 2
 512 -1 506 8 498 8 c 0
 490 8 481 0 466 -17 c 2
 408 -82 l 2
 398 -92 394 -95 385 -86 c 2
 343 -45 l 2
 297 2 255 25 218 36 c 0
 120 64 50 4 36 -43 c 1
 5 -34 l 1
 24 31 112 99 227 66 c 0
 270 54 317 27 366 -22 c 2
 376 -32 l 2
 386 -42 394 -42 405 -30 c 2
EndSplineSet
Fore
SplineSet
408 -26 m 6xc0
 527 107 l 2
 541.176 122.844 549 131 555 131 c 0
 563 131 569 120 583 98 c 2
 632 20 l 2
 643 3 651 -5 659 -5 c 0
 669 -5 679 4 696 23 c 2
 771 106 l 1
 785 123 793 132 799 132 c 0
 806 132 812 123 825 103 c 2
 879 17 l 2
 890 1 896 -8 904 -8 c 0
 912 -8 922 2 941 22 c 2
 961 44 l 2
 966 50 970 53 973 53 c 0
 979 53 989 36 989 28 c 0
 989 23 986 17 979 9 c 2
 883 -98 l 2
 865 -118 856 -130 848 -130 c 0
 840 -130 833 -119 818 -96 c 2
 770 -21 l 2
 758 -2 751 8 743 8 c 0
 735 8 726 0 710 -18 c 2
 633 -104 l 2
 617 -122 610 -131 603 -131 c 0
 595 -131 589 -121 576 -100 c 2
 523 -18 l 2
 512 -1 506 8 498 8 c 0
 490 8 481 0 466 -17 c 6
 408 -82 l 6
 398 -92 394 -95 385 -86 c 6
 365 -65 l 6
 290 16 243 51 181 51 c 4
 127 51 84 20 55 -29 c 4
 51 -37 47 -39 39 -39 c 4
 27 -39 0 -37 0 -28 c 4
 0 -25 2 -21 4 -16 c 4
 27 32 99 89 179 89 c 4
 257 89 310 43 370 -17 c 6
 380 -27 l 6
 390 -37 397 -38 408 -26 c 6xc0
EndSplineSet
EndChar

StartChar: braceright
Encoding: 125 125 104
Width: 1234
Flags: HW
LayerCount: 2
Fore
SplineSet
408 -26 m 2
 527 107 l 2
 541 123 549 131 555 131 c 0
 563 131 569 120 583 98 c 2
 632 20 l 2
 643 3 651 -5 659 -5 c 0
 669 -5 679 4 696 23 c 2
 771 106 l 2
 785 123 793 132 799 132 c 0
 806 132 812 123 825 103 c 2
 879 17 l 2
 890 1 896 -8 904 -8 c 0
 912 -8 923 2 942 23 c 2
 1016 106 l 2
 1031 122 1038 132 1044 132 c 0
 1051 132 1057 123 1070 103 c 2
 1124 17 l 2
 1135 1 1141 -8 1149 -8 c 0
 1157 -8 1167 2 1186 22 c 2
 1206 44 l 2
 1211 50 1215 53 1218 53 c 0
 1224 53 1234 36 1234 28 c 0
 1234 23 1231 17 1224 9 c 2
 1128 -98 l 2
 1110 -118 1101 -130 1093 -130 c 0
 1085 -130 1078 -119 1063 -96 c 2
 1015 -21 l 2
 1003 -2 996 8 988 8 c 0
 980 8 971 0 955 -18 c 2
 883 -98 l 2
 865 -118 856 -130 848 -130 c 0
 840 -130 833 -119 818 -96 c 2
 770 -21 l 2
 758 -2 751 8 743 8 c 0
 735 8 726 0 710 -18 c 2
 633 -104 l 2
 617 -122 610 -131 603 -131 c 0
 595 -131 589 -121 576 -100 c 2
 523 -18 l 2
 512 -1 506 8 498 8 c 0
 490 8 481 0 466 -17 c 2
 408 -82 l 2
 399 -93 394 -95 385 -86 c 2
 365 -65 l 2
 290 16 243 51 181 51 c 0
 127 51 84 20 55 -29 c 0
 51 -37 47 -39 39 -39 c 0
 27 -39 0 -37 0 -28 c 0
 0 -25 2 -21 4 -16 c 0
 27 32 99 89 179 89 c 0
 257 89 310 43 370 -17 c 2
 380 -27 l 2
 390 -37 397 -38 408 -26 c 2
EndSplineSet
EndChar

StartChar: at
Encoding: 64 64 105
Width: 586
Flags: W
HStem: 111 20G<144 151 388 394.5>
LayerCount: 2
Fore
SplineSet
21 -52 m 0
 15 -52 4 -35 4 -28 c 0
 4 -23 7 -18 14 -11 c 2
 119 107 l 2
 133 123 141 131 147 131 c 0
 155 131 161 120 175 98 c 2
 224 20 l 2
 235 3 243 -5 251 -5 c 0
 261 -5 271 4 288 23 c 2
 363 106 l 2
 377 123 385 132 391 132 c 0
 398 132 404 123 417 103 c 2
 471 17 l 2
 482 1 488 -8 496 -8 c 0
 504 -8 514 2 533 22 c 2
 553 44 l 2
 558 50 562 53 565 53 c 0
 571 53 581 36 581 28 c 0
 581 23 578 17 571 9 c 2
 475 -98 l 2
 457 -118 448 -130 440 -130 c 0
 432 -130 425 -119 410 -96 c 2
 362 -21 l 2
 350 -2 343 8 335 8 c 0
 327 8 318 -0 302 -18 c 2
 225 -104 l 2
 209 -122 202 -131 195 -131 c 0
 187 -131 181 -121 168 -100 c 2
 115 -18 l 2
 104 -1 98 8 90 8 c 0
 82 8 73 -0 58 -17 c 2
 36 -42 l 2
 29 -49 25 -52 21 -52 c 0
EndSplineSet
EndChar

StartChar: degree
Encoding: 176 176 106
Width: 596
VWidth: 0
Flags: W
LayerCount: 2
Fore
SplineSet
14 -116 m 0
 7 -116 0 -102 0 -94 c 0
 0 -86 3 -79 10 -68 c 2
 121 108 l 2
 136 131 145 143 154 143 c 0
 163 143 171 131 186 107 c 2
 228 37 l 2
 245 9 254 -6 264 -6 c 0
 274 -6 283 7 299 32 c 2
 344 103 l 2
 360 128 370 141 379 141 c 0
 390 141 400 127 416 100 c 2
 451 41 l 2
 469 11 479 -4 489 -4 c 0
 498 -4 508 11 525 38 c 2
 567 105 l 2
 569 109 575 115 580 115 c 0
 588 115 596 102 596 94 c 0
 596 87 593 80 587 71 c 2
 481 -97 l 2
 462 -126 451 -140 441 -140 c 0
 430 -140 420 -125 403 -96 c 2
 365 -33 l 2
 349 -6 340 7 330 7 c 0
 322 7 313 -4 299 -26 c 2
 248 -108 l 2
 233 -131 225 -143 216 -143 c 0
 206 -143 196 -129 179 -99 c 2
 141 -36 l 2
 124 -8 116 6 107 6 c 0
 99 6 91 -5 76 -29 c 2
 33 -98 l 2
 26 -108 20 -116 14 -116 c 0
EndSplineSet
EndChar

StartChar: plusminus
Encoding: 177 177 107
Width: 822
VWidth: 0
Flags: HW
LayerCount: 2
Back
SplineSet
14 -116 m 0
 7 -116 0 -102 0 -94 c 0
 0 -86 3 -79 10 -68 c 2
 121 108 l 2
 136 131 145 143 154 143 c 0
 163 143 171 131 186 107 c 2
 228 37 l 2
 245 9 254 -6 264 -6 c 0
 274 -6 283 7 299 32 c 2
 344 103 l 2
 360 128 370 141 379 141 c 0
 390 141 400 127 416 100 c 2
 451 41 l 2
 469 11 479 -4 489 -4 c 0
 498 -4 508 11 525 38 c 2
 567 105 l 2
 569 109 575 115 580 115 c 0
 588 115 596 102 596 94 c 0
 596 87 593 80 587 71 c 2
 481 -97 l 2
 462 -126 451 -140 441 -140 c 0
 430 -140 420 -125 403 -96 c 2
 365 -33 l 2
 349 -6 340 7 330 7 c 0
 322 7 313 -4 299 -26 c 2
 248 -108 l 2
 233 -131 225 -143 216 -143 c 0
 206 -143 196 -129 179 -99 c 2
 141 -36 l 2
 124 -8 116 6 107 6 c 0
 99 6 91 -5 76 -29 c 2
 33 -98 l 2
 26 -108 20 -116 14 -116 c 0
EndSplineSet
Fore
SplineSet
441 -142 m 0
 430 -142 420 -125 403 -96 c 2
 365 -33 l 2
 349 -6 340 7 330 7 c 0
 322 7 313 -4 299 -26 c 2
 248 -108 l 2
 233 -131 225 -143 216 -143 c 0
 206 -143 196 -129 179 -99 c 2
 141 -36 l 2
 124 -8 116 6 107 6 c 0
 99 6 91 -5 76 -29 c 2
 33 -98 l 2
 26 -108 20 -116 14 -116 c 0
 7 -116 0 -102 0 -94 c 0
 0 -86 3 -79 10 -68 c 2
 121 108 l 2
 136 131 145 143 154 143 c 0
 163 143 171 131 186 107 c 2
 228 37 l 2
 245 9 254 -6 264 -6 c 0
 274 -6 283 7 299 32 c 2
 344 103 l 2
 360 128 370 141 379 141 c 0
 390 141 400 127 416 100 c 2
 451 41 l 2
 469 11 479 -4 489 -4 c 0
 499 -4 509 7 525 32 c 2
 570 103 l 2
 586 128 596 141 605 141 c 0
 616 141 626 127 642 100 c 2
 677 41 l 2
 695 11 705 -4 715 -4 c 0
 724 -4 734 11 751 38 c 2
 793 105 l 2
 795 109 801 115 806 115 c 0
 814 115 822 102 822 94 c 0
 822 87 819 80 813 71 c 2
 707 -97 l 2
 688 -126 677 -140 667 -140 c 0
 656 -140 646 -125 629 -96 c 2
 591 -33 l 2
 575 -6 566 7 556 7 c 0
 548 7 539 -4 525 -26 c 2
 474 -108 l 2
 459 -131 450 -142 441 -142 c 0
EndSplineSet
EndChar

StartChar: uni00B5
Encoding: 181 181 108
Width: 544
VWidth: 0
Flags: HW
HStem: 78 69<54.7363 142 395.836 482.867> -147 69<61.1328 148.164 402 489.264>
VStem: 0 31<-53.893 59.7947> 513 31<-59.7947 53.893>
LayerCount: 2
Fore
SplineSet
307 91 m 2
 345 126 378 147 415 147 c 0
 487 147 544 84 544 3 c 0
 544 -65 511 -147 420 -147 c 0
 384 -147 352 -124 352 -86 c 0
 352 -58 372 -39 401 -39 c 0
 445 -39 448 -78 472 -78 c 0
 503 -78 513 -24 513 3 c 0
 513 54 482 78 448 78 c 0
 416 78 396 57 377 40 c 2
 237 -91 l 2
 199 -126 166 -147 129 -147 c 0
 57 -147 0 -84 0 -3 c 0
 0 65 33 147 124 147 c 0
 160 147 192 124 192 86 c 0
 192 58 172 39 143 39 c 0
 99 39 96 78 72 78 c 0
 41 78 31 24 31 -3 c 0
 31 -54 62 -78 96 -78 c 0
 128 -78 148 -57 167 -40 c 2
 307 91 l 2
EndSplineSet
EndChar

StartChar: paragraph
Encoding: 182 182 109
Width: 544
VWidth: 0
Flags: W
HStem: -212 21G<265 281.5> -147 69<54.7363 142 395.627 482.867> 78 69<61.1328 148.408 402 489.264>
VStem: 0 31<-59.7947 53.893> 255 35<-211.985 -96.1094 98.8425 211.915> 513 31<-53.893 59.7947>
LayerCount: 2
Fore
SplineSet
290 167 m 0
 290 141 290 124 290 104 c 0
 290 67 295 37 324 9 c 2
 377 -40 l 2
 396 -57 416 -78 448 -78 c 0
 482 -78 513 -54 513 -3 c 0
 513 24 503 78 472 78 c 0
 448 78 445 39 401 39 c 0
 372 39 352 58 352 86 c 0
 352 124 384 147 420 147 c 0
 511 147 544 65 544 -3 c 0
 544 -84 487 -147 415 -147 c 0
 385 -147 359 -134 330 -110 c 0
 317 -101 308 -95 301 -95 c 0
 293 -95 289 -104 289 -127 c 0
 289 -148 290 -169 290 -188 c 0
 290 -207 289 -212 274 -212 c 0
 256 -212 255 -209 255 -186 c 0
 255 -158 255 -132 255 -105 c 0
 255 -56 245 -33 214 -4 c 2
 167 40 l 2
 148 57 128 78 96 78 c 0
 62 78 31 54 31 3 c 0
 31 -24 41 -78 72 -78 c 0
 96 -78 99 -39 143 -39 c 0
 172 -39 192 -58 192 -86 c 0
 192 -124 160 -147 124 -147 c 0
 33 -147 0 -65 0 3 c 0
 0 84 57 147 129 147 c 0
 157 147 182 135 209 115 c 0
 223 104 233 98 240 98 c 0
 250 98 255 109 255 139 c 0
 255 150 255 162 255 175 c 0
 255 212 256 212 272 212 c 2
 273 212 l 2
 288 212 290 210 290 167 c 0
EndSplineSet
EndChar

StartChar: uni00B3
Encoding: 179 179 110
Width: 1274
VWidth: 0
Flags: HW
LayerCount: 2
Fore
SplineSet
893 -141 m 0
 882 -141 872 -125 855 -96 c 2
 817 -33 l 2
 801 -6 792 7 782 7 c 0
 774 7 765 -4 751 -26 c 2
 700 -108 l 2
 685 -131 676 -141 667 -141 c 0
 656 -141 646 -125 629 -96 c 2
 591 -33 l 2
 575 -6 566 7 556 7 c 0
 548 7 539 -4 525 -26 c 2
 474 -108 l 2
 459 -131 450 -142 441 -142 c 0
 430 -142 420 -125 403 -96 c 2
 365 -33 l 2
 349 -6 340 7 330 7 c 0
 322 7 313 -4 299 -26 c 2
 248 -108 l 2
 233 -131 225 -143 216 -143 c 0
 206 -143 196 -129 179 -99 c 2
 141 -36 l 2
 124 -8 116 6 107 6 c 0
 99 6 91 -5 76 -29 c 2
 33 -98 l 2
 26 -108 20 -116 14 -116 c 0
 7 -116 0 -102 0 -94 c 0
 0 -86 3 -79 10 -68 c 2
 121 108 l 2
 136 131 145 143 154 143 c 0
 163 143 171 131 186 107 c 2
 228 37 l 2
 245 9 254 -6 264 -6 c 0
 274 -6 283 7 299 32 c 2
 344 103 l 2
 360 128 370 141 379 141 c 0
 390 141 400 127 416 100 c 2
 451 41 l 2
 469 11 479 -4 489 -4 c 0
 499 -4 509 7 525 32 c 2
 570 103 l 2
 586 128 596 141 605 141 c 0
 616 141 626 127 642 100 c 2
 677 41 l 2
 695 11 705 -4 715 -4 c 0
 725 -4 735 7 751 32 c 2
 796 103 l 2
 812 128 822 141 831 141 c 0
 842 141 852 127 868 100 c 2
 903 41 l 2
 921 11 931 -4 941 -4 c 0
 951 -4 961 7 977 32 c 2
 1022 103 l 2
 1038 128 1048 141 1057 141 c 0
 1068 141 1078 127 1094 100 c 2
 1129 41 l 2
 1147 11 1157 -4 1167 -4 c 0
 1176 -4 1186 11 1203 38 c 2
 1245 105 l 2
 1247 109 1253 115 1258 115 c 0
 1266 115 1274 102 1274 94 c 0
 1274 87 1271 80 1265 71 c 2
 1159 -97 l 2
 1140 -126 1129 -140 1119 -140 c 0
 1108 -140 1098 -125 1081 -96 c 2
 1043 -33 l 2
 1027 -6 1018 7 1008 7 c 0
 1000 7 991 -4 977 -26 c 2
 926 -108 l 2
 911 -131 902 -141 893 -141 c 0
EndSplineSet
EndChar

StartChar: Gcommaaccent
Encoding: 290 290 111
Width: 1000
VWidth: 0
Flags: HM
LayerCount: 2
Back
SplineSet
54.9414 -67 m 29
 213 140 l 29
 331.089 -15 l 29
 449 140 l 29
 563.411 -9 l 21
 643.169 95.5 l 5
 665.822 66 l 5
 509 -140 l 13
 390.366 14.5 l 29
 272 -140 l 29
 157.337 9.33789 l 21
 78.2139 -96 l 13
 54.9414 -67 l 29
EndSplineSet
EndChar

StartChar: ecaron
Encoding: 283 283 114
Width: 1000
VWidth: 0
Flags: HM
LayerCount: 2
Back
SplineSet
86 60 m 4x9f80
 108 60 135 51 148 42 c 5
 190 155 l 5
 199 154 208 154 216 154 c 6
 239 154 l 5
 256 155 l 5
 197 10 l 5
 216 19 232 33 252 41 c 4
 271 49 290 54 306 54 c 4xaf80
 334 54 357 41 368 11 c 5
 386 26 420 47 450 47 c 4
 476 47 498 30 498 -1 c 4
 498 -32 485 -55 454 -55 c 4
 434 -55 424 -48 424 -28 c 4
 424 -21 425 -12 425 -5 c 4
 425 2 425 11 419 11 c 4xcf80
 412 11 399 0 397 -3 c 4
 382 -22 372 -46 361 -69 c 6
 284 -238 l 5
 211 -238 l 5
 291 -64 l 5
 302 -34 309 -12 309 0 c 4
 309 16 294 24 283 24 c 4xaf80
 252 24 208 -11 194 -18 c 5
 203 -45 213 -78 213 -114 c 4
 213 -166 198 -200 172 -225 c 4
 161 -235 146 -241 127 -241 c 4
 90 -241 66 -208 66 -172 c 4
 66 -145 75 -119 82 -99 c 5
 90 -80 l 5
 81 -82 73 -84 65 -84 c 4
 27 -84 2 -57 0 -21 c 4
 0 -19 0 -17 0 -15 c 4
 0 37 37 60 86 60 c 4x9f80
21 -22 m 4
 21 -45 40 -64 65 -64 c 4
 79 -64 95 -57 107 -48 c 5
 131 4 l 5
 131 27 108 37 84 37 c 4x9f80
 49 37 21 12 21 -22 c 4
120 -184 m 5
 120 -194 129 -205 138 -207 c 5
 177 -205 190 -165 190 -123 c 4
 190 -95 184 -66 176 -46 c 5
 173 -53 167 -64 161 -76 c 6
 143 -117 l 5
 127 -157 l 5
 120 -184 l 5
EndSplineSet
EndChar

StartChar: Gcircumflex
Encoding: 284 284 115
Width: 1000
VWidth: 0
Flags: HM
LayerCount: 2
Back
SplineSet
214.45 10.3486 m 6xac
 182.05 10.3486 178.45 -1.35156 171.25 -25.6514 c 6
 133.45 -164.252 l 6
 128.05 -186.752 126.25 -211.952 145.15 -211.952 c 7
 176.65 -211.952 235.15 -132.752 252.25 -72.4521 c 6
 263.05 -33.752 l 6
 272.05 1.34863 266.65 10.3486 234.25 10.3486 c 14
 214.45 10.3486 l 6xac
230.65 184.948 m 6
 198.25 68.8486 l 6
 192.85 48.1484 202.75 44.5479 213.55 44.5479 c 14
 244.15 44.5479 l 6xac
 271.15 44.5479 275.65 56.248 289.15 56.248 c 7x9c
 296.35 56.248 302.65 55.3486 309.85 55.3486 c 7
 326.95 55.3486 333.25 58.0479 341.35 58.0479 c 7
 359.35 58.0479 347.65 35.5479 360.25 35.5479 c 7
 370.15 35.5479 383.65 64.3486 423.25 64.3486 c 7
 467.35 64.3486 483.55 30.874 483.55 -4.95215 c 31
 483.55 -34.3066 471.85 -61.6514 434.05 -61.6514 c 7xcc
 412.45 -61.6514 398.05 -41.8516 398.05 -21.1514 c 7
 398.05 -7.65137 400.75 1.34863 404.35 8.54785 c 4
 419.65 37.3486 404.35 43.6484 380.95 20.248 c 4
 353.05 -9.45215 322.45 -76.0518 305.35 -137.252 c 6
 282.85 -218.252 l 6
 276.55 -240.752 272.95 -247.052 252.25 -247.052 c 6
 219.85 -247.052 l 6
 211.75 -247.052 204.55 -240.752 206.35 -231.752 c 4
 213.55 -203.852 196.45 -211.952 180.25 -225.452 c 4
 168.55 -235.352 151.45 -249.752 117.25 -249.752 c 7
 28.1504 -249.752 60.5498 -160.651 73.1504 -117.452 c 6
 100.15 -19.3516 l 6
 107.35 7.64844 95.6504 10.3486 77.6504 10.3486 c 14
 53.3496 10.3486 l 6
 35.3496 10.3486 25.4502 12.1484 25.4502 23.8486 c 7
 25.4502 38.248 33.5498 44.5479 63.25 44.5479 c 6
 75.8496 44.5479 l 6
 109.15 44.5479 118.15 47.248 123.55 66.1484 c 6
 137.05 114.748 l 6
 143.35 134.548 146.05 138.148 159.55 147.148 c 4
 185.65 163.349 193.75 174.148 211.75 196.648 c 4
 221.65 209.248 236.95 208.349 230.65 184.948 c 6
EndSplineSet
EndChar

StartChar: bracketright
Encoding: 93 93 117
Width: 145
VWidth: 0
Flags: HW
LayerCount: 2
Fore
SplineSet
145.949 -65 m 6
 136.646 -77.3652 122.741 -98.0508 99.7002 -67 c 4
 -34.9424 114.449 -33.5908 329.246 106.062 511.333 c 4
 117.912 526.12 126.801 531.752 132.752 519.667 c 4
 138.333 508.333 139.997 500.091 127.799 482.667 c 4
 14.9062 331.971 -10 176 95.4375 4.66699 c 4
 105.73 -12.0576 128.893 -31.585 142.336 -13.666 c 1030
EndSplineSet
EndChar

StartChar: hcircumflex
Encoding: 293 293 118
Width: 0
VWidth: 0
Flags: HM
LayerCount: 2
Back
SplineSet
1100.98 15 m 5
 983.367 -140 l 5
 864.277 15 l 5
 746 -140 l 5
 626.91 15 l 5
 509 -140 l 5
 390 14 l 13
 272 -140 l 29
 158 9 l 21
 79 -96 l 13
 55 -67 l 29
 213 140 l 29
 331 -15 l 21
 449 140 l 13
 568 -15 l 21
 686 140 l 13
 805.367 -15 l 21
 923.367 140 l 13
 1041.95 -15.1816 l 21
 1159.95 139.818 l 13
 1274.03 -8.5 l 21
 1353.5 96.25 l 5
 1376.95 65.8184 l 5
 1219.95 -140.182 l 5
 1100.98 15 l 5
EndSplineSet
EndChar

StartChar: kgreenlandic
Encoding: 312 312 119
Width: 1000
VWidth: 0
Flags: HM
LayerCount: 2
Back
SplineSet
-220 -38 m 1
 -220 -52 -223 -67 -228 -82 c 1
 -391 112 -392 350 -228 546 c 1
 -191 538 l 1
 -341 360 -349 144 -220 -38 c 1
EndSplineSet
EndChar

StartChar: uni007F
Encoding: 127 127 120
Width: 1724
Flags: HW
LayerCount: 2
Fore
SplineSet
408 -26 m 2
 527 107 l 2
 541 123 549 131 555 131 c 0
 563 131 569 120 583 98 c 2
 632 20 l 2
 643 3 651 -5 659 -5 c 0
 669 -5 679 4 696 23 c 2
 771 106 l 2
 785 123 793 132 799 132 c 0
 806 132 812 123 825 103 c 2
 879 17 l 2
 890 1 896 -8 904 -8 c 0
 912 -8 923 2 942 23 c 2
 1016 106 l 2
 1031 122 1038 132 1044 132 c 0
 1051 132 1057 123 1070 103 c 2
 1124 17 l 2
 1135 1 1141 -8 1149 -8 c 0
 1157 -8 1168 1 1187 23 c 2
 1261 106 l 2
 1276 122 1283 132 1289 132 c 0
 1296 132 1302 123 1315 103 c 2
 1369 17 l 2
 1380 1 1386 -8 1394 -8 c 0
 1402 -8 1413 1 1431 22 c 2
 1506 106 l 2
 1521 122 1528 132 1534 132 c 0
 1541 132 1547 123 1560 103 c 2
 1614 17 l 2
 1625 1 1631 -8 1639 -8 c 0
 1647 -8 1657 2 1676 22 c 2
 1696 44 l 2
 1701 50 1705 53 1708 53 c 0
 1714 53 1724 36 1724 28 c 0
 1724 23 1721 17 1714 9 c 2
 1618 -98 l 2
 1600 -118 1591 -130 1583 -130 c 0
 1575 -130 1568 -119 1553 -96 c 2
 1505 -21 l 2
 1493 -2 1486 8 1478 8 c 0
 1470 8 1460 -1 1445 -18 c 2
 1373 -98 l 2
 1355 -118 1346 -130 1338 -130 c 0
 1330 -130 1323 -119 1308 -96 c 2
 1260 -21 l 2
 1248 -2 1241 8 1233 8 c 0
 1225 8 1216 -1 1200 -18 c 2
 1128 -98 l 2
 1110 -118 1101 -130 1093 -130 c 0
 1085 -130 1078 -119 1063 -96 c 2
 1015 -21 l 2
 1003 -2 996 8 988 8 c 0
 980 8 971 0 955 -18 c 2
 883 -98 l 2
 865 -118 856 -130 848 -130 c 0
 840 -130 833 -119 818 -96 c 2
 770 -21 l 2
 758 -2 751 8 743 8 c 0
 735 8 726 0 710 -18 c 2
 633 -104 l 2
 617 -122 610 -131 603 -131 c 0
 595 -131 589 -121 576 -100 c 2
 523 -18 l 2
 512 -1 506 8 498 8 c 0
 490 8 481 0 466 -17 c 2
 408 -82 l 2
 399 -93 394 -95 385 -86 c 2
 365 -65 l 2
 290 16 243 51 181 51 c 0
 127 51 84 20 55 -29 c 0
 51 -37 47 -39 39 -39 c 0
 27 -39 0 -37 0 -28 c 0
 0 -25 2 -21 4 -16 c 0
 27 32 99 89 179 89 c 0
 257 89 310 43 370 -17 c 2
 380 -27 l 2
 390 -37 397 -38 408 -26 c 2
EndSplineSet
EndChar

StartChar: A
Encoding: 65 65 121
Width: 826
Flags: HW
LayerCount: 2
Fore
SplineSet
534 23 m 2
 608 106 l 2
 622.655 122.438 630 132 636 132 c 0
 643 132 649 123 662 103 c 2
 716 17 l 2
 727 1 733 -8 741 -8 c 0
 749 -8 759 2 778 22 c 2
 798 44 l 2
 803 50 807 53 810 53 c 0
 816 53 826 36 826 28 c 0
 826 23 823 17 816 9 c 2
 720 -98 l 2
 702 -118 693 -130 685 -130 c 0
 677 -130 670 -119 655 -96 c 2
 607 -21 l 2
 595 -2 588 8 580 8 c 0
 572 8 563.105 -0.0947266 546.992 -18 c 2
 475 -98 l 2
 457 -118.002 448 -130 440 -130 c 0
 432 -130 425 -119 410 -96 c 2
 362 -21 l 2
 350 -2 343 8 335 8 c 0
 327 8 318 -0 302 -18 c 2
 225 -104 l 2
 209 -122 202 -131 195 -131 c 0
 187 -131 181 -121 168 -100 c 2
 115 -18 l 2
 104 -1 98 8 90 8 c 0
 82 8 73 -0 58 -17 c 2
 36 -42 l 2
 29 -49 25 -52 21 -52 c 0
 15 -52 4 -35 4 -28 c 0
 4 -23 7 -18 14 -11 c 2
 119 107 l 2
 133 123 141 131 147 131 c 0
 155 131 161 120 175 98 c 2
 224 20 l 2
 235 3 243 -5 251 -5 c 0
 261 -5 271 4 288 23 c 2
 363 106 l 2
 377 123 385 132 391 132 c 0
 398 132 404 123 417 103 c 2
 471 17 l 2
 482 1 488 -8 496 -8 c 0
 504 -8 515.283 2.00607 534 23 c 2
EndSplineSet
EndChar

StartChar: Y
Encoding: 89 89 123
Width: 826
Flags: HW
HStem: 189 21G<278 303.5> -132 20G<679 686 435.5 442 278.5 304 190.5 197> -132 20G<435.5 442 190.5 197> -210 20G<278.5 304>
VStem: 273 36<71.2559 210 -6.93923 5.09409 -210 -73.2497>
LayerCount: 2
Fore
SplineSet
222 -106 m 2xd8
 207 -122 200 -132 194 -132 c 0
 187 -132 181 -123 168 -103 c 2
 114 -17 l 2
 103 -1 97 8 89 8 c 0
 81 8 71 -2 52 -22 c 2
 32 -44 l 2
 27 -50 23 -53 20 -53 c 0
 14 -53 4 -36 4 -28 c 0
 4 -23 7 -17 14 -9 c 2
 110 98 l 2
 128 118 137 130 145 130 c 0
 153 130 160 119 175 96 c 2
 223 21 l 2
 235 2 242 -8 250 -8 c 0
 253 -8 256 -7 260 -4 c 0
 269 2 273 7 273 25 c 2
 273 200 l 2
 273 210 274 210 282 210 c 2
 299 210 l 2
 308 210 309 210 309 200 c 2
 309 90 l 2
 309 60 318 57 337 78 c 2
 355 98 l 2
 373 118 382 130 390 130 c 0
 398 130 405 119 420 96 c 2
 468 21 l 2
 480 2 487 -8 495 -8 c 0
 503 -8 512 0 528 18 c 2
 605 104 l 2
 621 122 628 131 635 131 c 0
 643 131 649 121 662 100 c 2
 715 18 l 2
 726 1 732 -8 740 -8 c 0
 748 -8 757 0 772 17 c 2
 794 42 l 2
 801 49 805 52 809 52 c 0
 815 52 826 35 826 28 c 0
 826 23 823 18 816 11 c 2
 711 -107 l 2
 697 -123 689 -131 683 -131 c 0
 675 -131 669 -120 655 -98 c 2
 606 -20 l 2
 595 -3 587 5 579 5 c 0
 569 5 559 -4 542 -23 c 2
 467 -106 l 1
 453 -123 445 -132 439 -132 c 0
 432 -132 426 -123 413 -103 c 2
 359 -17 l 2
 348 -1 342 7 334 7 c 0
 330 7 326 5 322 2 c 0
 311 -7 309 -10 309 -29 c 2
 309 -200 l 2
 309 -210 308 -210 300 -210 c 2
 283 -210 l 2
 274 -210 273 -210 273 -200 c 2
 273 -85 l 2
 273 -67 264 -59 248 -77 c 2
 222 -106 l 2xd8
EndSplineSet
EndChar

StartChar: Z
Encoding: 90 90 124
Width: 1071
Flags: HW
HStem: 189 21G<278 303.5> -131 20G<924 931 680.5 687 434 441 278.5 304 190.5 197> -132 20G<680.5 687 190.5 197> -210 20G<278.5 304>
VStem: 273 36<71.2559 210 -7.05078 3.73306 -210 -73.2633>
LayerCount: 2
Fore
SplineSet
1054 52 m 0xb8
 1060 52 1071 35 1071 28 c 0
 1071 23 1068 18 1061 11 c 2
 956 -107 l 2
 942 -123 934 -131 928 -131 c 0xd8
 920 -131 914 -120 900 -98 c 2
 851 -20 l 2
 840 -3 832 5 824 5 c 0
 814 5 804 -4 787 -23 c 2
 712 -106 l 1
 698 -123 690 -132 684 -132 c 0xb8
 677 -132 671 -123 658 -103 c 2
 604 -17 l 2
 593 -1 587 8 579 8 c 0
 571 8 562 -1 543 -22 c 2
 466 -107 l 2
 452 -123 444 -131 438 -131 c 0xd8
 430 -131 424 -120 410 -98 c 2
 361 -20 l 2
 350 -3 342 5 334 5 c 0
 330 5 326 4 322 1 c 0
 311 -6 309 -10 309 -29 c 2
 309 -200 l 2
 309 -210 308 -210 300 -210 c 2
 283 -210 l 2
 274 -210 273 -210 273 -200 c 2
 273 -85 l 2
 273 -67 264 -59 248 -77 c 2
 222 -106 l 2
 208 -123 200 -132 194 -132 c 0
 187 -132 181 -123 168 -103 c 2
 114 -17 l 2
 103 -1 97 8 89 8 c 0
 81 8 71 -2 52 -22 c 2
 32 -44 l 2
 27 -50 23 -53 20 -53 c 0
 14 -53 4 -36 4 -28 c 0
 4 -23 7 -17 14 -9 c 2
 110 98 l 2
 128 118 137 130 145 130 c 0
 153 130 160 119 175 96 c 2
 223 21 l 2
 235 2 242 -8 250 -8 c 0
 253 -8 256 -7 259 -5 c 0
 269 2 273 6 273 25 c 2
 273 200 l 2
 273 210 274 210 282 210 c 2
 299 210 l 2
 308 210 309 210 309 200 c 2
 309 90 l 2
 309 60 318 57 337 78 c 2
 360 104 l 2
 376 122 383 131 390 131 c 0
 398 131 404 121 417 100 c 2
 470 18 l 2
 481 1 487 -8 495 -8 c 0
 503 -8 513 1 527 17 c 2
 600 98 l 2
 618 118 627 130 635 130 c 0
 643 130 650 119 665 96 c 2
 713 21 l 2
 725 2 732 -8 740 -8 c 0
 748 -8 757 0 773 18 c 2
 850 104 l 2
 866 122 873 131 880 131 c 0
 888 131 894 121 907 100 c 2
 960 18 l 2
 971 1 977 -8 985 -8 c 0
 993 -8 1002 0 1017 17 c 2
 1039 42 l 2
 1046 49 1050 52 1054 52 c 0xb8
EndSplineSet
EndChar

StartChar: quotesingle
Encoding: 39 39 125
Width: 586
Flags: W
LayerCount: 2
Back
Fore
SplineSet
148 140 m 25
 250 -20 l 25
 393 140 l 25
 495 -20 l 25
 565 58 l 25
 586 26 l 25
 438 -140 l 25
 336 20 l 25
 193 -140 l 25
 91 20 l 25
 21 -58 l 25
 0 -26 l 25
 148 140 l 25
EndSplineSet
EndChar

